<?xml version="1.0" encoding="utf-8"?>
<!-- Generator: Adobe Illustrator 16.0.0, SVG Export Plug-In . SVG Version: 6.00 Build 0)  -->
<!DOCTYPE svg PUBLIC "-//W3C//DTD SVG 1.1//EN" "http://www.w3.org/Graphics/SVG/1.1/DTD/svg11.dtd">
<svg version="1.1" xmlns="http://www.w3.org/2000/svg" xmlns:xlink="http://www.w3.org/1999/xlink" x="0px" y="0px" width="180px"
	 height="180px" viewBox="0 0 180 180" enable-background="new 0 0 180 180" xml:space="preserve">
<g id="Layer_1">
	<g>
		<path fill="#FAFAFA" d="M171.885,159.885c0,6.627-5.373,12-12,12H20.115c-6.627,0-12-5.373-12-12V20.115c0-6.627,5.373-12,12-12
			h139.77c6.627,0,12,5.373,12,12V159.885z"/>
		<g>
			<g opacity="0.9">
				<path fill="#FFFFFE" d="M159.885,174.385H20.115c-7.444,0-13.5-6.056-13.5-13.5V21.115c0-7.444,6.056-13.5,13.5-13.5h139.77
					c7.444,0,13.5,6.056,13.5,13.5v139.77C173.385,168.329,167.329,174.385,159.885,174.385z M20.115,10.615
					c-5.79,0-10.5,4.71-10.5,10.5v139.77c0,5.79,4.71,10.5,10.5,10.5h139.77c5.79,0,10.5-4.71,10.5-10.5V21.115
					c0-5.79-4.71-10.5-10.5-10.5H20.115z"/>
			</g>
			<g>
				<path fill="#2BABCE" d="M159.885,173.385H20.115c-7.444,0-13.5-6.056-13.5-13.5V20.115c0-7.444,6.056-13.5,13.5-13.5h139.77
					c7.444,0,13.5,6.056,13.5,13.5v139.77C173.385,167.329,167.329,173.385,159.885,173.385z M20.115,9.615
					c-5.79,0-10.5,4.71-10.5,10.5v139.77c0,5.79,4.71,10.5,10.5,10.5h139.77c5.79,0,10.5-4.71,10.5-10.5V20.115
					c0-5.79-4.71-10.5-10.5-10.5H20.115z"/>
			</g>
		</g>
	</g>
	<polygon fill="#2BABCE" points="170.885,125.625 170.885,163.624 167.299,168.582 160.684,171.885 114.167,171.885 	"/>
	<path fill="#FFFFFF" d="M158.756,149.174l-0.009,4.685l-12.696,0.002c0.709,1.74,0.846,3.656,0.419,5.466l12.269-0.002l-0.01,4.686
		l7.729-6.926L158.756,149.174z"/>
</g>
<g id="Layer_2">
	<g>
		<path fill="#2BABCE" d="M127.093,101.522c-2.908-1.48-6.261-1.152-8.779,0.566c-0.218-0.033-0.437-0.072-0.656-0.111
			c-0.76-0.145-1.519-0.336-2.271-0.568c-0.753-0.235-1.499-0.511-2.236-0.837c-1.703-0.755-3.251-1.71-4.634-2.829
			c-0.38-2.69-2.021-5.16-4.627-6.488c-4.244-2.161-9.437-0.472-11.598,3.774c-2.159,4.246-0.471,9.437,3.774,11.597
			c2.766,1.408,5.933,1.18,8.402-0.321c1.84,0.259,3.676,0.769,5.462,1.557c1.763,0.782,3.359,1.781,4.779,2.95
			c0.48,2.531,2.085,4.823,4.559,6.082c4.246,2.162,9.438,0.473,11.598-3.773C133.027,108.877,131.338,103.685,127.093,101.522z
			 M99.001,100.863c-0.541,1.061-1.84,1.482-2.9,0.943c-1.06-0.542-1.483-1.84-0.942-2.9c0.539-1.061,1.837-1.483,2.898-0.942
			C99.118,98.503,99.541,99.801,99.001,100.863z M104.799,98.976c-0.54,1.061-1.838,1.484-2.899,0.943
			c-1.062-0.539-1.482-1.838-0.943-2.9c0.541-1.061,1.839-1.481,2.899-0.942C104.918,96.617,105.339,97.915,104.799,98.976z
			 M126.372,112.446l-2.562-1.305l-1.304,2.563l-2.563-1.304l1.305-2.563l-2.562-1.304l1.304-2.563l2.563,1.304l1.304-2.56
			l2.562,1.304l-1.304,2.56l2.562,1.305L126.372,112.446z"/>
		<path fill="#2BABCE" d="M98.881,132.16c-2.581-1.14-5.598,0.026-6.739,2.609c-1.144,2.581,0.028,5.597,2.607,6.74
			c2.58,1.145,5.601-0.025,6.74-2.608C102.629,136.319,101.465,133.303,98.881,132.16z"/>
		<path fill="#2BABCE" d="M103.094,108.755l-6.339,20.249c1.078-0.015,2.173,0.202,3.228,0.667c1.048,0.462,1.943,1.132,2.66,1.931
			l10.77-18.465c-1.368-1.099-2.901-2.04-4.583-2.782C106.955,109.524,105.026,109,103.094,108.755z"/>
	</g>
	<g>
		<path fill="#2BABCE" d="M141.831,35.332l-0.01-0.318l-1.824,4.048l-7.062,14.785c0,0-7.061,9.403-7.506,17.625
			c-0.111,2.059-3.95-0.318-6.391-1.497l-3.589,8.118L110.188,90l-1.833,4.146c1.676,1.604,3.655,2.943,5.897,3.935
			c2.053,0.911,4.171,1.455,6.289,1.663L124.849,90l0.981-2.22l11.177-25.282l5.128-12.071L141.831,35.332z"/>
		<path fill="#2BABCE" d="M124.691,57.188l2.914-6.594l0.442-1l1.989-4.5l0.529-0.453l8.129-6.953l3.126-2.674
			c-1.229-0.459-3.047-0.859-4.275-1.274v0c-32.631-10.495-64.955-5.396-83.268,16.299c-19.953,23.638-17.698,60.364,2.526,92.926
			c-5.79-20.061-3.088-40.324,9.32-55.025c12.147-14.39,31.112-20.492,51.366-18.546c0.354,0.041,0.905,0.272,1.548,0.583
			l0.39-0.882L124.691,57.188z"/>
		<path fill="#F1F2F2" d="M125.43,71.472c0.445-8.222,7.506-17.625,7.506-17.625l7.062-14.785l1.824-4.048l-3.126,2.674
			l-8.129,6.953l-0.529,0.453l-1.989,4.5l-0.442,1l-2.914,6.594l-5.263,11.906l-0.39,0.882
			C121.479,71.154,125.318,73.531,125.43,71.472z"/>
	</g>
</g>
<g id="Layer_3" display="none">
	<g display="inline">
		<path fill="#2BABCE" d="M51.217,94.277C37.118,92.115,26.252,81.175,24.18,67.054c-2.587-17.615,9.639-34.051,27.254-36.639
			c1.566-0.23,3.156-0.346,4.727-0.346c15.883,0,29.601,11.867,31.91,27.604c0.678,4.618,0.353,9.245-0.968,13.751l-0.299,1.02
			L85.743,72.5c-4.587,0.243-9.04,1.258-13.234,3.019l-5.313,2.229l3.551-4.537c1.468-1.876,2.257-3.893,2.324-5.907l-31.754,4.662
			c1.58,4.695,7.236,7.966,14.128,7.966c1.065,0,2.15-0.08,3.223-0.237c0.665-0.097,1.361-0.241,2.193-0.452l6.296-1.596
			l-4.958,4.195c-3.876,3.28-7.049,7.203-9.431,11.661l-0.501,0.937L51.217,94.277z M44.304,50.673
			c-0.171,0-0.345,0.013-0.519,0.038c-0.934,0.137-1.757,0.628-2.32,1.384c-0.563,0.757-0.798,1.688-0.661,2.621
			c0.253,1.721,1.751,3.019,3.486,3.019c0.171,0,0.345-0.013,0.52-0.038c1.926-0.284,3.262-2.081,2.979-4.005
			C47.536,51.97,46.038,50.673,44.304,50.673z M65.112,47.617c-0.171,0-0.344,0.012-0.518,0.038c-1.925,0.283-3.262,2.08-2.98,4.006
			c0.252,1.719,1.751,3.017,3.485,3.017c0.171,0,0.345-0.013,0.52-0.038c1.926-0.283,3.263-2.08,2.98-4.006
			C68.347,48.914,66.847,47.617,65.112,47.617z"/>
		<path fill="#FFFFFF" d="M56.161,31.568c15.025,0,28.179,11.011,30.426,26.322c0.666,4.537,0.287,8.98-0.923,13.111
			c-4.845,0.256-9.471,1.344-13.736,3.134c1.996-2.55,2.987-5.531,2.542-8.553l-34.989,5.137
			c0.928,6.328,7.758,10.712,15.964,10.712c1.125,0,2.276-0.083,3.441-0.253c0.806-0.118,1.581-0.288,2.344-0.481
			c-3.976,3.364-7.309,7.463-9.785,12.099c-13.013-1.996-23.769-12.254-25.78-25.959c-2.471-16.827,9.165-32.466,25.989-34.938
			C53.168,31.676,54.674,31.568,56.161,31.568 M65.1,56.177c0.243,0,0.49-0.018,0.738-0.054c2.75-0.404,4.649-2.959,4.246-5.708
			c-0.368-2.5-2.517-4.299-4.972-4.299c-0.243,0-0.489,0.018-0.736,0.054c-2.749,0.404-4.649,2.959-4.247,5.708
			C60.497,54.379,62.645,56.177,65.1,56.177 M44.291,59.235c0.243,0,0.49-0.018,0.737-0.054c2.749-0.405,4.65-2.959,4.245-5.708
			c-0.367-2.5-2.514-4.3-4.968-4.3c-0.243,0-0.49,0.018-0.737,0.054c-2.749,0.401-4.651,2.958-4.247,5.708
			C39.688,57.437,41.835,59.235,44.291,59.235 M56.161,28.568L56.161,28.568c-1.643,0-3.306,0.122-4.944,0.362
			c-18.434,2.708-31.229,19.908-28.521,38.342C24.864,82.049,36.235,93.497,50.99,95.76l2.1,0.322l1.001-1.873
			c2.292-4.29,5.346-8.065,9.077-11.223l4.504-3.811l5.417-2.274c4.035-1.693,8.319-2.67,12.733-2.904l2.123-0.112l0.598-2.04
			c1.381-4.715,1.722-9.557,1.013-14.391c-1.185-8.074-5.247-15.441-11.438-20.745C71.989,31.459,64.192,28.568,56.161,28.568
			L56.161,28.568L56.161,28.568z M65.1,53.177c-0.996,0-1.856-0.746-2.001-1.735c-0.162-1.106,0.607-2.141,1.715-2.303
			c0.099-0.015,0.2-0.022,0.299-0.022c0.997,0,1.858,0.746,2.004,1.736c0.162,1.105-0.607,2.139-1.715,2.302
			C65.301,53.17,65.199,53.177,65.1,53.177L65.1,53.177z M44.291,56.235c-0.996,0-1.857-0.747-2.002-1.736
			c-0.079-0.538,0.056-1.072,0.379-1.507s0.797-0.717,1.333-0.795c0.103-0.016,0.205-0.023,0.304-0.023c0.995,0,1.855,0.746,2,1.735
			c0.079,0.538-0.055,1.072-0.378,1.507c-0.324,0.435-0.798,0.718-1.335,0.798C44.492,56.227,44.391,56.235,44.291,56.235
			L44.291,56.235z M43.541,73.155l27.728-4.071c-0.383,1.292-1.065,2.387-1.704,3.203L66.44,76.28l-5.948,1.508
			c-0.781,0.198-1.429,0.332-2.04,0.421c-1.004,0.148-2.015,0.222-3.008,0.222C50.092,78.431,45.581,76.332,43.541,73.155
			L43.541,73.155z"/>
	</g>
	<g display="inline">
		<path fill="#2BABCE" d="M123.206,93.829c-5.811-11.109-16.642-18.919-28.975-20.892l-0.919-0.147l-0.276-0.889
			c-1.304-4.199-1.731-8.545-1.272-12.916c1.737-16.485,15.525-28.916,32.074-28.916c1.133,0,2.281,0.061,3.414,0.18
			c8.578,0.902,16.291,5.09,21.719,11.794c5.428,6.704,7.92,15.12,7.017,23.697c-1.693,16.144-15.202,28.565-31.422,28.895
			l-0.929,0.019L123.206,93.829z M107.146,67.994c0.421,5.804,6.727,10.931,14.898,11.791c0.777,0.082,1.563,0.123,2.334,0.123
			c7.237,0,13.229-3.587,14.685-8.557L107.146,67.994z M135.351,50.195c-1.806,0-3.311,1.359-3.5,3.162
			c-0.1,0.937,0.172,1.856,0.766,2.589c0.594,0.733,1.438,1.191,2.375,1.289c0.129,0.013,0.255,0.02,0.38,0.02
			c1.805,0,3.311-1.359,3.502-3.161c0.201-1.934-1.209-3.675-3.145-3.878C135.602,50.202,135.476,50.195,135.351,50.195z
			 M114.432,47.995c-1.805,0-3.311,1.36-3.503,3.163c-0.199,1.933,1.21,3.673,3.143,3.875c0.13,0.014,0.256,0.021,0.382,0.021
			c1.805,0,3.31-1.359,3.498-3.161c0.1-0.938-0.173-1.858-0.766-2.591c-0.593-0.732-1.437-1.189-2.374-1.288
			C114.683,48.001,114.557,47.995,114.432,47.995z"/>
		<path fill="#FFFFFF" d="M123.838,31.569c1.075,0,2.164,0.057,3.257,0.171c16.912,1.778,29.182,16.931,27.4,33.842
			c-1.637,15.606-14.671,27.242-29.96,27.552c-5.925-11.328-16.951-19.58-30.066-21.678c-1.2-3.866-1.663-8.033-1.213-12.314
			C94.922,43.325,108.278,31.569,123.838,31.569 M114.453,56.554c2.54,0,4.719-1.921,4.99-4.504
			c0.291-2.764-1.712-5.238-4.476-5.527c-0.18-0.019-0.359-0.028-0.536-0.028c-2.54,0-4.72,1.92-4.994,4.504
			c-0.285,2.762,1.713,5.236,4.478,5.526C114.096,56.544,114.275,56.554,114.453,56.554 M135.371,58.754
			c2.541,0,4.719-1.92,4.993-4.503c0.288-2.764-1.714-5.238-4.479-5.528c-0.18-0.019-0.358-0.028-0.535-0.028
			c-2.541,0-4.72,1.919-4.992,4.504c-0.293,2.761,1.713,5.239,4.478,5.527C135.016,58.745,135.194,58.754,135.371,58.754
			 M124.378,81.408c8.63,0,15.774-4.774,16.469-11.377l-35.169-3.699c-0.759,7.233,6.496,13.923,16.209,14.945
			C122.729,81.365,123.56,81.408,124.378,81.408 M123.838,28.569c-17.318,0-31.748,13.008-33.565,30.258
			c-0.481,4.576-0.033,9.124,1.331,13.519l0.553,1.778l1.839,0.294c11.867,1.898,22.29,9.415,27.882,20.106l0.861,1.646l1.857-0.038
			c16.975-0.344,31.111-13.343,32.883-30.238c0.945-8.975-1.662-17.781-7.342-24.796s-13.752-11.398-22.729-12.342
			C126.224,28.632,125.022,28.569,123.838,28.569L123.838,28.569z M114.453,53.554c-0.073,0-0.146-0.004-0.221-0.012
			c-1.116-0.117-1.926-1.119-1.811-2.234c0.109-1.029,0.974-1.813,2.01-1.813c0.072,0,0.146,0.004,0.22,0.012
			c0.543,0.057,1.027,0.319,1.368,0.74c0.341,0.421,0.497,0.95,0.44,1.49C116.351,52.772,115.488,53.554,114.453,53.554
			L114.453,53.554z M135.371,55.754c-0.073,0-0.146-0.004-0.22-0.012c-0.544-0.057-1.028-0.32-1.37-0.741
			c-0.341-0.421-0.497-0.948-0.439-1.486c0.109-1.039,0.973-1.821,2.009-1.821c0.073,0,0.146,0.004,0.22,0.012
			c1.115,0.117,1.927,1.119,1.811,2.234C137.271,54.972,136.407,55.754,135.371,55.754L135.371,55.754z M124.378,78.408
			c-0.72,0-1.452-0.039-2.178-0.115c-6.422-0.676-11.715-4.316-13.176-8.593l27.862,2.931
			C134.869,76.065,130.053,78.408,124.378,78.408L124.378,78.408z"/>
	</g>
	<g display="inline">
		<path fill="#94B43D" d="M87.222,149.429c-20.499-0.267-36.96-17.159-36.695-37.655C50.789,91.54,67.46,75.079,87.689,75.079
			l0.494,0.003c20.496,0.267,36.956,17.16,36.691,37.656c-0.26,20.233-16.935,36.694-37.168,36.694
			C87.704,149.432,87.222,149.429,87.222,149.429z M67.872,119.873c0.277,3.438,2.208,6.677,5.517,9.208
			c3.717,2.843,8.702,4.445,14.037,4.514l0.358,0.002c10.248,0,18.742-5.84,19.54-13.212L67.872,119.873z M100.205,96.002
			c-2.668,0-4.871,2.176-4.911,4.85c-0.034,2.704,2.142,4.936,4.849,4.971c0.001,0,0.001,0,0.001,0c2.738,0,4.94-2.174,4.974-4.847
			c0.031-2.708-2.144-4.939-4.847-4.973l-0.065-1.001V96.002z M75.494,95.68c-2.672,0-4.874,2.176-4.908,4.849
			c-0.035,2.707,2.139,4.938,4.846,4.973c0,0,0.001,0,0.001,0c2.736,0,4.936-2.173,4.971-4.843c0.017-1.314-0.479-2.556-1.394-3.495
			c-0.915-0.94-2.14-1.467-3.451-1.482l-0.065-1.001V95.68z"/>
		<path fill="#FFFFFF" d="M87.689,76.079c0.16,0,0.321,0.001,0.481,0.003c19.978,0.26,35.962,16.667,35.704,36.643
			c-0.255,19.818-16.407,35.707-36.17,35.707c-0.156,0-0.313-0.001-0.469-0.003c-19.978-0.26-35.966-16.664-35.708-36.643
			C51.784,91.969,67.928,76.079,87.689,76.079 M75.499,106.502c3.227,0,5.862-2.595,5.905-5.831c0.041-3.269-2.568-5.95-5.832-5.99
			c-0.026,0-0.052-0.001-0.078-0.001c-3.228,0.001-5.867,2.598-5.908,5.836c-0.042,3.264,2.566,5.943,5.833,5.985
			C75.446,106.501,75.472,106.502,75.499,106.502 M100.207,106.823c3.229,0,5.869-2.598,5.91-5.835
			c0.037-3.264-2.57-5.945-5.834-5.985c-0.026,0-0.052-0.001-0.078-0.001c-3.228,0.001-5.862,2.595-5.911,5.835
			c-0.041,3.264,2.572,5.942,5.836,5.985C100.156,106.822,100.182,106.823,100.207,106.823 M87.784,134.597
			c11.301,0,20.491-6.75,20.6-15.198l-41.545-0.539c-0.111,8.541,9.1,15.589,20.575,15.735
			C87.537,134.597,87.66,134.597,87.784,134.597 M87.689,74.079c-10.092,0-19.609,3.906-26.799,10.998
			c-7.196,7.099-11.231,16.575-11.363,26.683c-0.272,21.049,16.632,38.396,37.682,38.669c0.165,0.002,0.331,0.003,0.495,0.003
			c10.094,0,19.614-3.905,26.805-10.997c7.199-7.1,11.235-16.576,11.365-26.685c0.271-21.048-16.631-38.394-37.678-38.668
			C88.028,74.08,87.857,74.079,87.689,74.079L87.689,74.079z M75.499,104.502l-0.053-0.001c-2.156-0.027-3.887-1.804-3.86-3.96
			c0.027-2.129,1.78-3.86,3.908-3.861l0.051,0.001c1.045,0.013,2.021,0.432,2.749,1.18c0.729,0.749,1.123,1.738,1.11,2.785
			C79.375,102.771,77.624,104.502,75.499,104.502L75.499,104.502z M100.207,104.823l-0.052-0.001
			c-2.156-0.028-3.889-1.805-3.861-3.96c0.031-2.126,1.786-3.859,3.912-3.86l0.052,0.001c2.153,0.026,3.884,1.804,3.859,3.963
			C104.091,103.092,102.337,104.823,100.207,104.823L100.207,104.823z M87.784,132.597l-0.345-0.002
			c-5.122-0.065-9.896-1.596-13.443-4.309c-2.719-2.079-4.436-4.653-4.976-7.398l37.128,0.481
			C104.721,127.718,97,132.597,87.784,132.597L87.784,132.597z"/>
	</g>
	
		<text transform="matrix(1 0 0 1 146.6914 173.3848)" display="inline" fill="#FFFFFF" font-family="'BebasNeue'" font-size="47.4504">+</text>
</g>
</svg>
