<?xml version="1.0" encoding="utf-8"?>
<!-- Generator: Adobe Illustrator 16.0.0, SVG Export Plug-In . SVG Version: 6.00 Build 0)  -->
<!DOCTYPE svg PUBLIC "-//W3C//DTD SVG 1.1//EN" "http://www.w3.org/Graphics/SVG/1.1/DTD/svg11.dtd">
<svg version="1.1" id="Layer_1" xmlns="http://www.w3.org/2000/svg" xmlns:xlink="http://www.w3.org/1999/xlink" x="0px" y="0px"
	 width="240px" height="240px" viewBox="0 0 240 240" enable-background="new 0 0 240 240" xml:space="preserve">
<g id="Layer_3_1_">
	<g id="Layer_1_1_">
		<g>
			<path fill="#414042" d="M235.273,218.38c0,9.329-7.564,16.894-16.896,16.894H21.62c-9.33,0-16.893-7.563-16.893-16.894V21.62
				c0-9.33,7.563-16.893,16.893-16.893h196.76c9.329,0,16.894,7.563,16.894,16.893"/>
			<g>
				<g opacity="0.9">
					<path fill="#6B6B6B" d="M237.385,219.38c0,10.479-8.523,19.005-19.005,19.005H21.62c-10.479,0-19.004-8.523-19.004-19.005
						V22.62c0-10.479,8.525-19.004,19.004-19.004h196.76c10.479,0,19.005,8.525,19.005,19.004 M233.161,22.62
						c0-8.15-6.63-14.781-14.781-14.781H21.62c-8.15,0-14.781,6.631-14.781,14.781v196.76c0,8.151,6.631,14.781,14.781,14.781
						h196.76c8.151,0,14.781-6.63,14.781-14.781"/>
				</g>
				<g>
					<path fill="#58595B" d="M237.385,218.38c0,10.479-8.523,19.005-19.005,19.005H21.62c-10.479,0-19.004-8.523-19.004-19.005
						V21.62c0-10.479,8.525-19.004,19.004-19.004h196.76c10.479,0,19.005,8.525,19.005,19.004 M233.161,21.62
						c0-8.15-6.63-14.781-14.781-14.781H21.62c-8.15,0-14.781,6.631-14.781,14.781v196.76c0,8.151,6.631,14.781,14.781,14.781
						h196.76c8.151,0,14.781-6.63,14.781-14.781"/>
				</g>
			</g>
		</g>
	</g>
</g>
<g id="Layer_4_1_" display="none">
	<g id="Layer_1_2_" display="inline">
		<g id="Layer_4" display="none">
			<g display="inline">
				<g>
					<path fill="#2BABCE" d="M168.256,89.538v56.372c0,0-16.039-4.508-27.953-2.219c-10.675,2.055-18.527,7.843-19.853,8.865v0.172
						c0,0-0.04-0.033-0.111-0.084c-0.07,0.051-0.11,0.084-0.11,0.084v-0.172c-1.323-1.022-9.178-6.813-19.847-8.865
						c-11.918-2.289-29.525,2.219-29.525,2.219V89.371c-1.03,0.155-2.122,0.319-3.296,0.495v60.729c0,0,19.188-4.939,32.241-2.428
						c12.836,2.471,20.592,9.895,20.592,9.895s7.754-7.424,20.588-9.895c13.059-2.516,31.457,2.428,31.457,2.428V90.127
						C172.439,90.127,170.839,89.857,168.256,89.538z M99.413,137.984c10.438,2.009,18.504,8.048,18.504,8.048v-55.46
						c0,0-8.109-6.048-18.571-8.059C88.756,80.476,74.923,84.5,74.923,84.5v55.463C74.923,139.963,88.801,135.945,99.413,137.984z
						 M164.18,140.162v-55.46c0,0-12.681-4.024-23.266-1.987c-10.462,2.01-18.837,8.058-18.837,8.058v55.461
						c0,0,8.327-6.039,18.769-8.049C151.459,136.148,164.18,140.162,164.18,140.162z"/>
				</g>
			</g>
			<path display="inline" fill="#2BABCE" stroke="#FFFFFF" stroke-width="2" stroke-miterlimit="10" d="M178.837,82.623
				c-0.913-0.914-2.41-0.914-3.323,0l-29.472,29.474c-0.913,0.913-2.41,0.913-3.323,0l-7.259-7.259
				c-0.913-0.913-2.409-0.913-3.323,0l-4.451,4.455c-0.914,0.913-0.914,2.41,0,3.323l15.033,15.03c0.913,0.914,2.41,0.914,3.323,0
				l37.246-37.25c0.915-0.914,0.915-2.41,0-3.324L178.837,82.623z"/>
			<path display="inline" fill="#FFFFFF" d="M195.113,176.848c-0.323-0.322-0.852-0.322-1.176,0l-10.414,10.416
				c-0.321,0.322-0.853,0.322-1.174,0l-2.564-2.563c-0.322-0.322-0.852-0.322-1.174,0l-1.573,1.573
				c-0.323,0.322-0.323,0.853,0,1.175l5.313,5.312c0.32,0.323,0.852,0.323,1.174,0l13.162-13.16c0.321-0.324,0.321-0.854,0-1.177
				L195.113,176.848z"/>
			<g id="Your_Icon" display="inline">
				<path fill="#2BABCE" stroke="#FFFFFF" stroke-width="2" stroke-miterlimit="10" d="M58.394,133.249
					c0.42,0.803,1.128,1.36,1.929,1.61c0.803,0.252,1.7,0.197,2.504-0.226l18.257-9.556c1.891,2.122,4.348,3.788,7.251,4.695
					c0.153,0.049,0.306,0.068,0.459,0.094c0.141,0.066,0.28,0.139,0.433,0.188c8.563,2.68,17.711-2.109,20.39-10.675
					c0.056-0.177,0.086-0.353,0.11-0.529c0.079-0.158,0.155-0.317,0.209-0.491c2.68-8.564-2.108-17.711-10.672-20.391
					c-0.152-0.048-0.306-0.07-0.459-0.095c-0.14-0.067-0.28-0.137-0.432-0.184c-8.564-2.68-17.711,2.108-20.391,10.672
					c-0.055,0.177-0.085,0.354-0.109,0.53c-0.08,0.157-0.155,0.317-0.21,0.491c-1.062,3.394-0.934,6.875,0.119,10.012l-18,9.419
					C58.175,129.658,57.554,131.643,58.394,133.249z M90.297,123.506c-5.107-1.599-7.962-7.053-6.364-12.16
					c0.055-0.177,0.085-0.353,0.108-0.53c0.08-0.157,0.155-0.317,0.21-0.491c1.598-5.107,7.053-7.962,12.16-6.364
					c0.153,0.048,0.307,0.07,0.459,0.095c0.141,0.067,0.28,0.136,0.432,0.184c5.107,1.598,7.962,7.053,6.364,12.16
					c-0.055,0.177-0.085,0.354-0.108,0.53c-0.081,0.157-0.155,0.316-0.21,0.491c-1.598,5.106-7.053,7.962-12.159,6.364
					c-0.154-0.049-0.307-0.069-0.461-0.096C90.588,123.624,90.45,123.555,90.297,123.506z"/>
			</g>
		</g>
		<g id="Layer_5">
			<g>
				<path fill="#6D6E71" d="M192.096,124.48c-3.875,0-7.019,3.172-7.019,7.09v76.586c0,3.918,3.144,7.092,7.019,7.092
					c3.877,0,7.018-3.174,7.018-7.092V131.57C199.113,127.652,195.973,124.48,192.096,124.48z"/>
				<path fill="#6D6E71" d="M208.938,124.48c-3.875,0-7.019,3.172-7.019,7.09v76.586c0,3.918,3.144,7.092,7.019,7.092
					c3.877,0,7.02-3.174,7.02-7.092V131.57C215.956,127.652,212.814,124.48,208.938,124.48z"/>
				<path fill="#6D6E71" d="M175.246,124.48c-3.876,0-7.02,3.172-7.02,7.09v76.586c0,3.918,3.144,7.092,7.02,7.092
					c3.877,0,7.018-3.174,7.018-7.092V131.57C182.264,127.652,179.123,124.48,175.246,124.48z"/>
				<path fill="#6D6E71" d="M141.563,124.48c-3.875,0-7.019,3.172-7.019,7.09v76.586c0,3.918,3.144,7.092,7.019,7.092
					c3.877,0,7.02-3.174,7.02-7.092V131.57C148.58,127.652,145.438,124.48,141.563,124.48z"/>
				<path fill="#6D6E71" d="M158.404,124.48c-3.875,0-7.018,3.172-7.018,7.09v76.586c0,3.918,3.143,7.092,7.018,7.092
					c3.878,0,7.019-3.174,7.019-7.092V131.57C165.423,127.652,162.282,124.48,158.404,124.48z"/>
			</g>
			<g>
				<path fill="#6D6E71" d="M86.166,124.48c-3.875,0-7.018,3.172-7.018,7.09v76.586c0,3.918,3.143,7.092,7.018,7.092
					c3.877,0,7.018-3.174,7.018-7.092V131.57C93.184,127.652,90.043,124.48,86.166,124.48z"/>
				<path fill="#6D6E71" d="M103.009,124.48c-3.875,0-7.018,3.172-7.018,7.09v76.586c0,3.918,3.143,7.092,7.018,7.092
					c3.877,0,7.018-3.174,7.018-7.092V131.57C110.027,127.652,106.886,124.48,103.009,124.48z"/>
				<path fill="#6D6E71" d="M69.317,124.48c-3.875,0-7.018,3.172-7.018,7.09v76.586c0,3.918,3.143,7.092,7.018,7.092
					c3.877,0,7.018-3.174,7.018-7.092V131.57C76.335,127.652,73.194,124.48,69.317,124.48z"/>
				<path fill="#6D6E71" d="M35.633,124.48c-3.875,0-7.018,3.172-7.018,7.09v76.586c0,3.918,3.143,7.092,7.018,7.092
					c3.876,0,7.018-3.174,7.018-7.092V131.57C42.651,127.652,39.509,124.48,35.633,124.48z"/>
				<path fill="#6D6E71" d="M52.476,124.48c-3.875,0-7.018,3.172-7.018,7.09v76.586c0,3.918,3.143,7.092,7.018,7.092
					c3.877,0,7.018-3.174,7.018-7.092V131.57C59.494,127.652,56.353,124.48,52.476,124.48z"/>
			</g>
			<g>
				<path fill="#FBB040" d="M86.166,15.712c-3.875,0-7.018,3.174-7.018,7.092v76.584c0,3.919,3.143,7.091,7.018,7.091
					c3.877,0,7.018-3.172,7.018-7.091V22.805C93.184,18.887,90.043,15.712,86.166,15.712z"/>
				<path fill="#FBB040" d="M103.009,15.712c-3.875,0-7.018,3.174-7.018,7.092v76.584c0,3.919,3.143,7.091,7.018,7.091
					c3.877,0,7.018-3.172,7.018-7.091V22.805C110.027,18.887,106.886,15.712,103.009,15.712z"/>
				<path fill="#FBB040" d="M69.317,15.712c-3.875,0-7.018,3.174-7.018,7.092v76.584c0,3.919,3.143,7.091,7.018,7.091
					c3.877,0,7.018-3.172,7.018-7.091V22.805C76.335,18.887,73.194,15.712,69.317,15.712z"/>
				<path fill="#FBB040" d="M35.633,15.712c-3.875,0-7.018,3.174-7.018,7.092v76.584c0,3.919,3.143,7.091,7.018,7.091
					c3.876,0,7.018-3.172,7.018-7.091V22.805C42.651,18.887,39.509,15.712,35.633,15.712z"/>
				<path fill="#FBB040" d="M52.476,15.712c-3.875,0-7.018,3.174-7.018,7.092v76.584c0,3.919,3.143,7.091,7.018,7.091
					c3.877,0,7.018-3.172,7.018-7.091V22.805C59.494,18.887,56.353,15.712,52.476,15.712z"/>
			</g>
			<g>
				<path fill="#FBB040" d="M208.938,186.83c-3.875,0-7.019,3.172-7.019,7.09v14.236c0,3.918,3.144,7.092,7.019,7.092
					c3.877,0,7.02-3.174,7.02-7.092V193.92C215.956,190.002,212.814,186.83,208.938,186.83z"/>
				<path fill="#FBB040" d="M175.246,186.83c-3.876,0-7.02,3.172-7.02,7.09v14.236c0,3.918,3.144,7.092,7.02,7.092
					c3.877,0,7.018-3.174,7.018-7.092V193.92C182.264,190.002,179.123,186.83,175.246,186.83z"/>
			</g>
			<g>
				<path fill="#FFFFFF" stroke="#2BABCE" stroke-miterlimit="10" d="M208.941,75.808c-3.875,0-7.019,3.174-7.019,7.092v16.489
					c0,3.919,3.144,7.091,7.019,7.091c3.877,0,7.02-3.172,7.02-7.091v-16.49C215.961,78.981,212.818,75.808,208.941,75.808z"/>
				<path fill="#FFFFFF" stroke="#2BABCE" stroke-miterlimit="10" d="M141.564,75.808c-3.875,0-7.019,3.174-7.019,7.092v16.489
					c0,3.919,3.144,7.091,7.019,7.091c3.877,0,7.02-3.172,7.02-7.091v-16.49C148.584,78.981,145.441,75.808,141.564,75.808z"/>
				<path fill="#FFFFFF" stroke="#2BABCE" stroke-miterlimit="10" d="M158.409,75.808c-3.875,0-7.019,3.174-7.019,7.092v16.489
					c0,3.919,3.144,7.091,7.019,7.091c3.877,0,7.019-3.172,7.019-7.091v-16.49C165.428,78.981,162.286,75.808,158.409,75.808z"/>
			</g>
			<g>
				<path fill="#6D6E71" d="M192.091,15.712c-3.876,0-7.019,3.174-7.019,7.092v76.584c0,3.918,3.143,7.091,7.019,7.091
					c3.877,0,7.019-3.173,7.019-7.091V22.805C199.107,18.887,195.968,15.712,192.091,15.712z"/>
				<path fill="#6D6E71" d="M208.936,15.712c-3.877,0-7.02,3.174-7.02,7.092v76.584c0,3.918,3.143,7.091,7.02,7.091
					c3.875,0,7.019-3.173,7.019-7.091V22.805C215.952,18.887,212.811,15.712,208.936,15.712z"/>
				<path fill="#6D6E71" d="M175.242,15.712c-3.876,0-7.02,3.174-7.02,7.092v76.584c0,3.918,3.144,7.091,7.02,7.091
					s7.018-3.173,7.018-7.091V22.805C182.26,18.887,179.118,15.712,175.242,15.712z"/>
				<path fill="#6D6E71" d="M141.559,15.712c-3.877,0-7.02,3.174-7.02,7.092v76.584c0,3.918,3.143,7.091,7.02,7.091
					s7.019-3.173,7.019-7.091V22.805C148.575,18.887,145.436,15.712,141.559,15.712z"/>
				<path fill="#6D6E71" d="M158.4,15.712c-3.875,0-7.02,3.174-7.02,7.092v76.584c0,3.918,3.145,7.091,7.02,7.091
					c3.877,0,7.019-3.173,7.019-7.091V22.805C165.419,18.887,162.277,15.712,158.4,15.712z"/>
			</g>
			<g>
				<path fill="#2BABCE" d="M86.166,192.652c-3.875,0-7.018,3.172-7.018,7.09v8.414c0,3.918,3.143,7.092,7.018,7.092
					c3.877,0,7.018-3.174,7.018-7.092v-8.414C93.184,195.824,90.043,192.652,86.166,192.652z"/>
				<path fill="#2BABCE" d="M103.009,192.652c-3.875,0-7.018,3.172-7.018,7.09v8.414c0,3.918,3.143,7.092,7.018,7.092
					c3.877,0,7.018-3.174,7.018-7.092v-8.414C110.027,195.824,106.886,192.652,103.009,192.652z"/>
				<path fill="#2BABCE" d="M69.317,192.652c-3.875,0-7.018,3.172-7.018,7.09v8.414c0,3.918,3.143,7.092,7.018,7.092
					c3.877,0,7.018-3.174,7.018-7.092v-8.414C76.335,195.824,73.194,192.652,69.317,192.652z"/>
				<path fill="#2BABCE" d="M35.633,192.652c-3.875,0-7.018,3.172-7.018,7.09v8.414c0,3.918,3.143,7.092,7.018,7.092
					c3.876,0,7.018-3.174,7.018-7.092v-8.414C42.651,195.824,39.509,192.652,35.633,192.652z"/>
				<path fill="#2BABCE" d="M52.476,192.652c-3.875,0-7.018,3.172-7.018,7.09v8.414c0,3.918,3.143,7.092,7.018,7.092
					c3.877,0,7.018-3.174,7.018-7.092v-8.414C59.494,195.824,56.353,192.652,52.476,192.652z"/>
			</g>
			<g>
				<path fill="#FBB040" d="M86.166,192.652c-3.875,0-7.018,3.172-7.018,7.09v8.414c0,3.918,3.143,7.092,7.018,7.092
					c3.877,0,7.018-3.174,7.018-7.092v-8.414C93.184,195.824,90.043,192.652,86.166,192.652z"/>
				<path fill="#FBB040" d="M103.009,180.855c-3.875,0-7.018,3.174-7.018,7.092v20.209c0,3.918,3.143,7.092,7.018,7.092
					c3.877,0,7.018-3.174,7.018-7.092v-20.209C110.027,184.029,106.886,180.855,103.009,180.855z"/>
				<path fill="#FBB040" d="M69.317,192.652c-3.875,0-7.018,3.172-7.018,7.09v8.414c0,3.918,3.143,7.092,7.018,7.092
					c3.877,0,7.018-3.174,7.018-7.092v-8.414C76.335,195.824,73.194,192.652,69.317,192.652z"/>
				<path fill="#FBB040" d="M35.633,129.941c-3.875,0-7.018,3.174-7.018,7.092v71.123c0,3.918,3.143,7.092,7.018,7.092
					c3.876,0,7.018-3.174,7.018-7.092v-71.123C42.651,133.115,39.509,129.941,35.633,129.941z"/>
				<path fill="#FBB040" d="M52.476,165.504c-3.875,0-7.018,3.172-7.018,7.09v35.563c0,3.918,3.143,7.092,7.018,7.092
					c3.877,0,7.018-3.174,7.018-7.092v-35.563C59.494,168.676,56.353,165.504,52.476,165.504z"/>
			</g>
			<g>
				<path fill="#FBB040" d="M192.1,43.834c-3.875,0-7.019,3.174-7.019,7.092v48.462c0,3.919,3.144,7.091,7.019,7.091
					c3.877,0,7.02-3.172,7.02-7.091V50.926C199.117,47.008,195.977,43.834,192.1,43.834z"/>
				<path fill="#FBB040" d="M208.941,75.808c-3.875,0-7.019,3.174-7.019,7.092v16.489c0,3.919,3.144,7.091,7.019,7.091
					c3.877,0,7.02-3.172,7.02-7.091v-16.49C215.961,78.981,212.818,75.808,208.941,75.808z"/>
				<path fill="#FBB040" d="M175.25,59.319c-3.875,0-7.02,3.173-7.02,7.091v32.977c0,3.919,3.145,7.091,7.02,7.091
					c3.877,0,7.02-3.172,7.02-7.091V66.412C182.27,62.494,179.127,59.319,175.25,59.319z"/>
				<path fill="#FBB040" d="M141.564,75.808c-3.875,0-7.019,3.174-7.019,7.092v16.489c0,3.919,3.144,7.091,7.019,7.091
					c3.877,0,7.02-3.172,7.02-7.091v-16.49C148.584,78.981,145.441,75.808,141.564,75.808z"/>
				<path fill="#FBB040" d="M158.409,75.808c-3.875,0-7.019,3.174-7.019,7.092v16.489c0,3.919,3.144,7.091,7.019,7.091
					c3.877,0,7.019-3.172,7.019-7.091v-16.49C165.428,78.981,162.286,75.808,158.409,75.808z"/>
			</g>
		</g>
		<g id="Layer_2" display="none">
			<g display="inline">
				<path fill="#2BABCE" d="M157.093,131.521c-2.907-1.479-6.261-1.151-8.778,0.565c-0.219-0.032-0.438-0.071-0.655-0.11
					c-0.761-0.146-1.521-0.336-2.271-0.567c-0.754-0.235-1.498-0.511-2.236-0.837c-1.702-0.756-3.25-1.711-4.633-2.829
					c-0.381-2.69-2.021-5.16-4.627-6.488c-4.244-2.161-9.438-0.472-11.6,3.774c-2.159,4.246-0.473,9.437,3.773,11.597
					c2.767,1.408,5.934,1.181,8.401-0.321c1.841,0.26,3.677,0.771,5.462,1.557c1.764,0.783,3.359,1.781,4.779,2.951
					c0.48,2.53,2.085,4.822,4.559,6.082c4.246,2.162,9.438,0.474,11.6-3.772C163.027,138.877,161.338,133.686,157.093,131.521z
					 M129.001,130.863c-0.541,1.061-1.84,1.482-2.899,0.943c-1.061-0.543-1.482-1.842-0.941-2.9
					c0.539-1.061,1.837-1.483,2.896-0.942C129.118,128.503,129.541,129.801,129.001,130.863z M134.799,128.977
					c-0.54,1.062-1.838,1.483-2.898,0.942c-1.063-0.539-1.481-1.838-0.942-2.899c0.541-1.062,1.839-1.48,2.897-0.941
					C134.918,126.617,135.339,127.915,134.799,128.977z M156.372,142.445l-2.562-1.305l-1.306,2.563l-2.563-1.305l1.306-2.563
					l-2.563-1.304l1.305-2.563l2.563,1.303l1.306-2.56l2.562,1.304l-1.304,2.562l2.562,1.305L156.372,142.445z"/>
				<path fill="#2BABCE" d="M128.881,162.16c-2.581-1.141-5.598,0.025-6.738,2.609c-1.145,2.58,0.027,5.597,2.606,6.738
					c2.58,1.146,5.601-0.023,6.739-2.607C132.629,166.318,131.465,163.303,128.881,162.16z"/>
				<path fill="#2BABCE" d="M133.094,138.755l-6.339,20.249c1.078-0.015,2.173,0.202,3.228,0.667c1.05,0.462,1.943,1.132,2.66,1.931
					l10.771-18.465c-1.368-1.099-2.9-2.039-4.583-2.781C136.955,139.523,135.025,139,133.094,138.755z"/>
			</g>
			<g display="inline">
				<path fill="#2BABCE" d="M171.831,65.332l-0.011-0.318l-1.823,4.048l-7.062,14.785c0,0-7.063,9.403-7.506,17.625
					c-0.111,2.059-3.951-0.318-6.393-1.497l-3.589,8.118L140.188,120l-1.832,4.146c1.677,1.604,3.654,2.941,5.896,3.935
					c2.053,0.911,4.171,1.455,6.289,1.663L154.85,120l0.98-2.22l11.177-25.282l5.128-12.071L171.831,65.332z"/>
				<path fill="#2BABCE" d="M154.691,87.188l2.914-6.594l0.44-1l1.989-4.5l0.527-0.453l8.129-6.953l3.127-2.674
					c-1.229-0.459-3.047-0.859-4.274-1.274l0,0c-32.631-10.495-64.955-5.396-83.268,16.299
					c-19.953,23.638-17.698,60.363,2.526,92.926c-5.79-20.061-3.088-40.324,9.32-55.025c12.147-14.39,31.11-20.492,51.366-18.546
					c0.354,0.041,0.904,0.272,1.548,0.583l0.391-0.882L154.691,87.188z"/>
				<path fill="#F1F2F2" d="M155.43,101.472c0.445-8.222,7.506-17.625,7.506-17.625l7.063-14.785l1.824-4.048l-3.128,2.674
					l-8.129,6.953l-0.527,0.453l-1.989,4.5l-0.44,1l-2.914,6.594l-5.264,11.906l-0.391,0.882
					C151.479,101.154,155.318,103.531,155.43,101.472z"/>
			</g>
		</g>
		<g id="Layer_3" display="none">
			<g display="inline">
				<path fill="#2BABCE" d="M81.217,124.277c-14.099-2.162-24.964-13.104-27.037-27.224c-2.587-17.615,9.639-34.051,27.254-36.639
					c1.566-0.23,3.156-0.346,4.727-0.346c15.883,0,29.601,11.867,31.91,27.604c0.678,4.618,0.353,9.245-0.968,13.751l-0.299,1.02
					l-1.062,0.056c-4.587,0.243-9.04,1.258-13.234,3.019l-5.313,2.229l3.551-4.537c1.468-1.876,2.257-3.893,2.324-5.907
					l-31.754,4.662c1.58,4.695,7.236,7.966,14.128,7.966c1.065,0,2.15-0.08,3.223-0.237c0.665-0.097,1.361-0.241,2.193-0.452
					l6.296-1.596l-4.958,4.195c-3.876,3.28-7.049,7.203-9.431,11.661l-0.501,0.938L81.217,124.277z M74.304,80.673
					c-0.171,0-0.345,0.013-0.519,0.038c-0.934,0.137-1.757,0.628-2.32,1.384c-0.563,0.757-0.798,1.688-0.661,2.621
					c0.253,1.721,1.751,3.019,3.486,3.019c0.171,0,0.345-0.013,0.52-0.038c1.926-0.284,3.262-2.081,2.979-4.005
					C77.536,81.97,76.038,80.673,74.304,80.673z M95.112,77.617c-0.171,0-0.344,0.012-0.518,0.038
					c-1.925,0.283-3.262,2.08-2.98,4.006c0.252,1.719,1.751,3.017,3.485,3.017c0.171,0,0.345-0.013,0.52-0.038
					c1.926-0.283,3.263-2.08,2.98-4.006C98.347,78.914,96.847,77.617,95.112,77.617z"/>
				<path fill="#FFFFFF" d="M86.161,61.568c15.025,0,28.179,11.011,30.426,26.322c0.666,4.537,0.287,8.98-0.923,13.111
					c-4.845,0.256-9.471,1.344-13.736,3.134c1.996-2.55,2.987-5.531,2.542-8.553l-34.989,5.137
					c0.928,6.328,7.758,10.712,15.964,10.712c1.125,0,2.276-0.083,3.441-0.253c0.806-0.118,1.581-0.288,2.344-0.481
					c-3.976,3.364-7.309,7.463-9.785,12.099c-13.013-1.996-23.769-12.254-25.78-25.959C53.194,80.01,64.83,64.371,81.654,61.899
					C83.168,61.676,84.674,61.568,86.161,61.568 M95.1,86.177c0.243,0,0.49-0.018,0.738-0.054c2.75-0.404,4.649-2.959,4.246-5.708
					c-0.368-2.5-2.517-4.299-4.972-4.299c-0.243,0-0.489,0.018-0.736,0.054c-2.749,0.404-4.649,2.959-4.247,5.708
					C90.497,84.379,92.645,86.177,95.1,86.177 M74.291,89.235c0.243,0,0.49-0.018,0.737-0.054c2.749-0.405,4.65-2.959,4.245-5.708
					c-0.367-2.5-2.514-4.3-4.968-4.3c-0.243,0-0.49,0.018-0.737,0.054c-2.749,0.401-4.651,2.958-4.247,5.708
					C69.688,87.437,71.835,89.235,74.291,89.235 M86.161,58.568L86.161,58.568c-1.643,0-3.306,0.122-4.944,0.362
					c-18.434,2.708-31.229,19.908-28.521,38.342c2.168,14.777,13.539,26.225,28.294,28.488l2.1,0.322l1.001-1.873
					c2.292-4.29,5.346-8.065,9.077-11.223l4.504-3.811l5.417-2.274c4.035-1.693,8.319-2.67,12.733-2.904l2.123-0.112l0.598-2.04
					c1.381-4.715,1.722-9.557,1.013-14.391c-1.185-8.074-5.247-15.441-11.438-20.745C101.989,61.459,94.192,58.568,86.161,58.568
					L86.161,58.568L86.161,58.568z M95.1,83.177c-0.996,0-1.856-0.746-2.001-1.735c-0.162-1.106,0.607-2.141,1.715-2.303
					c0.099-0.015,0.2-0.022,0.299-0.022c0.997,0,1.858,0.746,2.004,1.736c0.162,1.105-0.607,2.139-1.715,2.302
					C95.301,83.17,95.199,83.177,95.1,83.177L95.1,83.177z M74.291,86.235c-0.996,0-1.857-0.747-2.002-1.736
					c-0.079-0.538,0.056-1.072,0.379-1.507c0.323-0.435,0.797-0.717,1.333-0.795c0.103-0.016,0.205-0.023,0.304-0.023
					c0.995,0,1.855,0.746,2,1.735c0.079,0.538-0.055,1.072-0.378,1.507c-0.324,0.435-0.798,0.718-1.335,0.798
					C74.492,86.227,74.391,86.235,74.291,86.235L74.291,86.235z M73.541,103.155l27.728-4.071c-0.383,1.292-1.065,2.387-1.704,3.203
					l-3.125,3.994l-5.948,1.508c-0.781,0.198-1.429,0.332-2.04,0.421c-1.004,0.148-2.015,0.222-3.008,0.222
					C80.092,108.431,75.581,106.332,73.541,103.155L73.541,103.155z"/>
			</g>
			<g display="inline">
				<path fill="#2BABCE" d="M153.206,123.829c-5.812-11.109-16.642-18.919-28.976-20.892l-0.918-0.147l-0.276-0.889
					c-1.304-4.199-1.731-8.545-1.272-12.916c1.737-16.485,15.525-28.916,32.074-28.916c1.133,0,2.281,0.061,3.414,0.18
					c8.578,0.902,16.291,5.09,21.719,11.794s7.92,15.12,7.018,23.697c-1.692,16.144-15.201,28.564-31.422,28.895l-0.93,0.02
					L153.206,123.829z M137.146,97.994c0.42,5.804,6.727,10.931,14.896,11.791c0.775,0.082,1.563,0.123,2.334,0.123
					c7.236,0,13.229-3.587,14.686-8.557L137.146,97.994z M165.352,80.195c-1.807,0-3.312,1.359-3.5,3.162
					c-0.101,0.937,0.172,1.856,0.767,2.589c0.594,0.733,1.438,1.191,2.375,1.289c0.129,0.013,0.255,0.02,0.38,0.02
					c1.805,0,3.313-1.359,3.502-3.161c0.201-1.934-1.209-3.675-3.146-3.878C165.602,80.202,165.477,80.195,165.352,80.195z
					 M144.432,77.995c-1.805,0-3.311,1.36-3.502,3.163c-0.199,1.933,1.209,3.673,3.144,3.875c0.13,0.014,0.256,0.021,0.382,0.021
					c1.805,0,3.311-1.359,3.498-3.161c0.102-0.938-0.174-1.858-0.768-2.591c-0.593-0.732-1.437-1.189-2.373-1.288
					C144.684,78.001,144.557,77.995,144.432,77.995z"/>
				<path fill="#FFFFFF" d="M153.838,61.569c1.075,0,2.164,0.057,3.258,0.171c16.911,1.778,29.182,16.931,27.399,33.842
					c-1.638,15.606-14.671,27.242-29.96,27.552c-5.926-11.328-16.951-19.58-30.066-21.678c-1.199-3.866-1.662-8.033-1.213-12.314
					C124.922,73.325,138.277,61.569,153.838,61.569 M144.453,86.554c2.54,0,4.719-1.921,4.99-4.504
					c0.291-2.764-1.713-5.238-4.478-5.527c-0.18-0.019-0.358-0.028-0.534-0.028c-2.541,0-4.722,1.92-4.994,4.504
					c-0.285,2.762,1.713,5.236,4.478,5.526C144.096,86.544,144.275,86.554,144.453,86.554 M165.371,88.754
					c2.541,0,4.719-1.92,4.992-4.503c0.289-2.764-1.713-5.238-4.479-5.528c-0.18-0.019-0.356-0.028-0.534-0.028
					c-2.541,0-4.721,1.919-4.992,4.504c-0.293,2.761,1.713,5.239,4.479,5.527C165.016,88.745,165.193,88.754,165.371,88.754
					 M154.378,111.408c8.63,0,15.774-4.774,16.47-11.377l-35.17-3.699c-0.759,7.233,6.496,13.923,16.209,14.945
					C152.729,111.365,153.561,111.408,154.378,111.408 M153.838,58.569c-17.318,0-31.748,13.008-33.565,30.258
					c-0.481,4.576-0.033,9.124,1.331,13.519l0.555,1.778l1.839,0.294c11.866,1.898,22.29,9.415,27.882,20.105l0.859,1.646
					l1.857-0.038c16.975-0.344,31.111-13.343,32.883-30.238c0.945-8.975-1.662-17.781-7.342-24.796
					c-5.68-7.015-13.752-11.398-22.729-12.342C156.225,58.632,155.021,58.569,153.838,58.569L153.838,58.569z M144.453,83.554
					c-0.073,0-0.146-0.004-0.221-0.012c-1.116-0.117-1.926-1.119-1.813-2.234c0.107-1.029,0.975-1.813,2.012-1.813
					c0.07,0,0.146,0.004,0.219,0.012c0.543,0.057,1.026,0.319,1.369,0.74c0.34,0.421,0.496,0.95,0.438,1.49
					C146.352,82.772,145.488,83.554,144.453,83.554L144.453,83.554z M165.371,85.754c-0.073,0-0.146-0.004-0.221-0.012
					c-0.543-0.057-1.027-0.32-1.369-0.741s-0.497-0.948-0.439-1.486c0.109-1.039,0.973-1.821,2.01-1.821
					c0.072,0,0.146,0.004,0.219,0.012c1.115,0.117,1.929,1.119,1.813,2.234C167.271,84.972,166.407,85.754,165.371,85.754
					L165.371,85.754z M154.378,108.408c-0.72,0-1.452-0.039-2.178-0.115c-6.423-0.676-11.716-4.316-13.177-8.593l27.863,2.931
					C164.869,106.065,160.053,108.408,154.378,108.408L154.378,108.408z"/>
			</g>
			<g display="inline">
				<path fill="#94B43D" d="M117.222,179.43c-20.499-0.268-36.96-17.16-36.695-37.656c0.262-20.231,16.933-36.693,37.162-36.693
					l0.494,0.003c20.497,0.267,36.956,17.16,36.691,37.655c-0.261,20.232-16.935,36.693-37.168,36.693
					C117.704,179.432,117.222,179.43,117.222,179.43z M97.872,149.873c0.277,3.438,2.208,6.677,5.517,9.208
					c3.717,2.843,8.702,4.444,14.037,4.515l0.358,0.002c10.248,0,18.741-5.841,19.54-13.213L97.872,149.873z M130.205,126.002
					c-2.668,0-4.871,2.176-4.911,4.85c-0.034,2.705,2.142,4.938,4.849,4.973c0.002,0,0.002,0,0.002,0
					c2.737,0,4.939-2.176,4.975-4.848c0.029-2.709-2.145-4.938-4.848-4.974l-0.064-1.001L130.205,126.002L130.205,126.002z
					 M105.494,125.68c-2.672,0-4.874,2.176-4.908,4.85c-0.035,2.707,2.139,4.938,4.846,4.974h0.001c2.736,0,4.936-2.173,4.971-4.843
					c0.017-1.313-0.479-2.557-1.394-3.495c-0.915-0.938-2.14-1.467-3.451-1.481l-0.065-1V125.68z"/>
				<path fill="#FFFFFF" d="M117.689,106.079c0.16,0,0.321,0.001,0.481,0.003c19.979,0.26,35.962,16.667,35.704,36.643
					c-0.255,19.818-16.407,35.707-36.17,35.707c-0.156,0-0.313,0-0.469-0.002c-19.978-0.261-35.966-16.664-35.708-36.644
					C81.784,121.969,97.928,106.079,117.689,106.079 M105.499,136.502c3.227,0,5.862-2.595,5.905-5.831
					c0.041-3.269-2.568-5.95-5.832-5.989c-0.026,0-0.052-0.002-0.078-0.002c-3.228,0.002-5.867,2.598-5.908,5.836
					c-0.042,3.264,2.566,5.943,5.833,5.985C105.446,136.501,105.472,136.502,105.499,136.502 M130.207,136.823
					c3.229,0,5.869-2.599,5.91-5.835c0.037-3.264-2.57-5.945-5.834-5.985c-0.026,0-0.053-0.001-0.078-0.001
					c-3.229,0.001-5.862,2.596-5.911,5.835c-0.041,3.265,2.572,5.942,5.836,5.985C130.156,136.822,130.182,136.823,130.207,136.823
					 M117.784,164.598c11.301,0,20.491-6.75,20.6-15.199l-41.545-0.539c-0.111,8.541,9.1,15.591,20.575,15.736
					C117.537,164.598,117.66,164.598,117.784,164.598 M117.689,104.079c-10.092,0-19.609,3.906-26.799,10.998
					c-7.196,7.099-11.231,16.575-11.363,26.683c-0.272,21.049,16.632,38.396,37.682,38.67c0.165,0.002,0.331,0.002,0.495,0.002
					c10.094,0,19.614-3.904,26.805-10.996c7.199-7.101,11.235-16.576,11.365-26.686c0.271-21.048-16.631-38.394-37.678-38.668
					C118.028,104.08,117.857,104.079,117.689,104.079L117.689,104.079z M105.499,134.502l-0.053-0.001
					c-2.156-0.026-3.887-1.804-3.86-3.96c0.027-2.129,1.78-3.859,3.908-3.861l0.051,0.002c1.045,0.012,2.021,0.432,2.749,1.18
					c0.729,0.748,1.123,1.738,1.11,2.785C109.375,132.771,107.624,134.502,105.499,134.502L105.499,134.502z M130.207,134.823
					l-0.053-0.001c-2.155-0.028-3.889-1.805-3.86-3.961c0.031-2.125,1.786-3.858,3.912-3.859l0.052,0.001
					c2.153,0.026,3.885,1.804,3.859,3.963C134.091,133.092,132.337,134.823,130.207,134.823L130.207,134.823z M117.784,162.598
					l-0.345-0.002c-5.122-0.065-9.896-1.597-13.443-4.31c-2.719-2.079-4.436-4.653-4.976-7.397l37.128,0.48
					C134.721,157.718,127,162.598,117.784,162.598L117.784,162.598z"/>
			</g>
			
				<text transform="matrix(1 0 0 1 176.6914 203.3848)" display="inline" fill="#FFFFFF" font-family="'BebasNeue'" font-size="47.4504">+</text>
		</g>
	</g>
	<g id="Layer_2_1_" display="inline">
		<text transform="matrix(1 0 0 1 56.2725 119.001)" fill="#FBB03B" font-family="'MyriadPro-Regular'" font-size="12">Gozu</text>
		<text transform="matrix(1 0 0 1 148.082 119.001)" fill="#FBB03B" font-family="'MyriadPro-Regular'" font-size="12">Technicien</text>
		<text transform="matrix(1 0 0 1 51.5684 225.334)" fill="#FBB03B" font-family="'MyriadPro-Regular'" font-size="12">Farmer</text>
		<text transform="matrix(1 0 0 1 157.043 225.334)" fill="#FBB03B" font-family="'MyriadPro-Regular'" font-size="12">“Noob”</text>
	</g>
</g>
<g id="Layer_5_1_" display="none">
	<g display="inline">
		<path fill="#F7931E" stroke="#828282" stroke-miterlimit="10" d="M118.854,105.737c0.562,0,0.814-0.385,0.801-0.952
			c-0.011-0.515-0.342-0.756-0.809-0.823c-0.568-0.078-1.042,0.04-1.07,0.537C117.739,105.066,118.286,105.737,118.854,105.737z"/>
		<path fill="#F7931E" stroke="#828282" stroke-miterlimit="10" d="M116.115,103.961c-0.465,0.067-0.8,0.308-0.811,0.823
			c-0.015,0.567,0.224,0.952,0.798,0.952c0.573,0,1.119-0.67,1.081-1.238C117.146,104.002,116.681,103.879,116.115,103.961z"/>
		<path fill="#F7931E" stroke="#828282" stroke-miterlimit="10" d="M120.784,58.808c-0.313,0.194-0.452,0.411-0.516,0.485
			l4.503-0.085c0,0-0.256-0.443-1.756-0.692c-0.271-0.041-0.519-0.059-0.738-0.059c1.387-0.432,1.802-0.751,3.025-0.359
			c0.781,0.254,1.249,0.883,1.249,0.883s-1.341-2.808-3.295-2.133c-1.745,0.608-1.063,0.407-2.644,0.928
			c-1.211,0.399-2.016-0.087-2.016-0.087S119.201,58.923,120.784,58.808z"/>
		<path fill="#F7931E" stroke="#828282" stroke-miterlimit="10" d="M115.289,70.545c-0.771,0-1.604-0.244-1.604-0.244
			s0.447,1.246,3.779,1.208c3.336,0.037,3.779-1.208,3.779-1.208s-0.833,0.244-1.604,0.244H115.289z"/>
		<path fill="#F7931E" stroke="#828282" stroke-miterlimit="10" d="M108.434,58.985c0,0,0.463-0.631,1.249-0.885
			c1.22-0.395,1.633-0.072,3.018,0.359c-0.224,0.002-0.467,0.019-0.736,0.062c-1.503,0.247-1.754,0.69-1.754,0.69l4.507,0.086
			c-0.07-0.078-0.209-0.294-0.522-0.485c1.586,0.11,2.189-1.125,2.189-1.125s-0.81,0.486-2.017,0.09
			c-1.575-0.52-0.894-0.321-2.645-0.926C109.767,56.176,108.434,58.985,108.434,58.985z"/>
		<path fill="#F7931E" stroke="#828282" stroke-miterlimit="10" d="M199.129,74.717l3.6-3.144l-2.215-0.311l-3.771,3.101
			l2.765-3.242l-8.457-1.187l-3.578,3.13l-5.923-0.835c-0.524-0.667-1.135-1.308-1.812-1.898c1.826,0.401,3.423,1.056,4.682,1.87
			c-0.984-2.398-4.021-4.275-7.818-4.578c-0.039-0.075-0.068-0.146-0.102-0.216c2.789,0.021,5.395,0.575,7.575,1.552
			c-2.095-2.946-6.099-4.833-10.486-4.783l-0.086-0.088c1.94-0.876,4.103-1.302,6.229-1.275c-2.567-1.131-5.543-1.428-8.139-0.804
			c-0.515-0.708-1.185-1.274-1.97-1.614c4.28-0.103,8.435,0.712,11.446,2.184c-2.396-2.965-7.635-4.879-12.914-4.844
			c-0.404-0.412-0.891-0.794-1.439-1.139l4.938-4.008l4.643,0.834l6.637-5.375l0.787-0.64l1.735-1.402l-4.666-0.838
			c0.722-0.867-0.345-2.168-1.34-1.62l0.149-4.771l-1.733,1.406l-0.306,4.87l-0.486-4.231l-6.631,5.375l-0.157,4.75l-5.69,4.607
			c-0.311-0.115-0.623-0.225-0.949-0.325c-0.903-0.738-2.131-1.432-3.584-2.029c2.367-0.33,4.627-0.313,6.49,0.05
			c-2.242-1.603-6.349-2.058-10.291-1.268c-1.307-0.319-2.697-0.565-4.136-0.719c-1.744-0.184-3.384-0.221-4.866-0.127l4.01-5.723
			l4.686-0.48l4.898-6.996l0.582-0.833l1.283-1.829l-4.716,0.48c0.456-1.028-0.927-1.989-1.741-1.183l-1.164-4.631l-1.281,1.827
			l1.052,4.77l-1.638-3.939l-4.896,6.999l1.165,4.609l-4.972,7.097c-3.465-0.779-6.957-1.264-10.594-1.562
			c6.36-1.408,14.465-4.465,8.53-10.402c-13.096-13.091-3.229-25.643-3.229-25.643s-13.226,9.312-2.539,25.09
			c4.826,7.136-15.666,5.436-15.666,5.436c-0.965-0.26-1.979-0.419-3.021-0.462c-0.103-0.194-0.303-0.326-0.542-0.326
			c-0.233,0-0.439,0.131-0.536,0.326c-1.063,0.04-2.093,0.202-3.08,0.464c-0.083,0.005-0.438,0.036-0.988,0.066l-0.333-4.808
			l3.518-3.495l-0.622-8.899l-3.58,2.629l3.504-3.684l-0.164-2.328l-3.537,3.519c-0.288-1.153-2.046-1.04-2.195,0.125l-3.958-2.965
			l0.163,2.328l0.071,1.056l0.619,8.899l3.938,2.945l0.334,4.769c-5.57,0.131-16.012-0.284-12.418-5.595
			c10.684-15.779-2.542-25.09-2.542-25.09s9.865,12.552-3.226,25.642c-5.941,5.94,2.182,8.997,8.538,10.407
			c-3.545,0.287-6.958,0.757-10.337,1.504l-1.309-1.938l1.236-4.547l-4.78-7.079l-0.564-0.844l-1.251-1.85l-1.242,4.577
			c-0.801-0.792-2.192,0.156-1.729,1.194l-4.743-0.57l1.248,1.855l4.831,0.729l-4.26,0.114l4.775,7.08l4.716,0.565l0.427,0.631
			c-1.561-0.124-3.32-0.102-5.191,0.102c-1.434,0.155-2.827,0.397-4.137,0.716c-1.313-0.262-2.644-0.391-3.922-0.378l-1.762-5.113
			l2.367-4.071l-2.779-8.077l-0.328-0.958l-0.732-2.112l-2.38,4.099c-0.571-0.97-2.156-0.416-1.981,0.709l-4.431-1.777l0.729,2.112
			l4.474,1.95l-4.144-0.991l2.782,8.076l4.407,1.766l1.57,4.552c-1.652,0.237-3.114,0.735-4.159,1.484
			c1.356-0.265,2.919-0.343,4.581-0.243l0.323,0.932c-0.771,0.406-1.444,0.84-1.998,1.292c-1.872,0.583-3.467,1.446-4.509,2.511
			c-0.192,0-0.384,0-0.574,0.003l-1.783-2.732l1.314-4.522l-4.657-7.164l-0.549-0.849l-1.217-1.874l-1.321,4.553
			c-0.787-0.807-2.19,0.117-1.747,1.165l-4.732-0.649l1.212,1.871l4.815,0.811l-4.257,0.04l4.652,7.162l4.707,0.647l1.119,1.728
			c-4.165,0.548-7.958,2.262-9.896,4.657c3.014-1.471,7.167-2.286,11.452-2.183c-0.786,0.34-1.463,0.902-1.977,1.613
			c-2.593-0.624-5.568-0.331-8.141,0.805c2.125-0.026,4.297,0.396,6.233,1.274l-0.08,0.089c-4.395-0.054-8.401,1.834-10.484,4.782
			c2.167-0.979,4.779-1.534,7.566-1.552c-0.036,0.073-0.065,0.14-0.093,0.216c-2.787,0.221-5.157,1.284-6.616,2.778l-5.722-1.009
			l-2.729-4.578l-9.522-1.678l-1.136-0.2L30.12,62.51l2.751,4.609c-1.277,0.031-1.597,1.908-0.388,2.35l-4.196,3.415l2.491,0.442
			l4.386-3.362l-3.258,3.56l9.524,1.677l4.172-3.398l7.167,1.267c-0.458,0.688-0.831,1.393-1.096,2.104
			c-1.733,0.966-3.032,2.39-3.636,4.038c1.565-1.176,3.652-2.038,6.018-2.397c-2.916,2.599-4.837,5.816-4.808,8.324
			c0.946-1.831,2.565-3.797,4.625-5.605c-1.908,3.931-2.759,7.959-2.328,11.165c0.88-2.742,2.27-5.668,4.095-8.517
			c-1.334,4.129-1.107,8.597,0.596,10.71c-0.571-3.004-0.01-7.347,1.652-11.366c0.005-0.019,0.051-0.035,0.122-0.051
			c-0.914,3.296-0.671,6.941,0.493,10.225c-0.115,0.46-0.242,0.933-0.381,1.427c-0.204,0.687-0.434,1.41-0.695,2.174
			c-0.815,2.404-0.918,5-0.537,7.638l-3.483,0.797l-4.001-2.926l-8.689,2.008l3.151,3.126l-4.183-2.891l-2.272,0.525l4.026,2.946
			c-1.095,0.466-0.706,2.178,0.472,2.146l-2.312,4.373l2.275-0.524l1.027-0.239l8.69-2.005l2.295-4.352l3.428-0.791
			c1.717,7.154,6.53,14.303,9.926,18.466v0.006c1.017,1.246,1.905,2.229,2.545,2.862c-0.85,8.207,10.267,10.232,15.501,6.369
			c5.065,1.181,9.392-2.328,4.752-6.875c0.311-0.918,0.182-1.707-0.227-2.358v-0.004c-1.331-2.144-5.685-2.892-7.73-2.218
			c-1.764-0.803-6.926-17.412-3.787-28.257l-0.006-0.003c0.562-1.946,1.389-3.706,2.553-5.161c2.116-2.632,6.563-3.336,8.358-0.57
			c0.37,0.567,0.725,1.138,1.067,1.705l0.146,0.267c0.18,2.015,1.372,3.759,1.372,3.759c0.321,0.485,1.066,1.559,1.792,2.406
			c0.096,0.213,0.186,0.431,0.272,0.638l0.051,0.122c2.849,7.056,3.222,13.182,2.736,18.633l-1.454-1.024l-0.48-4.68l-6.998-4.9
			l-0.833-0.58l-1.833-1.28l0.485,4.711c-1.033-0.448-1.987,0.934-1.19,1.739l-4.629,1.169l1.826,1.281l4.773-1.046l-3.934,1.625
			l6.999,4.9l4.602-1.16l2.392,1.674c-0.237,1.769-0.544,3.472-0.863,5.108c-0.073,0.387-0.146,0.771-0.224,1.142v0.01
			c-1.616,8.139-3.283,15.475,4.315,21.856c-1.695,0.399-16.368,2.131-12.82,6.435c1.796,2.182,8.764,1.065,10.597,0.358
			c4.698-1.801,3.396-2.174,9.456-3.248c1.992-0.582,3.12-2.452,1.127-4c-10.825-8.416-0.786-20.346,9.52-20.373
			c10.306,0.025,20.351,11.953,9.522,20.373c-1.994,1.548-0.864,3.416,1.119,4c6.061,1.072,4.765,1.449,9.461,3.248
			c1.832,0.707,8.8,1.822,10.596-0.358c3.557-4.304-11.121-6.033-12.82-6.435c7.596-6.383,5.934-13.719,4.32-21.866h-0.004
			c-0.078-0.375-0.157-0.759-0.23-1.142c-1.412-7.296-2.652-15.812,1.705-26.425c0.064-0.097,0.115-0.219,0.176-0.344
			c0.092-0.216,0.195-0.476,0.34-0.771c0.5-0.626,0.931-1.22,1.287-1.794l-0.01-0.015c0.691-1.125,1.117-2.185,1.297-3.239
			l0.334-0.635c0.367-0.614,0.752-1.226,1.152-1.848c1.791-2.768,6.243-2.063,8.355,0.573c1.162,1.45,1.992,3.209,2.553,5.152
			l0.01,0.012c3.143,10.85-2.021,27.455-3.783,28.259c-2.045-0.68-6.396,0.074-7.731,2.219l0,0c-0.404,0.656-0.53,1.439-0.209,2.354
			c-4.647,4.549-0.329,8.062,4.739,6.879c5.234,3.862,16.349,1.838,15.5-6.371c0.645-0.635,1.533-1.612,2.547-2.86h-0.006
			c3.595-4.415,8.776-12.167,10.196-19.738l2.563-1.306l4.363,1.778l10.502-5.354l-4.389-1.788c0.885-0.696,0.112-2.188-0.972-1.861
			l1.136-4.639l-1.99,1.012l-1.303,4.704l0.396-4.239l-7.604,3.875l-1.143,4.614l-1.229,0.625c0.137-2.067-0.07-4.089-0.71-5.986
			c-0.258-0.771-0.497-1.5-0.698-2.18l-0.012-0.012c-0.145-0.491-0.273-0.964-0.386-1.418c1.164-3.287,1.401-6.932,0.497-10.232
			c0.072,0.024,0.109,0.033,0.119,0.053c1.656,4.019,2.22,8.361,1.648,11.37c1.694-2.117,1.93-6.584,0.602-10.718
			c1.822,2.853,3.209,5.779,4.088,8.523c0.43-3.206-0.418-7.238-2.329-11.166c2.058,1.806,3.688,3.774,4.631,5.599
			c0.024-2.499-1.894-5.721-4.813-8.322c2.369,0.366,4.455,1.229,6.021,2.398c-0.602-1.645-1.898-3.068-3.635-4.035
			c-0.068-0.184-0.146-0.373-0.229-0.558l4.187,0.589l2.55,3.954l8.453,1.192l1.016,0.141l2.209,0.311l-2.569-3.98
			C199.979,76.738,200.211,75.071,199.129,74.717z M55.189,70.342c-0.216,0.187-0.417,0.375-0.616,0.571l-0.914-0.162
			C54.147,70.593,54.661,70.457,55.189,70.342z M32.88,68.733c-0.271-0.048-0.373-0.221-0.332-0.471
			c0.045-0.248,0.2-0.374,0.469-0.327l18.102,3.192c-0.17,0.241-0.325,0.483-0.45,0.742L32.88,68.733z M50.979,71.922
			c0.372-0.218,0.775-0.419,1.2-0.61l1.725,0.302c-0.214,0.238-0.412,0.478-0.6,0.72L50.979,71.922z M55.488,73.956
			c-0.804,0.098-1.568,0.276-2.287,0.534c0.407-0.386,0.84-0.761,1.293-1.123l1.066,0.188C55.533,73.69,55.509,73.819,55.488,73.956
			z M55.761,72.765l-0.365-0.064c0.168-0.113,0.338-0.229,0.506-0.34C55.853,72.491,55.804,72.633,55.761,72.765z M74.974,54.445
			l0.021,0.047l-0.333,0.035L74.974,54.445z M74.588,53.321c-0.224,0.099-0.448,0.197-0.658,0.298l-0.188-0.549
			c0.262,0.024,0.524,0.052,0.783,0.085L74.588,53.321z M73.264,51.68L67.89,36.066c-0.08-0.231,0.011-0.384,0.219-0.456
			c0.214-0.071,0.375-0.007,0.457,0.223L74,51.625C73.751,51.639,73.504,51.656,73.264,51.68z M74.124,56.373l0.042,0.122
			c-1.573,0.326-3.025,0.848-4.218,1.515l-0.122-0.019c-0.909-0.143-1.825-0.222-2.741-0.245
			C69.044,56.967,71.514,56.479,74.124,56.373z M64.553,57.841L56.95,46.133c-0.133-0.203-0.084-0.374,0.104-0.496
			c0.19-0.121,0.365-0.099,0.495,0.105L65.36,57.78C65.093,57.792,64.822,57.815,64.553,57.841z M60.107,109.389
			c-0.618-1.505-1.134-3.032-1.499-4.557l4.357-1.004c0-0.259,0.013-0.517,0.031-0.775L42.002,107.9
			c-0.247,0.058-0.394-0.055-0.444-0.282c-0.051-0.226,0.034-0.387,0.281-0.447l21.205-4.894c0.021-0.263,0.045-0.526,0.076-0.786
			l-4.932,1.139c-0.342-2.403-0.237-4.752,0.495-6.911c0.245-0.716,0.461-1.402,0.654-2.072c1.059,2.152,2.541,4.05,4.364,5.474
			c-0.961-1.792-1.641-3.839-2.008-5.999l-0.006-0.005c-0.575-3.37-0.39-7.018,0.686-10.433c0.125,0.39,0.321,0.725,0.567,0.988
			c-0.707,3.034-0.356,6.391,0.937,9.438l0.065,0.133c0.791,1.867,1.882,3.503,3.353,5.001c-0.616-1.616-0.988-3.355-1.089-5.128
			l-0.011-0.003c-0.149-2.475,0.215-5.023,1.11-7.417c-0.145,2.46,0.362,5.029,1.496,7.414l0.121,0.243
			c0.564,1.184,1.183,2.092,2.057,3.148c-0.301-1.099-0.488-2.23-0.54-3.385h-0.014c-0.117-2.284,0.256-4.61,1.121-6.799
			c-0.018,0.16-0.034,0.312-0.044,0.479c-0.168,2.179,0.086,4.392,0.649,6.314c0,0,0.953,3.46,3.188,5.084
			c-0.738-1.348-1.665-5.081-1.665-5.081c-0.333-1.916-0.451-4.036-0.294-6.154l0.13,0.045c0.124,2.282,0.55,4.384,1.257,6.106
			l0.007,0.006c0.458,1.115,1.037,2.066,1.717,2.804c-0.506,3.453-0.482,7.261-0.113,10.898c-1.209,1.645-3.938,3.271-7.345,3.941
			C64.838,111.58,61.881,110.53,60.107,109.389z M76.95,93.112l0.007,0.012c0.014,0.054,0.027,0.109,0.048,0.159
			c-0.203,0.82-0.372,1.659-0.498,2.531c-0.224-0.833-0.4-1.732-0.521-2.692H75.98c-0.209-1.643-0.261-3.443-0.165-5.335
			c0.496,0.154,0.984,0.309,1.472,0.455C76.751,90.048,76.612,91.772,76.95,93.112z M67.091,112.213
			c0.689-0.046,1.409-0.133,2.167-0.283c1.984-0.391,3.808-1.092,5.282-1.985l0.052,0.469c0.465,4.218,1.389,8.258,2.714,11.379
			c-0.818,0.488-1.864,0.896-2.956,1.156C72.354,120.707,69.362,116.653,67.091,112.213z M79.95,120.604
			c0.759,1.355,1.546,2.14,2.287,2.121c1.07-0.438,2.645-0.459,4.091,0.021c0.662,0.221,1.208,0.52,1.621,0.848v0.008
			c0.876,0.707,1.169,1.586,0.639,2.313c-0.082,0.104-0.175,0.209-0.285,0.301c2.217,1.613,2.966,3.689,1.64,4.822
			c-1.008,0.862-2.962,0.948-4.958,0.34c-2.208,1.942-5.913,2.711-8.928,1.701c-2.504-0.84-5.646-2.963-4.855-7.111
			c-0.355-0.295-0.846-0.788-1.444-1.45c1.08,0.237,2.324,0.037,3.845-0.205c0.897-0.144,1.821-0.392,2.672-0.713v-0.004
			C78.061,122.918,79.553,121.871,79.95,120.604z M79.99,54.668c-0.179-0.031-0.361-0.062-0.546-0.086
			c-1.225-0.179-2.483-0.219-3.715-0.148l-0.055-0.165c0.716-0.168,1.453-0.33,2.212-0.467c0.804,0.209,1.601,0.456,2.389,0.744
			L79.99,54.668z M83.048,53.461c-0.189-0.093-0.378-0.186-0.585-0.274c0.575-0.052,1.136-0.086,1.682-0.114
			C83.783,53.196,83.408,53.325,83.048,53.461z M88.928,51.258L81.71,40.56c-0.134-0.201-0.094-0.371,0.096-0.498
			c0.182-0.122,0.361-0.103,0.498,0.098l7.584,11.24C89.577,51.343,89.255,51.293,88.928,51.258z M140.045,73.152
			c-0.486-0.794-0.746-1.633-0.799-2.572c0.681-0.912,0.969-1.824,0.814-3.019c-0.008-0.092-0.023-0.178-0.037-0.258l0.054-0.04
			C142.402,68.515,142.38,71.708,140.045,73.152z M138.318,70.817c0.091,1.136,0.459,2.153,1.135,3.122
			c0.021,0.174-0.021,0.369-0.073,0.535c-0.129,0.434-0.394,0.872-0.753,1.327c-0.046-0.077-0.093-0.156-0.146-0.246
			C137.585,73.982,137.343,72.364,138.318,70.817z M136.771,68.151c-0.896-1.446-0.438-2.575-0.133-3.074
			c0.385,0.053,0.707,0.083,0.948,0.098c0.177,0.869,0.746,1.772,1.496,2.224c0.165,0.843,0.062,1.605-0.394,2.366l-0.047,0.091
			C138.121,69.515,137.2,68.848,136.771,68.151z M137.574,61.137c0.023-0.088,0.037-0.174,0.064-0.27
			c2.112,0.875,3.678,4.243,1.867,5.7c-0.512-0.451-0.916-0.901-1.023-1.683c0.69-0.897-0.148-2.54-1.094-3.336
			C137.465,61.413,137.525,61.267,137.574,61.137z M137.706,64.313c-2.479-0.106-5.106-0.97-5.642-3.431
			c-0.039-0.149-0.061-0.281-0.07-0.398c0.25-0.015,0.502-0.034,0.762-0.074c0.364-0.053,0.659-0.127,0.866-0.192
			c0.664,0.782,1.968,1.968,2.963,1.848C137.207,62.465,138.021,63.674,137.706,64.313z M126.273,53.148
			c-0.149-0.343-0.271-0.675-0.385-1h2.358c1.388,0.392,2.356,0.99,3.108,2.169c0.529,0.946,0.961,1.966,1.203,3.002
			c0.162,0.729,0.443,1.621,0.615,2.111c-0.154,0.039-0.342,0.085-0.57,0.117c-3.594,0.529-5.897-1.901-6.996-4.836
			c-0.338-0.902-0.512-1.725-0.657-2.563h0.331c0.136,0.502,0.306,1.009,0.533,1.551c0.981,2.282,2.635,4.095,4.924,4.422
			C128.734,57.264,127.24,55.395,126.273,53.148z M127.038,50.794c0-0.338,0.276-0.611,0.612-0.611s0.604,0.272,0.604,0.611
			c0,0.334-0.273,0.604-0.604,0.604C127.314,51.398,127.038,51.128,127.038,50.794z M136.059,57.377
			c0.397,0.688,1.068,2.976,0.483,3.769l-0.062,0.05c-0.787-0.047-1.963-1.246-2.319-1.769c-0.531-1.534-0.835-3.101-1.491-4.6
			C133.871,54.961,135.175,55.844,136.059,57.377z M130.813,45.483c2.27-0.235,4.67-0.709,6.213-1.758
			c1.923-1.304,2.326-3.384,0.77-5.693c-4.314-6.377-4.48-11.505-3.346-15.279c-0.506,4.979,0.811,11.239,7.084,17.508
			c5.992,6.002-8.385,8.485-13.004,9.071c-1.063-1.465-2.428-2.707-3.979-3.635C126.382,45.733,128.663,45.708,130.813,45.483z
			 M124.247,50.223c0.343,0,0.608,0.273,0.608,0.611c0,0.335-0.266,0.606-0.608,0.606c-0.327,0-0.604-0.273-0.604-0.606
			C123.643,50.496,123.914,50.223,124.247,50.223z M120.852,50.267c0.336,0,0.61,0.27,0.61,0.608c0,0.336-0.276,0.607-0.61,0.607
			c-0.34,0-0.614-0.273-0.614-0.607C120.237,50.536,120.512,50.267,120.852,50.267z M117.459,45.163
			c0.334,0,0.607,0.272,0.607,0.608s-0.273,0.605-0.607,0.605c-0.335,0-0.609-0.269-0.609-0.605
			C116.851,45.435,117.124,45.165,117.459,45.163z M117.459,47.732c0.334,0,0.607,0.27,0.607,0.608c0,0.336-0.273,0.609-0.607,0.609
			c-0.335,0-0.609-0.273-0.609-0.609C116.851,48.002,117.124,47.732,117.459,47.732z M117.459,50.299
			c0.334,0,0.607,0.274,0.607,0.61c0,0.334-0.273,0.605-0.607,0.605c-0.335,0-0.609-0.269-0.609-0.605
			S117.124,50.299,117.459,50.299z M117.459,52.871c0.334,0,0.607,0.27,0.607,0.604c0,0.337-0.273,0.609-0.607,0.609
			c-0.335,0-0.609-0.271-0.609-0.609C116.851,53.141,117.124,52.872,117.459,52.871z M117.459,55.438
			c0.334,0,0.607,0.273,0.607,0.609c0,0.335-0.273,0.609-0.607,0.609c-0.335,0-0.609-0.274-0.609-0.609
			C116.851,55.712,117.124,55.438,117.459,55.438z M114.055,50.349c0.341,0,0.615,0.271,0.615,0.608
			c0,0.336-0.274,0.608-0.615,0.608c-0.333,0-0.607-0.272-0.607-0.608C113.448,50.624,113.721,50.349,114.055,50.349z
			 M115.932,52.118v3.805c0,0.915,0.688,1.658,1.538,1.658c0.851,0,1.539-0.743,1.539-1.658v-3.805h4.88
			c0.047,0.272,0.113,0.587,0.204,1.038c0.699,3.246,2.712,6.496,5.884,7.295c0.02,0.132,0.039,0.265,0.059,0.39
			c0.007,0.026,0.007,0.055,0.007,0.083c-2.556,0.77-4.5,2.22-5.256,3.987c0.782-0.886,1.899-1.642,3.243-2.188
			c0.006,2.704,0.092,11.05,0.092,11.05l-0.688,0.508c-0.021-0.349-0.031-0.714-0.031-1.095c0-0.619,0.479-5.611-2.582-7.53
			c-2.551-1.48-5.337-0.979-7.405-0.414c-2.065-0.565-4.855-1.065-7.399,0.414c-3.061,1.916-2.588,6.911-2.588,7.53
			c0,0.377-0.005,0.738-0.021,1.083l-0.682-0.497c0,0,0.086-8.346,0.097-11.05c1.341,0.548,2.46,1.302,3.244,2.188
			c-0.761-1.765-2.708-3.217-5.26-3.987c0-0.027,0-0.057,0.005-0.083c0.021-0.136,0.044-0.273,0.071-0.419
			c3.099-0.851,5.068-4.059,5.761-7.265c0.091-0.451,0.157-0.767,0.208-1.038H115.932L115.932,52.118L115.932,52.118z
			 M108.905,52.125c-0.118,0.334-0.241,0.672-0.392,1.025c-0.964,2.245-2.463,4.117-4.464,4.974
			c2.283-0.328,3.934-2.143,4.918-4.425c0.233-0.549,0.401-1.064,0.546-1.574l0,0h0.347c-0.152,0.838-0.324,1.66-0.663,2.564
			c-1.097,2.936-3.399,5.362-6.995,4.836c-0.228-0.032-0.418-0.077-0.568-0.114c0.161-0.492,0.446-1.386,0.616-2.116
			c0.24-1.034,0.669-2.052,1.197-3.001c0.752-1.176,1.726-1.775,3.11-2.167h2.347L108.905,52.125L108.905,52.125z M106.645,51.042
			c0-0.335,0.279-0.607,0.615-0.607c0.334,0,0.609,0.272,0.609,0.607s-0.272,0.611-0.609,0.611
			C106.924,51.653,106.645,51.38,106.645,51.042z M110.203,27.558c-0.021-0.252,0.115-0.38,0.345-0.396
			c0.233-0.018,0.381,0.092,0.401,0.347l1.176,16.821l-0.747,0.032L110.203,27.558z M110.663,50.394c0.328,0,0.599,0.271,0.599,0.61
			c0,0.336-0.271,0.608-0.599,0.608c-0.342,0-0.614-0.271-0.614-0.608C110.052,50.665,110.321,50.394,110.663,50.394z M93.38,40.261
			c6.274-6.269,7.587-12.529,7.084-17.508c1.132,3.776,0.971,8.905-3.345,15.279c-1.563,2.309-1.156,4.389,0.763,5.693
			c1.539,1.049,3.956,1.521,6.216,1.758c2.15,0.22,4.427,0.249,6.265,0.213c-1.552,0.929-2.914,2.17-3.979,3.635
			C101.769,48.746,87.384,46.264,93.38,40.261z M98.748,57.352c0.889-1.529,2.186-2.417,3.396-2.55
			c-0.661,1.5-0.964,3.066-1.498,4.602c-0.354,0.515-1.529,1.72-2.315,1.767l-0.066-0.047
			C97.677,60.329,98.354,58.039,98.748,57.352z M98.22,62.043c1,0.115,2.302-1.068,2.967-1.852c0.21,0.065,0.499,0.137,0.866,0.192
			c0.258,0.039,0.512,0.066,0.761,0.076c-0.011,0.113-0.03,0.246-0.064,0.398c-0.441,2.003-2.268,2.951-4.266,3.287
			c-0.264,0.042-0.53,0.077-0.798,0.1c-0.191,0.021-0.388,0.031-0.582,0.039c-0.113-0.23-0.082-0.537,0.04-0.85
			c0.089-0.237,0.23-0.481,0.392-0.702C97.747,62.443,97.997,62.188,98.22,62.043z M96.167,69.83l-0.055-0.094
			c-0.452-0.76-0.551-1.521-0.391-2.364c0.758-0.452,1.323-1.352,1.501-2.221c0.233-0.016,0.561-0.045,0.949-0.1
			c0.299,0.498,0.757,1.629-0.139,3.072C97.604,68.819,96.686,69.486,96.167,69.83z M96.325,75.533
			c-0.048,0.095-0.104,0.175-0.144,0.243c-0.361-0.453-0.631-0.896-0.755-1.327c-0.054-0.162-0.095-0.357-0.075-0.536
			c0.674-0.964,1.046-1.983,1.143-3.12C97.459,72.34,97.223,73.961,96.325,75.533z M95.951,61.67c0.171-0.17,0.356-0.323,0.55-0.458
			c0.218-0.146,0.439-0.273,0.667-0.366c0.019,0.089,0.04,0.181,0.067,0.268c0.042,0.132,0.098,0.273,0.18,0.409
			c-0.141,0.123-0.286,0.263-0.416,0.419c-0.169,0.187-0.321,0.399-0.448,0.619c-0.468,0.787-0.68,1.708-0.23,2.3
			c-0.103,0.776-0.509,1.229-1.025,1.686C93.862,65.387,94.547,63.032,95.951,61.67z M94.724,67.239l0.054,0.042
			c-0.014,0.08-0.025,0.166-0.038,0.256c-0.147,1.195,0.144,2.109,0.815,3.018c-0.049,0.941-0.302,1.778-0.795,2.571
			C92.425,71.685,92.404,68.493,94.724,67.239z M95.833,93.121c-2.05-3.751,0.429-7.233,0.429-7.233s-2.4,2.521-2.4,5.47
			c0,0.625,0.051,1.208,0.145,1.763c0.13,0.793,0.353,1.53,0.652,2.196c-0.762-0.739-1.357-1.47-1.826-2.196l-0.009-0.005
			c-3.525-5.52,0.866-10.312,2.038-11.899c0.118-0.171,0.224-0.33,0.307-0.477c-0.095,1.625-1.369,3.075-1.369,3.075
			s3.267-2.595,1.939-4.403c-0.261-0.364-0.87-1.204-1.42-1.965c-0.598-0.932-1.122-2.135-0.657-4.153
			c0.231,0.203,0.493,0.391,0.779,0.556c-0.016,0.519,0.208,1.583,1.79,3.103c2.033,1.954,2.996,3.207,3.329,4.191
			c1.063,3.117-2.972,4.995-3.229,8.671c-0.077,1.045,0.209,2.205,0.633,3.297l0.009,0.009c0.408,1.046,0.936,2.015,1.373,2.747
			c-0.066-0.03-0.133-0.052-0.197-0.087c-1.086-0.871-1.825-1.772-2.312-2.66H95.833L95.833,93.121z M84.925,108.464
			c-0.2-0.141-0.221-0.315-0.085-0.498c0.124-0.184,0.296-0.228,0.498-0.095l12.896,9.036c-0.031,0.265-0.058,0.529-0.1,0.807
			L84.925,108.464z M95.221,133.604c1.931,1.535,4.546,1.871,6.818,1.068c-0.235,1.021-0.313,2.07-0.198,3.133
			c-2.204,0.039-4.776-0.926-6.536-2.604C95.253,134.674,95.224,134.141,95.221,133.604z M98.185,142.195
			c-1.242-1.502-2.018-3.062-2.463-4.687c2.124,1.546,4.417,1.898,6.375,1.664c0.074,0.287,0.167,0.563,0.273,0.851
			C100.825,141.336,99.121,141.98,98.185,142.195z M104.747,143.857c-0.441,0.539-2.005,1.176-3.962,0.879
			c-0.485-0.396-0.94-0.787-1.352-1.191c0.131-0.035,0.279-0.084,0.431-0.143c1.533-0.719,2.2-1.238,3.099-2.055
			C103.413,142.188,104.007,143.031,104.747,143.857z M105.389,108.5h-7.324c-0.155-2.474-0.549-5.087-1.293-7.835h8.617V108.5z
			 M107.896,108.5v-7.835h8.862c-1.859,0.336-3.273,1.959-3.273,3.923c0,1.945,1.388,3.561,3.226,3.918h-8.814L107.896,108.5
			L107.896,108.5z M111.428,77.2l0.081-0.13c1.084-1.855,1.415-4.406,1.396-6.381c-0.011-1.412,1.046-1.327,1.354-1.327h6.313
			c0.306,0,1.367-0.085,1.352,1.327c-0.02,1.975,0.309,4.523,1.396,6.381l0.089,0.139l-1.89,1.376h-8.185L111.428,77.2z
			 M116.256,107.53c0-0.335,0.108-0.552,0.203-0.522c0.097,0.036,0.14,0.309,0.14,0.643c0,0.031,0.008,0.11-0.108,0.063
			C116.261,107.624,116.256,107.551,116.256,107.53z M117.178,108.048c-0.452,0-0.452-0.115-0.452-0.137
			c0-0.449,0.142-0.812,0.325-0.812c0.185,0,0.333,0.404,0.333,0.851C117.384,107.999,117.354,108.048,117.178,108.048z
			 M117.044,106.783c-0.127,0-0.224,0.058-0.304,0.131c-0.12-0.231-0.335-0.293-0.51-0.159c-0.009-0.094,0.009-0.189,0.02-0.296
			c-1.118,0.044-1.649,0.206-1.351-1.375c-0.014-0.348-0.414-0.646-0.247-1.582c0.325-1.767,0.954-2.092,2.833-2.092
			c1.885,0,2.516,0.326,2.833,2.092c0.167,0.936-0.231,1.234-0.237,1.582c0.291,1.577-0.241,1.419-1.356,1.375
			c0.011,0.107,0.028,0.203,0.017,0.296c-0.168-0.134-0.387-0.072-0.508,0.159c-0.08-0.073-0.174-0.131-0.299-0.131
			c-0.218,0-0.359,0.153-0.45,0.351C117.397,106.936,117.257,106.783,117.044,106.783z M118.742,107.53
			c0,0.021-0.006,0.099-0.239,0.184c-0.114,0.043-0.112-0.034-0.112-0.063c0-0.334,0.052-0.612,0.144-0.643
			C118.633,106.975,118.742,107.195,118.742,107.53z M117.617,107.951c0-0.448,0.146-0.851,0.33-0.851
			c0.181,0,0.331,0.363,0.331,0.812c0,0.021-0.009,0.137-0.46,0.135C117.645,108.046,117.617,107.997,117.617,107.951z
			 M127.066,108.5h-8.836c1.84-0.352,3.229-1.971,3.229-3.914c0-1.962-1.409-3.586-3.275-3.922h8.88v7.836H127.066z M127.081,78.896
			c-2.97-1.534-3.069-5.773-3.072-5.773l-0.005,0.055c-0.02,1.717,0.18,3.012,0.415,3.939c-0.116-0.156-0.231-0.323-0.331-0.5
			c-0.971-1.657-1.406-4.054-1.406-5.927c0-1.652-0.396-2.161-1.979-2.161h-6.466c-1.583,0-1.981,0.508-1.981,2.161
			c0,1.873-0.433,4.27-1.404,5.927c-0.105,0.178-0.219,0.343-0.339,0.5c0.24-0.927,0.435-2.219,0.418-3.939v-0.055
			c-0.005,0-0.11,4.24-3.077,5.773c0,0-0.857,0.443-1.82,0.576c0.921-0.673,1.486-1.489,1.833-2.402
			c0.274-0.682,0.681-2.111,0.673-4.591c-0.003-1.641,1.245-3.885,1.245-3.885s-0.937,1.037-1.419,2.31
			c0.039-1.703,0.374-3.298,2.146-4.43c1.797-1.047,3.342-1.115,4.514-0.93c0.599,0.093,2.053,0.661,2.441,0.67
			c0.383-0.009,1.84-0.577,2.437-0.67c1.172-0.185,2.719-0.118,4.515,0.93c1.771,1.13,2.107,2.727,2.15,4.43
			c-0.489-1.278-1.426-2.31-1.426-2.31s1.24,2.244,1.24,3.885c-0.002,2.48,0.405,3.91,0.678,4.591c0.34,0.914,0.92,1.729,1.83,2.402
			C127.938,79.339,127.081,78.896,127.081,78.896z M134.16,144.732c-1.954,0.301-3.52-0.338-3.965-0.879
			c0.746-0.822,1.332-1.666,1.779-2.506c0.908,0.815,1.58,1.336,3.108,2.055c0.149,0.059,0.296,0.106,0.429,0.143
			C135.104,143.947,134.646,144.342,134.16,144.732z M136.766,142.195c-0.938-0.215-2.643-0.859-4.188-2.172
			c0.104-0.285,0.189-0.563,0.264-0.851c1.963,0.234,4.258-0.116,6.383-1.664C138.782,139.135,137.994,140.695,136.766,142.195z
			 M139.721,133.604c-0.005,0.537-0.025,1.068-0.076,1.595c-1.761,1.68-4.328,2.646-6.541,2.604
			c0.117-1.061,0.041-2.111-0.199-3.131C135.175,135.477,137.798,135.139,139.721,133.604z M136.88,108.5h-7.301v-7.835h8.598
			C137.436,103.413,137.035,106.021,136.88,108.5z M141.971,93.112l-0.229,0.378c-0.55,0.848-0.937,1.213-1.593,1.854
			c0.3-0.676,0.521-1.42,0.653-2.22v-0.008c0.093-0.546,0.14-1.124,0.14-1.737c0-2.946-2.396-5.467-2.396-5.467
			s2.473,3.479,0.436,7.209v0.009c-0.484,0.893-1.23,1.802-2.321,2.684c-0.063,0.019-0.134,0.053-0.191,0.074
			c0.438-0.733,0.769-1.349,1.177-2.395l0.189-0.384c0.404-1.08,0.699-2.235,0.619-3.269c-0.26-3.675-4.291-5.552-3.229-8.671
			c0.332-0.989,1.291-2.235,3.33-4.192c1.58-1.518,1.805-2.582,1.784-3.103c0.297-0.168,0.556-0.354,0.786-0.558
			c0.464,2.02-0.063,3.222-0.656,4.158c-0.55,0.759-1.156,1.594-1.43,1.958c-1.318,1.808,1.943,4.406,1.943,4.406
			s-1.269-1.451-1.369-3.079c0.089,0.153,0.188,0.316,0.316,0.478C141.093,82.823,145.464,87.604,141.971,93.112z M146.346,51.219
			c-0.332,0.038-0.654,0.075-0.97,0.125l11.339-16.188c0.141-0.198,0.316-0.212,0.495-0.083c0.185,0.125,0.233,0.294,0.091,0.496
			L146.346,51.219z M151.896,53.461c-0.364-0.134-0.729-0.265-1.1-0.389c0.553,0.028,1.112,0.063,1.686,0.114
			C152.277,53.275,152.09,53.368,151.896,53.461z M167.863,57.746c-0.918,0.02-1.842,0.101-2.745,0.243l-0.13,0.02l1.068-0.861
			C166.691,57.324,167.303,57.523,167.863,57.746z M179.721,44.238c0.186-0.151,0.359-0.121,0.5,0.052
			c0.141,0.175,0.141,0.351-0.055,0.504L166.061,56.22c-0.226-0.125-0.469-0.238-0.709-0.35L179.721,44.238z M164.275,56.749
			c0.303,0.054,0.61,0.118,0.906,0.182l-0.893,0.724c-0.229-0.119-0.482-0.224-0.729-0.328L164.275,56.749z M155.503,54.582
			c-0.185,0.028-0.37,0.057-0.547,0.089l-0.283-0.122c0.778-0.29,1.581-0.535,2.384-0.746c1.129,0.21,2.207,0.453,3.232,0.726
			C158.717,54.349,157.08,54.355,155.503,54.582z M163.326,56.595l-0.551,0.443c-0.861-0.293-1.799-0.526-2.756-0.688
			C161.152,56.363,162.264,56.447,163.326,56.595z M158.959,93.115c-0.131,0.963-0.299,1.86-0.52,2.698
			c-0.133-0.872-0.295-1.713-0.496-2.53c0.015-0.051,0.029-0.105,0.043-0.168h-0.019c0.335-1.331,0.201-3.042-0.323-4.834
			c0.485-0.14,0.975-0.295,1.461-0.449c0.104,1.869,0.039,3.648-0.164,5.277L158.959,93.115z M163.748,125.967
			c0.787,4.15-2.355,6.273-4.861,7.115c-3.016,1.006-6.722,0.238-8.921-1.703c-2.003,0.607-3.946,0.521-4.96-0.34
			c-1.328-1.135-0.586-3.209,1.641-4.822c-0.105-0.1-0.201-0.191-0.285-0.303c-0.526-0.725-0.237-1.602,0.636-2.311
			c0.411-0.334,0.96-0.631,1.618-0.851c1.449-0.481,3.021-0.461,4.094-0.021c0.734,0.018,1.523-0.771,2.283-2.123
			c0.394,1.27,1.89,2.313,3.678,2.992h0.002c0.854,0.325,1.775,0.565,2.676,0.711c1.52,0.239,2.766,0.444,3.844,0.203
			C164.596,125.178,164.096,125.672,163.748,125.967z M160.591,122.949c-1.089-0.26-2.131-0.666-2.954-1.156
			c1.331-3.119,2.252-7.161,2.717-11.379l0.051-0.469c1.48,0.893,3.302,1.594,5.283,1.985c0.756,0.15,1.481,0.237,2.164,0.283
			C165.587,116.653,162.593,120.707,160.591,122.949z M176.843,101.995l-3.508,1.784c-0.03,0.293-0.065,0.575-0.114,0.863
			l16.854-8.585c0.222-0.112,0.383-0.044,0.486,0.156c0.098,0.195,0.061,0.37-0.158,0.482l-17.344,8.836
			c-0.059,0.307-0.131,0.607-0.221,0.915l3.553-1.809c-0.371,1.585-0.912,3.183-1.549,4.752c-1.773,1.147-4.736,2.196-8.925,1.373
			c-3.411-0.668-6.146-2.298-7.349-3.942c0.373-3.633,0.398-7.445-0.108-10.896c1.575-1.742,2.017-3.697,2.017-3.697
			c0.701-1.71,0.81-2.899,0.937-5.162l0.144-0.054c0.146,2.109,0.025,4.208-0.313,6.102l0.014,0.012
			c-0.336,1.966-0.907,3.723-1.644,5.074c1.365-0.896,2.49-2.78,3.175-5.077l-0.015-0.015c0.567-1.916,0.822-4.129,0.646-6.308
			c-0.008-0.16-0.021-0.308-0.027-0.463c0.846,2.181,1.219,4.5,1.103,6.777l0.017,0.003c-0.055,1.149-0.234,2.287-0.548,3.39
			c0.884-1.058,1.603-2.198,2.177-3.384l-0.018-0.005c1.134-2.386,1.641-4.954,1.495-7.418c0.897,2.392,1.261,4.94,1.114,7.415
			l0.016,0.012c-0.109,1.769-0.479,3.507-1.096,5.123c1.479-1.498,2.613-3.257,3.408-5.126h-0.014
			c1.299-3.056,1.641-6.414,0.934-9.445c0.246-0.263,0.441-0.601,0.572-0.987c1.075,3.412,1.264,7.063,0.688,10.427l0.016,0.011
			c-0.367,2.16-1.051,4.207-2.005,6c1.817-1.424,3.298-3.327,4.36-5.471c0.193,0.667,0.408,1.357,0.647,2.071
			C176.936,97.687,177.077,99.812,176.843,101.995z M179.343,73.373c-0.058-0.258-0.124-0.507-0.21-0.757l0.368,0.055
			c0.412,0.287,0.806,0.585,1.187,0.889L179.343,73.373z M181.459,74.389l0.21,0.034l0.067,0.067
			C181.646,74.454,181.555,74.42,181.459,74.389z M182.643,73.834c-0.152-0.268-0.313-0.53-0.492-0.79l16.675,2.341
			c0.237,0.033,0.329,0.184,0.303,0.402c-0.028,0.223-0.163,0.341-0.403,0.304L182.643,73.834z"/>
	</g>
	<g display="inline">
		<path fill="#F7931E" stroke="#828282" stroke-miterlimit="10" d="M53.602,167.793c-0.965-0.318-0.549-0.197-1.615-0.566
			c-1.196-0.412-2.015,1.303-2.015,1.303s0.285-0.385,0.764-0.538c0.747-0.242,1-0.046,1.846,0.218
			c-0.136,0.002-0.285,0.016-0.451,0.036c-0.916,0.149-1.071,0.421-1.071,0.421l2.755,0.055c-0.042-0.046-0.128-0.179-0.321-0.297
			c0.969,0.068,1.339-0.686,1.339-0.686S54.336,168.034,53.602,167.793z"/>
		<path fill="#F7931E" stroke="#828282" stroke-miterlimit="10" d="M92.185,191.016c-1.721-5.058-1.198-6.935-0.627-11.824
			c0.359-3.08-0.445-5.344-6.046-9.094c-8.097-5.424-14.863-6.777-23.016-7.113c-0.232-0.348-0.485-0.676-0.764-0.982l0.889,0.096
			c2.749,0.026,4.273-1.712,4.925-3.397c-0.252-0.084-0.512-0.177-0.775-0.278c-0.887-0.342-1.736-0.754-2.27-1.072
			c1.359,0.323,2.661,0.461,3.855,0.502l0.069-0.178c0.46-1.195,0.797-2.344,0.888-3.525c-0.309,0.065-0.633,0.121-0.969,0.162
			c-0.442,0.055-0.882,0.074-1.278,0.082h-0.109c0.59-0.297,1.176-0.678,1.737-1.129c0.344-0.279,0.652-0.576,0.949-0.875
			l-1.269-4.172c-0.306,0.846-0.773,1.71-1.38,2.542c-0.38,0.522-1.374,1.54-1.374,1.54s0.94-1.523,1.199-2.371
			c0.394-1.298,0.728-2.539,0.773-3.697l-1.267-2.176c0.102,1.399-0.125,3.032-0.75,4.661c-0.921,2.398-2.337,4.152-3.934,4.979
			c0.467,1.814,0.341,4.085-0.519,6.324c-0.133,0.347-0.279,0.681-0.438,1.002c-1.346-1.063-3.026-1.721-4.858-1.795
			c-0.061-0.119-0.187-0.201-0.329-0.201c-0.145,0-0.268,0.082-0.33,0.199c-1.839,0.069-3.528,0.726-4.881,1.793
			c-0.157-0.321-0.303-0.656-0.435-1c-0.86-2.237-0.986-4.508-0.518-6.324c-1.599-0.825-3.014-2.58-3.934-4.979
			c-0.625-1.629-0.854-3.262-0.751-4.66l-1.265,2.176c0.045,1.156,0.377,2.398,0.774,3.697c0.257,0.846,1.196,2.37,1.196,2.37
			s-0.992-1.018-1.372-1.54c-0.608-0.83-1.075-1.695-1.381-2.542l-1.27,4.171c0.297,0.301,0.605,0.596,0.948,0.873
			c0.562,0.455,1.148,0.834,1.738,1.133h-0.108c-0.396-0.008-0.837-0.027-1.279-0.082c-0.334-0.043-0.66-0.099-0.968-0.162
			c0.091,1.182,0.429,2.33,0.887,3.524l0.07,0.179c1.194-0.043,2.497-0.18,3.856-0.502c-0.534,0.318-1.381,0.73-2.271,1.071
			c-0.265,0.103-0.524,0.194-0.775,0.278c0.654,1.688,2.177,3.425,4.926,3.398l0.88-0.096c-0.279,0.309-0.534,0.637-0.764,0.982
			c-8.156,0.336-14.921,1.689-23.017,7.113c-5.601,3.752-6.406,6.014-6.047,9.094c0.571,4.89,1.095,6.767-0.627,11.824
			c-2.397,7.041,5.237,16.754,7.554,19.049c-0.516,5.018,6.276,6.257,9.475,3.893c2.735,0.639,5.115-0.957,3.687-3.248l2.259-1.582
			c-0.921,4.653-1.592,8.859,2.801,12.555c-1.039,0.243-10.009,1.301-7.84,3.934c1.099,1.333,5.356,0.648,6.478,0.22
			c2.871-1.101,2.078-1.33,5.781-1.983c1.217-0.358,1.907-1.5,0.688-2.446c-6.615-5.144-0.481-12.435,5.818-12.455
			c6.299,0.019,12.44,7.31,5.822,12.455c-1.219,0.946-0.528,2.088,0.688,2.446c3.704,0.653,2.909,0.883,5.78,1.983
			c1.121,0.431,5.379,1.113,6.479-0.22c2.168-2.633-6.801-3.689-7.84-3.934c4.863-4.088,3.521-8.811,2.502-14.066
			c-0.084-0.432-0.167-0.872-0.245-1.319c1.089-0.722,2.08-1.585,2.941-2.573c0.103-0.115,0.203-0.236,0.303-0.356l-0.286-0.808
			l0.825,0.104c0.09-0.124,0.174-0.249,0.26-0.375c1.717-2.56,2.633-5.726,2.317-9.192c-0.069-0.729-0.195-1.469-0.38-2.213
			c0,0-0.065-0.304-0.182-0.734l-0.065,0.453c-0.094,0.584-0.262,1.328-0.57,2.226c-0.386,1.114-1.355,2.755-2.69,3.688
			c-0.968,0.68-1.905,0.912-2.805,0.836c0.312-2.209,0.976-4.584,2.182-7.156c0.657-0.858,1.072-1.646,1.271-2.42
			c0.301-0.521,0.625-1.051,0.974-1.588c1.096-1.689,3.814-1.261,5.109,0.353c4.676,5.832,0.516,19.844-0.753,20.423
			c-1.636-0.538-5.676,0.408-4.863,2.797c-2.839,2.778-0.197,4.926,2.903,4.201c3.2,2.364,9.992,1.125,9.476-3.893
			C86.947,207.77,94.583,198.057,92.185,191.016z M69.294,177.188c-0.298-0.485-0.455-0.998-0.486-1.57
			c0.416-0.557,0.591-1.115,0.5-1.846c-0.006-0.057-0.015-0.107-0.023-0.155l0.035-0.026
			C70.735,174.357,70.725,176.307,69.294,177.188z M68.24,175.764c0.057,0.694,0.282,1.315,0.697,1.905
			c0.011,0.108-0.015,0.229-0.045,0.332c-0.077,0.26-0.242,0.53-0.461,0.81c-0.027-0.043-0.06-0.095-0.09-0.15
			C67.792,177.697,67.646,176.707,68.24,175.764z M67.294,174.132c-0.545-0.883-0.267-1.571-0.081-1.878
			c0.235,0.031,0.437,0.051,0.579,0.059c0.107,0.533,0.455,1.086,0.915,1.359c0.1,0.518,0.04,0.98-0.234,1.446l-0.036,0.057
			C68.119,174.965,67.558,174.559,67.294,174.132z M67.781,169.846c0.018-0.054,0.031-0.107,0.042-0.164
			c1.297,0.533,2.249,2.594,1.145,3.485c-0.314-0.278-0.563-0.558-0.628-1.03c0.417-0.547-0.089-1.553-0.668-2.039
			C67.723,170.018,67.758,169.926,67.781,169.846z M67.863,171.786c-1.513-0.062-3.117-0.591-3.45-2.095
			c-0.02-0.094-0.033-0.176-0.04-0.246c0.152-0.006,0.308-0.021,0.467-0.043c0.224-0.032,0.402-0.079,0.527-0.119
			c0.409,0.479,1.203,1.201,1.81,1.129C67.562,170.66,68.057,171.396,67.863,171.786z M66.121,190.979l-0.743,0.521l-2.052,1.438
			v-2.223l1.753-1.229L66.121,190.979z M66.858,167.549c0.244,0.419,0.656,1.817,0.298,2.305l-0.041,0.028
			c-0.48-0.028-1.197-0.764-1.417-1.081c-0.324-0.938-0.51-1.896-0.912-2.813C65.524,166.068,66.318,166.611,66.858,167.549z
			 M61.717,163.15c0.205,0,0.373,0.166,0.373,0.369c0,0.207-0.167,0.373-0.373,0.373c-0.204,0-0.371-0.166-0.371-0.373
			C61.346,163.318,61.513,163.15,61.717,163.15z M60.271,164.352c0.083,0.308,0.188,0.617,0.328,0.947
			c0.6,1.396,1.612,2.504,3.008,2.704c-1.223-0.522-2.14-1.668-2.729-3.042c-0.091-0.209-0.167-0.41-0.234-0.611h1.441
			c0.846,0.239,1.442,0.607,1.9,1.327c0.322,0.577,0.588,1.202,0.734,1.834c0.102,0.446,0.275,0.991,0.376,1.292
			c-0.091,0.024-0.207,0.051-0.344,0.07c-2.198,0.322-3.607-1.161-4.279-2.955c-0.206-0.554-0.312-1.057-0.403-1.568h0.202V164.352z
			 M59.64,163.175c0.206,0,0.373,0.168,0.373,0.372c0,0.206-0.166,0.372-0.373,0.372c-0.205,0-0.371-0.166-0.371-0.372
			C59.269,163.343,59.435,163.175,59.64,163.175z M57.563,163.2c0.205,0,0.372,0.169,0.372,0.373s-0.166,0.37-0.372,0.37
			c-0.204,0-0.373-0.166-0.373-0.37C57.191,163.369,57.359,163.2,57.563,163.2z M55.489,160.082c0.205,0,0.372,0.166,0.372,0.372
			s-0.165,0.372-0.372,0.372c-0.206,0-0.372-0.165-0.372-0.372C55.118,160.248,55.283,160.082,55.489,160.082z M55.489,161.652
			c0.205,0,0.372,0.166,0.372,0.369c0,0.205-0.165,0.373-0.372,0.373c-0.206,0-0.372-0.168-0.372-0.373
			C55.118,161.818,55.283,161.652,55.489,161.652z M55.489,163.223c0.205,0,0.372,0.166,0.372,0.371
			c0,0.206-0.165,0.372-0.372,0.372c-0.206,0-0.372-0.166-0.372-0.372C55.117,163.389,55.283,163.223,55.489,163.223z
			 M55.489,164.793c0.205,0,0.372,0.167,0.372,0.372c0,0.203-0.165,0.372-0.372,0.372c-0.206,0-0.372-0.169-0.372-0.372
			C55.118,164.958,55.283,164.793,55.489,164.793z M55.489,166.361c0.205,0,0.372,0.168,0.372,0.371
			c0,0.207-0.165,0.373-0.372,0.373c-0.206,0-0.372-0.166-0.372-0.373C55.117,166.529,55.283,166.361,55.489,166.361z
			 M55.497,167.673c0.518,0,0.939-0.452,0.939-1.013v-2.326h2.98c0.033,0.167,0.07,0.357,0.129,0.634
			c0.424,1.983,1.658,3.97,3.591,4.462c0.015,0.08,0.028,0.159,0.039,0.237c0.003,0.015,0.003,0.032,0.001,0.048
			c-1.56,0.471-2.747,1.357-3.212,2.438c0.48-0.543,1.162-1.002,1.98-1.34c0.009,1.654,0.06,6.758,0.06,6.758l-0.422,0.308
			c-0.01-0.213-0.013-0.435-0.013-0.667c0-0.38,0.288-3.434-1.583-4.604c-1.555-0.901-3.261-0.599-4.524-0.252
			c-1.263-0.346-2.968-0.649-4.522,0.252c-1.871,1.172-1.582,4.225-1.582,4.604c0,0.23-0.004,0.451-0.013,0.663l-0.415-0.304
			c0,0,0.052-5.104,0.058-6.758c0.819,0.338,1.502,0.797,1.981,1.34c-0.465-1.079-1.653-1.967-3.213-2.438
			c0-0.016,0-0.033,0.002-0.048c0.013-0.082,0.027-0.171,0.042-0.257c1.895-0.52,3.102-2.484,3.521-4.442
			c0.06-0.274,0.099-0.467,0.128-0.634h3.107v2.326C54.557,167.221,54.979,167.673,55.497,167.673z M53.409,163.253
			c0.206,0,0.373,0.167,0.373,0.371c0,0.206-0.166,0.371-0.373,0.371c-0.205,0-0.372-0.165-0.372-0.371
			C53.039,163.42,53.205,163.253,53.409,163.253z M51.333,163.277c0.206,0,0.372,0.166,0.372,0.371c0,0.207-0.166,0.373-0.372,0.373
			s-0.372-0.166-0.372-0.373C50.96,163.447,51.127,163.277,51.333,163.277z M49.256,163.305c0.205,0,0.373,0.168,0.373,0.371
			c0,0.205-0.167,0.372-0.373,0.372c-0.205,0-0.373-0.165-0.373-0.372C48.883,163.471,49.051,163.305,49.256,163.305z
			 M46.927,165.662c0.46-0.721,1.055-1.085,1.901-1.324h1.432c-0.068,0.202-0.147,0.411-0.238,0.625
			c-0.591,1.372-1.505,2.518-2.729,3.042c1.396-0.202,2.407-1.31,3.007-2.705c0.145-0.335,0.247-0.651,0.332-0.961h0.213
			c-0.092,0.511-0.197,1.015-0.403,1.565c-0.671,1.794-2.081,3.281-4.279,2.955c-0.138-0.019-0.253-0.045-0.344-0.068
			c0.1-0.3,0.275-0.848,0.376-1.292C46.341,166.864,46.605,166.24,46.927,165.662z M44.054,167.532
			c0.541-0.937,1.335-1.476,2.074-1.56c-0.403,0.916-0.591,1.877-0.916,2.813c-0.219,0.316-0.938,1.052-1.415,1.081l-0.04-0.032
			C43.399,169.354,43.812,167.954,44.054,167.532z M43.733,170.398c0.608,0.072,1.403-0.65,1.811-1.131
			c0.126,0.039,0.306,0.084,0.527,0.117c0.159,0.023,0.315,0.04,0.467,0.047c-0.006,0.068-0.019,0.152-0.04,0.242
			c-0.331,1.506-1.936,2.035-3.451,2.096C42.856,171.385,43.351,170.645,43.733,170.398z M42.475,175.161l-0.034-0.06
			c-0.276-0.465-0.337-0.929-0.236-1.443c0.46-0.277,0.808-0.826,0.915-1.358c0.143-0.012,0.343-0.026,0.577-0.06
			c0.187,0.306,0.466,0.996-0.081,1.879C43.354,174.544,42.794,174.952,42.475,175.161z M42.572,178.646
			c-0.031,0.057-0.062,0.105-0.089,0.147c-0.219-0.276-0.384-0.547-0.463-0.81c-0.031-0.104-0.055-0.221-0.042-0.33
			c0.415-0.588,0.639-1.211,0.696-1.905C43.266,176.693,43.119,177.686,42.572,178.646z M43.089,169.668
			c0.011,0.057,0.025,0.109,0.041,0.163c0.024,0.082,0.059,0.169,0.109,0.251c-0.579,0.486-1.085,1.493-0.668,2.04
			c-0.067,0.476-0.313,0.752-0.628,1.03C40.84,172.259,41.79,170.201,43.089,169.668z M41.592,173.575l0.036,0.024
			c-0.009,0.049-0.016,0.103-0.023,0.156c-0.092,0.732,0.086,1.289,0.5,1.846c-0.031,0.575-0.188,1.088-0.488,1.573
			C40.189,176.292,40.178,174.343,41.592,173.575z M41.683,182.123c0.076-0.104,0.137-0.2,0.188-0.293
			c-0.058,0.995-0.836,1.883-0.836,1.883s1.997-1.589,1.186-2.693c-0.161-0.222-0.534-0.733-0.868-1.199
			c-0.366-0.57-0.686-1.305-0.403-2.539c0.143,0.123,0.302,0.24,0.479,0.34c-0.01,0.316,0.127,0.968,1.094,1.896
			c1.242,1.194,1.831,1.959,2.035,2.563c0.648,1.904-1.816,3.052-1.978,5.298c-0.089,1.246,0.68,2.784,1.225,3.695
			c-0.039-0.017-0.08-0.032-0.117-0.052c-3.47-2.787-1.157-6.047-1.157-6.047s-1.462,1.541-1.462,3.342
			c0,0.927,0.176,1.729,0.482,2.424C37.55,186.826,40.875,183.221,41.683,182.123z M20.418,199.628
			c-1.16-2.823-1.736-5.805-0.871-8.351c1.599-4.692,1.343-7.721,0.987-10.063c2.489,2.134,6.483,3.987,11.515,5.397
			c-1.794,2.777-2.109,7.297-1.688,11.447c-0.736,1.004-2.405,1.998-4.49,2.406C23.313,200.969,21.504,200.326,20.418,199.628z
			 M26.012,201.182c1.211-0.234,2.326-0.67,3.23-1.211l0.03,0.282c0.285,2.58,0.845,5.052,1.659,6.958
			c-0.498,0.303-1.137,0.548-1.807,0.707c-1.217-1.368-3.047-3.848-4.436-6.563C25.109,201.328,25.549,201.273,26.012,201.182z
			 M40.98,208.586l-2.688,1.88c0.842,0.87,1.03,1.827,0.363,2.396c-0.618,0.529-1.811,0.58-3.031,0.209
			c-1.349,1.188-3.613,1.656-5.458,1.039c-1.528-0.512-3.451-1.812-2.969-4.346c-0.214-0.183-0.517-0.488-0.88-0.891
			c0.659,0.148,1.423,0.021,2.348-0.123c1.707-0.271,3.524-1.12,3.885-2.266c0.461,0.828,0.943,1.308,1.396,1.301
			c0.651-0.271,1.616-0.286,2.502,0.011c0.592,0.195,1.041,0.499,1.298,0.829l3.233-2.262L40.98,208.586L40.98,208.586z
			 M37.751,207.536c-1.149-0.699-2.939-0.894-3.899-0.577c-1.269-0.579-5.432-14.59-0.754-20.423
			c1.295-1.612,4.014-2.042,5.11-0.351c0.287,0.439,0.557,0.877,0.813,1.31c0.178,0.954,0.692,1.921,1.575,3.009
			c2.403,5.279,2.517,9.729,2.036,13.616L37.751,207.536z M41.789,205.799l3.526-2.472v2.222l-3.526,2.469V205.799z M41.869,214.367
			c1.177,0.938,2.779,1.146,4.167,0.656c-0.146,0.623-0.192,1.264-0.122,1.912c-1.351,0.023-2.922-0.565-3.997-1.593
			C41.887,215.023,41.871,214.699,41.869,214.367z M43.68,219.621c-0.759-0.92-1.234-1.873-1.505-2.866
			c1.295,0.946,2.701,1.161,3.896,1.019c0.048,0.175,0.103,0.348,0.167,0.522C45.293,219.096,44.252,219.486,43.68,219.621z
			 M47.691,220.634c-0.271,0.329-1.227,0.72-2.422,0.538c-0.299-0.24-0.574-0.482-0.827-0.727c0.081-0.022,0.168-0.053,0.265-0.088
			c0.933-0.441,1.344-0.762,1.894-1.256C46.877,219.616,47.237,220.128,47.691,220.634z M49.651,202.512l-3.527,2.471v-2.223
			l3.527-2.47V202.512z M49.62,180.701c0,0-0.523,0.27-1.112,0.354c0.563-0.414,0.91-0.912,1.121-1.469
			c0.17-0.419,0.416-1.289,0.414-2.809c-0.001-1,0.759-2.375,0.759-2.375s-0.571,0.635-0.868,1.414
			c0.024-1.041,0.229-2.019,1.314-2.709c1.099-0.64,2.044-0.682,2.758-0.567c0.367,0.058,1.255,0.403,1.492,0.409
			c0.236-0.006,1.124-0.354,1.491-0.409c0.714-0.113,1.661-0.071,2.76,0.567c1.083,0.69,1.289,1.666,1.313,2.709
			c-0.298-0.779-0.87-1.414-0.87-1.414s0.763,1.375,0.761,2.375c-0.003,1.52,0.242,2.39,0.411,2.809
			c0.211,0.557,0.558,1.055,1.121,1.469c-0.589-0.082-1.112-0.354-1.112-0.354c-1.814-0.938-1.876-3.529-1.879-3.529v0.033
			c-0.012,1.052,0.107,1.842,0.255,2.409c-0.074-0.095-0.143-0.199-0.207-0.308c-0.593-1.015-0.859-2.478-0.859-3.623
			c0-1.008-0.245-1.318-1.211-1.318h-3.949c-0.97,0-1.213,0.309-1.213,1.318c0,1.146-0.265,2.608-0.859,3.623
			c-0.064,0.107-0.133,0.213-0.207,0.308c0.148-0.568,0.269-1.358,0.255-2.409v-0.033C51.494,177.172,51.435,179.764,49.62,180.701z
			 M62.512,191.285v0.951l-0.446-0.637L62.512,191.285z M59.126,179.67l-1.157,0.841h-5.005l-1.162-0.846l0.049-0.08
			c0.663-1.135,0.866-2.692,0.856-3.901c-0.01-0.861,0.635-0.812,0.825-0.812h3.861c0.188,0,0.832-0.052,0.826,0.812
			c-0.014,1.209,0.189,2.768,0.854,3.901L59.126,179.67z M53.986,199.479l-3.527,2.469v-2.223l3.527-2.469V199.479z M54.503,190.997
			c-0.262-0.103-0.267-0.188-0.267-0.208c0-0.376,0.123-0.624,0.23-0.585c0.107,0.037,0.161,0.345,0.161,0.723
			C54.626,190.961,54.635,191.051,54.503,190.997z M54.213,189.914c-0.014-0.1,0.009-0.211,0.02-0.329
			c-1.258,0.052-1.854,0.229-1.526-1.555c-0.01-0.392-0.46-0.726-0.27-1.782c0.359-1.986,1.071-2.359,3.188-2.359
			c2.124,0,2.834,0.371,3.193,2.359c0.192,1.057-0.261,1.391-0.268,1.782c0.327,1.784-0.271,1.604-1.527,1.555
			c0.012,0.118,0.033,0.229,0.02,0.329c-0.193-0.146-0.438-0.076-0.574,0.182c-0.084-0.084-0.196-0.146-0.339-0.146
			c-0.241,0-0.399,0.173-0.505,0.396c-0.1-0.225-0.258-0.396-0.5-0.396c-0.145,0-0.255,0.063-0.34,0.146
			C54.652,189.838,54.405,189.77,54.213,189.914z M57.039,190.789c0,0.02-0.005,0.105-0.267,0.208
			c-0.131,0.054-0.124-0.036-0.124-0.07c0-0.377,0.053-0.686,0.161-0.723C56.917,190.165,57.039,190.411,57.039,190.789z
			 M56.511,191.218c0,0.028-0.006,0.153-0.508,0.153c-0.204,0-0.237-0.059-0.237-0.107c0-0.502,0.167-0.957,0.373-0.957
			C56.343,190.307,56.511,190.714,56.511,191.218z M54.766,191.218c0-0.504,0.165-0.911,0.372-0.911
			c0.206,0,0.373,0.453,0.373,0.955c0,0.051-0.034,0.107-0.236,0.107C54.771,191.371,54.766,191.246,54.766,191.218z
			 M54.795,198.911v-2.222l2.985-2.092l0.459,0.658v1.242L54.795,198.911z M65.7,221.172c-1.194,0.182-2.15-0.209-2.422-0.538
			c0.454-0.506,0.815-1.02,1.092-1.532c0.55,0.496,0.961,0.815,1.894,1.258c0.094,0.035,0.183,0.063,0.264,0.088
			C66.274,220.689,65.999,220.932,65.7,221.172z M67.29,219.621c-0.571-0.135-1.615-0.525-2.558-1.325
			c0.063-0.176,0.119-0.349,0.165-0.522c1.195,0.144,2.6-0.071,3.896-1.019C68.523,217.749,68.048,218.701,67.29,219.621z
			 M69.1,214.367c-0.001,0.332-0.018,0.656-0.049,0.977c-1.074,1.025-2.644,1.616-3.997,1.594c0.07-0.649,0.023-1.291-0.121-1.914
			C66.321,215.514,67.924,215.307,69.1,214.367z M74.466,193.813c0.143,3.174-0.793,6.058-2.433,8.388l-1.008-0.128l0.35,0.988
			c-3.604,4.35-9.805,6.379-15.646,4.026C64.665,209.206,73.498,202.973,74.466,193.813z M71.486,197.012
			c1.171-0.82,2.042-1.908,2.587-3.123c-0.977,8.838-9.711,14.939-18.349,12.803c1.353-0.086,2.7-0.532,3.893-1.368
			c3.551-2.488,1.97-6.399,0.47-9.253l-0.361,0.253l-1.854-2.65l3.294-2.303l1.866,2.667l-0.383,0.273
			C64.812,196.689,67.948,199.488,71.486,197.012z M69.36,190.754c0.305-0.693,0.482-1.495,0.482-2.421
			c0-1.802-1.461-3.344-1.461-3.344s2.314,3.262-1.155,6.048c-0.04,0.02-0.079,0.035-0.119,0.052
			c0.546-0.911,1.314-2.45,1.225-3.694c-0.161-2.25-2.626-3.395-1.976-5.299c0.205-0.603,0.793-1.367,2.036-2.562
			c0.965-0.931,1.102-1.579,1.091-1.897c0.178-0.103,0.338-0.216,0.481-0.342c0.28,1.234-0.039,1.973-0.405,2.542
			c-0.334,0.464-0.706,0.976-0.868,1.197c-0.809,1.106,1.187,2.692,1.187,2.692s-0.776-0.889-0.836-1.879
			c0.051,0.09,0.113,0.188,0.188,0.291C70.038,183.234,73.362,186.839,69.36,190.754z M78.931,186.636
			c4.999-1.396,8.981-3.229,11.488-5.334c-0.347,2.329-0.577,5.341,1,9.976c0.866,2.547,0.291,5.527-0.871,8.352
			c-1.086,0.698-2.893,1.342-5.452,0.842c-2.086-0.408-3.753-1.406-4.491-2.408C81.026,193.918,80.712,189.413,78.931,186.636z
			 M86.28,201.355c-1.39,2.715-3.221,5.195-4.437,6.563c-0.669-0.159-1.307-0.404-1.806-0.706c0.812-1.905,1.372-4.378,1.658-6.958
			l0.03-0.281c0.904,0.541,2.018,0.976,3.23,1.211C85.418,201.273,85.86,201.328,86.28,201.355z M80.801,214.107
			c-1.846,0.619-4.11,0.148-5.457-1.037c-1.221,0.369-2.413,0.318-3.033-0.209c-0.809-0.692-0.352-1.961,1.003-2.947
			c-0.065-0.059-0.124-0.119-0.173-0.188c-0.478-0.651,0.138-1.518,1.378-1.933c0.885-0.296,1.849-0.28,2.5-0.01
			c0.453,0.008,0.936-0.474,1.396-1.3c0.362,1.145,2.18,1.994,3.886,2.265c0.925,0.146,1.69,0.271,2.349,0.123
			c-0.366,0.401-0.668,0.708-0.881,0.892C84.252,212.298,82.33,213.6,80.801,214.107z"/>
		<path fill="#F7931E" stroke="#828282" stroke-miterlimit="10" d="M54.162,175.598c-0.472,0-0.978-0.148-0.978-0.148
			s0.271,0.762,2.307,0.738c2.035,0.021,2.31-0.738,2.31-0.738s-0.505,0.148-0.979,0.148H54.162z"/>
		<path fill="#F7931E" stroke="#828282" stroke-miterlimit="10" d="M55.276,187.376c-0.036-0.556-0.564-0.698-1.199-0.606
			c-0.526,0.074-0.901,0.352-0.914,0.926c-0.014,0.644,0.259,1.076,0.901,1.076S55.322,188.018,55.276,187.376z"/>
		<path fill="#F7931E" stroke="#828282" stroke-miterlimit="10" d="M57.522,168.424c-0.191,0.119-0.277,0.252-0.319,0.297
			l2.756-0.055c0,0-0.155-0.271-1.072-0.42c-0.165-0.021-0.316-0.036-0.452-0.036c0.847-0.267,1.102-0.462,1.848-0.22
			c0.478,0.156,0.764,0.537,0.764,0.537s-0.817-1.715-2.015-1.301c-1.068,0.369-0.652,0.248-1.615,0.566
			c-0.735,0.242-1.232-0.055-1.232-0.055S56.556,168.492,57.522,168.424z"/>
		<path fill="#F7931E" stroke="#828282" stroke-miterlimit="10" d="M57.163,188.771c0.644,0,0.916-0.434,0.902-1.076
			c-0.013-0.574-0.389-0.852-0.914-0.926c-0.635-0.092-1.164,0.051-1.2,0.606C55.906,188.018,56.521,188.771,57.163,188.771z"/>
	</g>
	<g display="inline">
		<path fill="#F7931E" stroke="#828282" stroke-miterlimit="10" d="M172.596,196.632c-0.296,0.041-0.507,0.194-0.514,0.519
			c-0.007,0.358,0.146,0.603,0.506,0.603c0.357,0,0.704-0.424,0.678-0.78C173.245,196.658,172.951,196.579,172.596,196.632z"/>
		<path fill="#F7931E" stroke="#828282" stroke-miterlimit="10" d="M172.075,175.566c-0.488,0-1.009-0.152-1.009-0.152
			s0.279,0.784,2.379,0.76c2.103,0.023,2.38-0.76,2.38-0.76s-0.521,0.152-1.009,0.152H172.075z"/>
		<path fill="#F7931E" stroke="#828282" stroke-miterlimit="10" d="M227.13,175.082c0.647-0.477,0.136-1.561-0.647-1.352l0.93-3.281
			l-1.445,0.676l-1.052,3.32l0.396-3.016l-5.522,2.576l-0.927,3.262l-2.156,1.006c-0.863-0.914-1.791-1.744-2.77-2.49
			c0.647,0.226,1.229,0.51,1.727,0.835c-0.62-1.515-2.533-2.698-4.932-2.89c-0.018-0.045-0.039-0.09-0.059-0.135
			c1.758,0.012,3.402,0.363,4.77,0.979c-1.316-1.858-3.842-3.048-6.608-3.015l-0.056-0.058c1.223-0.553,2.593-0.819,3.933-0.803
			c-1.62-0.714-3.498-0.9-5.13-0.509c-0.146-0.198-0.309-0.379-0.489-0.537l0.224-0.479c2.346,0.064,4.567,0.561,6.236,1.376
			c-1.111-1.38-3.205-2.397-5.561-2.829l1.813-3.884l3.232-0.917l2.574-5.523l0.307-0.658l0.676-1.443l-3.256,0.923
			c0.188-0.78-0.9-1.282-1.367-0.618l-1.395-3.111l-0.676,1.443l1.33,3.221l-1.638-2.562l-2.575,5.524l1.387,3.093l-2.012,4.315
			c-0.324-0.021-0.651-0.03-0.98-0.029c-0.657-0.669-1.665-1.215-2.844-1.583c-0.571-0.466-1.346-0.901-2.26-1.279
			c1.488-0.207,2.918-0.196,4.09,0.031c-1.414-1.009-4-1.298-6.485-0.8c-0.823-0.199-1.702-0.354-2.611-0.452
			c-1.692-0.183-3.237-0.134-4.491,0.091c-3.317-0.775-6.683-1.109-10.319-1.249c3.343-1.239,7.573-6.433,2.202-12.162
			c-0.243-0.259-0.606-0.343-0.354,0.175c0.666,1.51,1.409,4.808-0.155,6.81c-1.386,1.772-3.589,2.532-5.66,2.163
			c-0.871-0.334-1.813-0.529-2.791-0.562c-0.071-0.081-0.176-0.133-0.291-0.133c-0.119,0-0.223,0.052-0.291,0.134
			c-0.978,0.032-1.912,0.227-2.779,0.555c-2.079,0.381-4.293-0.377-5.684-2.157c-1.563-2.003-0.822-5.3-0.154-6.81
			c0.254-0.518-0.112-0.434-0.355-0.175c-5.375,5.729-1.137,10.925,2.208,12.162c-3.623,0.142-6.978,0.476-10.286,1.249
			c-1.253-0.227-2.798-0.273-4.492-0.092c-0.906,0.097-1.783,0.252-2.609,0.453c-2.484-0.498-5.07-0.209-6.486,0.799
			c1.174-0.229,2.602-0.239,4.092-0.031c-0.916,0.378-1.688,0.814-2.261,1.28c-1.178,0.366-2.188,0.911-2.843,1.583
			c-3.324-0.021-6.633,1.186-8.143,3.057c1.897-0.93,4.515-1.441,7.219-1.378c-0.495,0.214-0.922,0.569-1.246,1.017
			c-1.633-0.393-3.514-0.207-5.131,0.51c1.339-0.018,2.709,0.248,3.93,0.802l-0.053,0.058c-2.768-0.033-5.293,1.154-6.611,3.014
			c1.369-0.615,3.016-0.967,4.771-0.979c-0.021,0.045-0.043,0.09-0.061,0.137c-2.396,0.189-4.311,1.371-4.931,2.887
			c0.791-0.518,1.8-0.928,2.946-1.18c-1.016,0.893-1.801,1.957-2.213,3.045c-1.091,0.607-1.908,1.506-2.291,2.543
			c0.989-0.739,2.307-1.28,3.797-1.513c-1.84,1.64-3.051,3.669-3.03,5.245c0.594-1.148,1.616-2.391,2.914-3.529
			c-1.202,2.478-1.739,5.019-1.468,7.039c0.555-1.729,1.43-3.574,2.578-5.371c-0.838,2.605-0.691,5.422,0.377,6.754
			c-0.355-1.894-0.004-4.633,1.041-7.164c0.006-0.014,0.032-0.021,0.08-0.033c-0.576,2.078-0.427,4.379,0.312,6.447
			c-0.175,0.69-0.397,1.438-0.683,2.271c-1.394,4.092,0.5,9.058,2.844,13.038v-0.001h4.592c-0.469-0.756-0.928-1.556-1.348-2.374
			c0.435-0.027,0.888-0.087,1.365-0.18c1.25-0.244,2.397-0.689,3.332-1.25l0.03,0.293c0.132,1.205,0.325,2.39,0.571,3.511h0.004
			c0.301,1.346,0.68,2.593,1.137,3.666c-0.514,0.308-1.172,0.563-1.861,0.728c-0.889-0.996-2.093-2.566-3.229-4.393v0.001h-4.596
			c1.815,3.082,3.904,5.574,4.947,6.606c-0.531,5.176,6.473,6.453,9.771,4.017c3.195,0.743,5.922-1.47,2.994-4.334
			c0.839-2.464-3.328-3.44-5.016-2.886c-0.375-0.172-0.996-1.48-1.574-3.404h-0.004c-1.445-4.785-2.644-13.367,0.799-17.659
			c1.334-1.663,4.139-2.106,5.269-0.362c0.235,0.36,0.459,0.719,0.673,1.071l0.096,0.172c0.109,1.229,0.752,2.447,1.988,3.878
			c0.057,0.137,0.114,0.272,0.17,0.406l0.03,0.076c1.911,4.734,2.056,8.811,1.661,12.417h0.005
			c-0.155,1.429-0.399,2.784-0.649,4.079c-1.051,5.422-2.435,10.29,2.58,14.506c-1.072,0.253-10.32,1.343-8.086,4.057
			c1.133,1.375,5.525,0.67,6.683,0.229c2.962-1.138,2.143-1.372,5.961-2.05c1.257-0.368,1.966-1.545,0.71-2.521
			c-6.823-5.306-0.495-12.823,6-12.845c6.496,0.018,12.828,7.538,6.004,12.845c-1.256,0.976-0.545,2.152,0.71,2.521
			c3.817,0.678,3,0.912,5.961,2.05c1.156,0.44,5.55,1.146,6.683-0.229c2.234-2.714-7.015-3.804-8.086-4.057
			c3.391-2.85,3.855-5.997,3.478-9.412c7.019,4.299,16.126,4.639,23.667,0.104c3.834-2.305,6.744-5.557,8.617-9.277h-0.002
			c3.397-6.757,3.365-15.055-0.817-22.018c-0.577-0.963-1.217-1.869-1.908-2.715l1.769-0.826l3.066,1.377l5.523-2.576l0.656-0.307
			l1.445-0.675L227.13,175.082z M134.376,177.716c-0.504,0.062-0.985,0.175-1.438,0.336c0.504-0.479,1.076-0.933,1.701-1.343
			C134.52,177.033,134.434,177.369,134.376,177.716z M146.63,166.619c-1.173,0.191-2.262,0.559-3.134,1.044l-0.081-0.013
			c-0.569-0.092-1.149-0.142-1.729-0.153C143.046,166.956,144.798,166.639,146.63,166.619z M147.542,198.436
			c-0.761,1.035-2.481,2.063-4.633,2.483c-2.64,0.519-4.503-0.146-5.624-0.864c-1.196-2.914-1.791-5.99-0.896-8.615
			c0.154-0.45,0.291-0.888,0.412-1.309c0.67,1.354,1.604,2.555,2.75,3.451c-1.549-2.896-1.943-6.827-0.832-10.357
			c0.08,0.243,0.203,0.457,0.361,0.623c-0.721,3.08,0.287,6.686,2.736,9.184c-0.938-2.453-0.957-5.325,0.016-7.907
			c-0.141,2.321,0.645,4.803,2.309,6.808c-0.576-2.074-0.451-4.344,0.362-6.416c-0.01,0.101-0.019,0.199-0.026,0.303
			c-0.233,3.033,0.83,6.145,2.414,7.182c-0.922-1.68-1.431-4.367-1.23-7.081l0.083,0.031c0.124,2.364,0.772,4.43,1.875,5.614
			C147.297,193.741,147.311,196.143,147.542,198.436z M147.939,189.902c-0.125,0.513-0.231,1.045-0.314,1.591
			c-0.38-1.42-0.527-3.169-0.43-5.058c0.313,0.101,0.623,0.195,0.932,0.289C147.773,187.914,147.693,189.041,147.939,189.902z
			 M149.799,207.124c0.479,0.854,0.975,1.351,1.439,1.341c0.676-0.277,1.669-0.294,2.58,0.012c1.279,0.428,1.914,1.319,1.422,1.992
			c-0.051,0.069-0.111,0.133-0.18,0.192c1.4,1.019,1.871,2.325,1.035,3.039c-0.638,0.545-1.865,0.597-3.127,0.216
			c-1.39,1.225-3.725,1.707-5.628,1.07c-1.577-0.527-3.559-1.866-3.063-4.481c-0.219-0.188-0.529-0.5-0.907-0.917
			c0.682,0.152,1.469,0.021,2.423-0.129C147.553,209.18,149.43,208.305,149.799,207.124z M149.823,165.559
			c-0.114-0.019-0.229-0.037-0.347-0.055c-0.994-0.145-2.024-0.146-3.017-0.035c0.647-0.172,1.327-0.326,2.035-0.457
			c0.507,0.133,1.012,0.288,1.507,0.471L149.823,165.559z M151.749,164.796c-0.117-0.058-0.237-0.118-0.362-0.173
			c0.357-0.032,0.711-0.055,1.057-0.072C152.212,164.63,151.979,164.711,151.749,164.796z M213.068,179.971l-4.436,2.067
			l-0.111-5.192C210.163,177.648,211.699,178.697,213.068,179.971z M212.35,155.956c0.074-0.159,0.195-0.19,0.34-0.123
			c0.146,0.065,0.197,0.183,0.125,0.339l-13.379,28.688c-0.072,0.156-0.192,0.189-0.338,0.123c-0.145-0.066-0.195-0.184-0.123-0.34
			L212.35,155.956z M205.218,167.497c-0.579,0.013-1.159,0.063-1.729,0.153l-0.082,0.013c-0.871-0.485-1.961-0.853-3.133-1.044
			C202.105,166.639,203.857,166.956,205.218,167.497z M198.406,165.012c0.709,0.133,1.391,0.286,2.037,0.457
			c-0.992-0.111-2.023-0.107-3.017,0.035c-0.118,0.018-0.233,0.036-0.348,0.055l-0.183-0.076
			C197.396,165.3,197.9,165.145,198.406,165.012z M196.363,175.266c2.162-0.437,4.361-0.484,6.5-0.173l-4.352,9.335
			c-0.434,0.926,0.956,1.573,1.387,0.646l4.285-9.188l-1.135,12.875c-1.804-1.017-4.086-1.062-5.988,0.081
			c-0.305,0.184-0.588,0.391-0.848,0.616L196.363,175.266z M203.441,191.941c0.961,1.599,0.634,3.61-0.68,4.83
			c-0.139,0.129-0.289,0.25-0.449,0.36c-0.064,0.043-0.129,0.083-0.195,0.125c-1.832,1.103-4.213,0.509-5.313-1.325
			c-1.102-1.834-0.51-4.215,1.322-5.315c1.547-0.929,3.479-0.652,4.709,0.557c0.137,0.134,0.264,0.278,0.38,0.435
			C203.298,191.714,203.372,191.825,203.441,191.941z M195.52,164.623c-0.125,0.057-0.246,0.115-0.362,0.173
			c-0.233-0.084-0.464-0.166-0.696-0.245C194.807,164.568,195.159,164.591,195.52,164.623z M188.533,174.295l-0.154,0.092
			c-0.275,0.164-0.546,0.336-0.811,0.51c0.14-0.363,0.183-0.756,0.125-1.211c-0.006-0.059-0.014-0.112-0.023-0.16l0.038-0.027
			C188.076,173.698,188.352,173.977,188.533,174.295z M186.121,169.635c0.018-0.054,0.029-0.109,0.043-0.168
			c1.338,0.551,2.318,2.674,1.18,3.596c-0.322-0.289-0.578-0.572-0.648-1.063c0.433-0.565-0.092-1.603-0.688-2.104
			C186.059,169.811,186.096,169.719,186.121,169.635z M186.832,175.074l-0.035,0.059c-0.328-0.217-0.906-0.638-1.178-1.074
			c-0.563-0.912-0.275-1.623-0.083-1.938c0.241,0.032,0.448,0.051,0.595,0.062c0.112,0.547,0.471,1.116,0.945,1.398
			C187.178,174.114,187.116,174.593,186.832,175.074z M186.206,171.639c-1.563-0.064-3.218-0.611-3.56-2.162
			c-0.021-0.097-0.035-0.18-0.041-0.252c0.158-0.009,0.316-0.022,0.48-0.048c0.23-0.034,0.414-0.081,0.545-0.12
			c0.421,0.491,1.241,1.239,1.867,1.166C185.895,170.475,186.406,171.236,186.206,171.639z M185.167,167.266
			c0.251,0.434,0.676,1.877,0.308,2.375l-0.041,0.032c-0.494-0.028-1.232-0.788-1.461-1.114c-0.334-0.968-0.524-1.955-0.941-2.9
			C183.793,165.742,184.611,166.3,185.167,167.266z M179.866,162.729c0.212,0,0.383,0.172,0.383,0.385s-0.171,0.384-0.383,0.384
			s-0.384-0.172-0.384-0.384C179.482,162.9,179.654,162.729,179.866,162.729z M178.373,163.971c0.089,0.314,0.191,0.637,0.338,0.977
			c0.619,1.439,1.663,2.582,3.104,2.789c-1.265-0.539-2.207-1.721-2.816-3.137c-0.091-0.216-0.17-0.425-0.239-0.629h1.485
			c0.873,0.245,1.488,0.623,1.961,1.366c0.332,0.595,0.605,1.239,0.755,1.894c0.106,0.457,0.287,1.021,0.39,1.33
			c-0.094,0.025-0.215,0.053-0.354,0.072c-2.267,0.334-3.722-1.197-4.413-3.048c-0.213-0.569-0.32-1.089-0.415-1.614H178.373z
			 M177.725,162.756c0.211,0,0.383,0.174,0.383,0.385c0,0.213-0.172,0.383-0.383,0.383s-0.383-0.17-0.383-0.383
			C177.342,162.93,177.514,162.756,177.725,162.756z M175.583,162.783c0.212,0,0.383,0.171,0.383,0.384
			c0,0.212-0.172,0.383-0.383,0.383c-0.213,0-0.384-0.171-0.384-0.383C175.199,162.954,175.37,162.783,175.583,162.783z
			 M173.441,159.566c0.215,0,0.385,0.17,0.385,0.383c0,0.212-0.172,0.384-0.385,0.384c-0.211,0-0.383-0.172-0.383-0.384
			C173.059,159.736,173.23,159.566,173.441,159.566z M173.441,161.184c0.215,0,0.385,0.174,0.385,0.385
			c0,0.213-0.172,0.385-0.385,0.385c-0.211,0-0.383-0.172-0.383-0.385C173.061,161.357,173.23,161.184,173.441,161.184z
			 M173.441,162.807c0.215,0,0.385,0.17,0.385,0.383c0,0.211-0.172,0.384-0.385,0.384c-0.211,0-0.383-0.173-0.383-0.384
			C173.061,162.977,173.23,162.807,173.441,162.807z M173.441,164.424c0.215,0,0.385,0.172,0.385,0.383
			c0,0.213-0.172,0.385-0.385,0.385c-0.211,0-0.383-0.172-0.383-0.385C173.061,164.596,173.23,164.424,173.441,164.424z
			 M173.441,166.043c0.215,0,0.385,0.172,0.385,0.383c0,0.213-0.172,0.385-0.385,0.385c-0.211,0-0.383-0.172-0.383-0.385
			C173.061,166.215,173.23,166.043,173.441,166.043z M171.298,162.835c0.212,0,0.386,0.172,0.386,0.386
			c0,0.211-0.174,0.381-0.386,0.381c-0.211,0-0.382-0.17-0.382-0.381C170.916,163.008,171.087,162.835,171.298,162.835z
			 M172.48,163.949v2.402c0,0.574,0.436,1.043,0.971,1.043s0.969-0.469,0.969-1.043v-2.402h3.074
			c0.033,0.174,0.07,0.371,0.131,0.654c0.439,2.045,1.713,4.095,3.706,4.601c0.017,0.083,0.026,0.166,0.04,0.245
			c0.002,0.017,0.004,0.033,0.002,0.05c-1.607,0.485-2.835,1.401-3.313,2.515c0.494-0.561,1.197-1.035,2.041-1.382
			c0.006,1.704,0.062,6.968,0.062,6.968l-0.435,0.318c-0.011-0.219-0.015-0.447-0.015-0.688c0-0.394,0.298-3.539-1.632-4.748
			c-1.605-0.933-3.362-0.617-4.667-0.262c-1.302-0.355-3.062-0.671-4.665,0.262c-1.928,1.207-1.632,4.354-1.632,4.748
			c0,0.236-0.005,0.465-0.015,0.683l-0.428-0.313c0,0,0.055-5.263,0.063-6.968c0.845,0.347,1.548,0.821,2.043,1.382
			c-0.479-1.113-1.705-2.029-3.314-2.515c0-0.017,0-0.033,0.002-0.051c0.014-0.087,0.027-0.173,0.045-0.263
			c1.952-0.537,3.199-2.563,3.633-4.582c0.06-0.285,0.1-0.481,0.129-0.655L172.48,163.949L172.48,163.949z M169.154,162.861
			c0.215,0,0.386,0.173,0.386,0.384c0,0.213-0.172,0.385-0.386,0.385c-0.211,0-0.381-0.172-0.381-0.385
			C168.773,163.034,168.943,162.861,169.154,162.861z M167.014,162.891c0.213,0,0.385,0.17,0.385,0.383
			c0,0.211-0.172,0.383-0.385,0.383s-0.383-0.172-0.383-0.383S166.802,162.891,167.014,162.891z M164.613,165.322
			c0.474-0.743,1.088-1.122,1.96-1.367h1.479c-0.074,0.211-0.152,0.424-0.248,0.645c-0.607,1.416-1.553,2.598-2.813,3.137
			c1.438-0.207,2.481-1.35,3.102-2.789c0.146-0.346,0.255-0.672,0.343-0.991v-0.002h0.219c-0.094,0.528-0.203,1.047-0.416,1.616
			c-0.69,1.85-2.145,3.381-4.411,3.049c-0.142-0.021-0.263-0.049-0.356-0.073c0.104-0.31,0.284-0.873,0.391-1.332
			C164.009,166.561,164.279,165.917,164.613,165.322z M161.648,167.251c0.559-0.966,1.377-1.524,2.139-1.608
			c-0.415,0.944-0.607,1.934-0.943,2.9c-0.225,0.326-0.965,1.085-1.46,1.115l-0.042-0.033
			C160.975,169.126,161.398,167.686,161.648,167.251z M161.318,170.206c0.629,0.073,1.445-0.672,1.867-1.165
			c0.131,0.04,0.313,0.087,0.545,0.119c0.166,0.025,0.326,0.041,0.48,0.049c-0.007,0.07-0.02,0.156-0.039,0.251
			c-0.343,1.552-1.997,2.099-3.563,2.161C160.414,171.223,160.926,170.459,161.318,170.206z M160.021,175.117l-0.037-0.059
			c-0.283-0.481-0.346-0.959-0.241-1.492c0.474-0.284,0.832-0.854,0.942-1.401c0.146-0.009,0.354-0.028,0.596-0.062
			c0.191,0.313,0.479,1.025-0.083,1.938C160.928,174.479,160.35,174.898,160.021,175.117z M160.122,178.709
			c-0.033,0.059-0.063,0.109-0.095,0.155c-0.225-0.287-0.396-0.564-0.478-0.837c-0.03-0.104-0.057-0.227-0.043-0.34
			c0.429-0.607,0.659-1.248,0.718-1.965C160.837,176.698,160.688,177.719,160.122,178.709z M160.654,169.451
			c0.011,0.058,0.025,0.113,0.041,0.169c0.027,0.084,0.063,0.175,0.115,0.26c-0.598,0.501-1.119,1.54-0.688,2.104
			c-0.069,0.49-0.325,0.774-0.647,1.063C158.334,172.125,159.316,170,160.654,169.451z M159.109,173.482l0.037,0.026
			c-0.008,0.05-0.018,0.103-0.025,0.159c-0.096,0.754,0.089,1.33,0.516,1.905c-0.029,0.591-0.191,1.118-0.5,1.618
			C157.663,176.282,157.65,174.271,159.109,173.482z M158.57,188.688c0,0.953,0.185,1.78,0.498,2.498
			c-4.125-4.037-0.696-7.756,0.137-8.888c0.077-0.106,0.145-0.207,0.195-0.301c-0.063,1.022-0.863,1.938-0.863,1.938
			s2.059-1.637,1.225-2.778c-0.168-0.228-0.55-0.757-0.896-1.234c-0.379-0.588-0.707-1.348-0.416-2.621
			c0.146,0.13,0.313,0.248,0.494,0.353c-0.01,0.326,0.131,0.998,1.125,1.957c1.281,1.232,1.891,2.021,2.102,2.642
			c0.668,1.966-1.874,3.146-2.039,5.468c-0.093,1.282,0.7,2.869,1.264,3.809c-0.041-0.016-0.082-0.033-0.123-0.053
			c-3.578-2.875-1.19-6.237-1.19-6.237S158.57,186.828,158.57,188.688z M159.427,215.318c1.214,0.968,2.865,1.181,4.298,0.675
			c-0.149,0.642-0.199,1.303-0.125,1.973c-1.394,0.025-3.016-0.584-4.123-1.644C159.443,215.993,159.428,215.658,159.427,215.318z
			 M161.294,220.736c-0.782-0.949-1.272-1.932-1.553-2.957c1.336,0.976,2.786,1.197,4.019,1.051c0.049,0.18,0.104,0.357,0.172,0.537
			C162.958,220.191,161.882,220.598,161.294,220.736z M165.432,221.779c-0.279,0.342-1.267,0.742-2.498,0.556
			c-0.31-0.248-0.593-0.496-0.854-0.749c0.083-0.023,0.175-0.054,0.272-0.091c0.961-0.454,1.385-0.782,1.955-1.296
			C164.591,220.729,164.963,221.258,165.432,221.779z M165.835,199.495h-4.619c-0.097-1.563-0.345-3.209-0.815-4.942h5.436
			L165.835,199.495L165.835,199.495z M166.243,181.193c0.582-0.426,0.938-0.939,1.155-1.514c0.176-0.434,0.43-1.332,0.427-2.896
			c0-1.033,0.782-2.448,0.782-2.448s-0.59,0.654-0.896,1.459c0.026-1.076,0.237-2.083,1.354-2.795
			c1.133-0.659,2.109-0.703,2.848-0.587c0.377,0.061,1.293,0.417,1.537,0.423c0.242-0.006,1.158-0.362,1.535-0.423
			c0.738-0.116,1.715-0.072,2.848,0.587c1.117,0.712,1.329,1.719,1.354,2.795c-0.307-0.808-0.897-1.459-0.897-1.459
			s0.786,1.415,0.783,2.448c-0.001,1.564,0.253,2.464,0.428,2.896c0.217,0.573,0.575,1.088,1.153,1.514
			c-0.604-0.084-1.146-0.362-1.146-0.362c-1.869-0.968-1.933-3.642-1.938-3.642l-0.002,0.035c-0.012,1.084,0.113,1.896,0.267,2.483
			c-0.076-0.097-0.147-0.203-0.213-0.315c-0.612-1.045-0.888-2.556-0.888-3.735c0-1.042-0.25-1.361-1.25-1.361h-4.072
			c-0.998,0-1.249,0.321-1.247,1.361c0,1.181-0.272,2.69-0.888,3.735c-0.064,0.112-0.137,0.217-0.213,0.315
			c0.154-0.585,0.279-1.399,0.267-2.483l-0.001-0.035c-0.005,0-0.066,2.674-1.938,3.642
			C167.393,180.831,166.852,181.109,166.243,181.193z M173.18,198.411c-0.08,0-0.143,0.034-0.189,0.081
			c-0.075-0.145-0.213-0.182-0.32-0.102c-0.007-0.056,0.003-0.117,0.01-0.185c-0.701,0.03-1.035,0.13-0.853-0.868
			c-0.005-0.218-0.259-0.406-0.15-0.997c0.2-1.112,0.599-1.319,1.784-1.319c1.188,0,1.585,0.207,1.786,1.319
			c0.106,0.591-0.146,0.779-0.149,0.997c0.184,0.997-0.148,0.896-0.854,0.868c0.007,0.067,0.02,0.129,0.01,0.185
			c-0.107-0.08-0.243-0.043-0.32,0.102c-0.048-0.047-0.108-0.081-0.188-0.081c-0.136,0-0.224,0.096-0.282,0.222
			C173.404,198.507,173.316,198.411,173.18,198.411z M173.395,199.146c0,0.027-0.018,0.062-0.131,0.062
			c-0.281,0-0.285-0.071-0.285-0.088c0-0.282,0.095-0.511,0.207-0.509C173.302,198.611,173.395,198.866,173.395,199.146z
			 M173.005,194.553c-1.176,0.211-2.065,1.237-2.065,2.473c0,1.227,0.875,2.244,2.033,2.471h-5.558v-4.941h5.59V194.553z
			 M169.643,179.764l0.051-0.084c0.685-1.17,0.895-2.774,0.883-4.021c-0.012-0.893,0.654-0.838,0.851-0.838h3.98
			c0.196,0,0.86-0.055,0.852,0.838c-0.013,1.246,0.197,2.854,0.88,4.021l0.055,0.088L176,180.635h-5.16L169.643,179.764z
			 M172.684,198.881c0-0.211,0.068-0.348,0.129-0.328c0.062,0.021,0.09,0.193,0.09,0.405c0,0.019,0.005,0.067-0.068,0.039
			C172.688,198.939,172.684,198.893,172.684,198.881z M174.252,198.881c0,0.012-0.003,0.061-0.15,0.116
			c-0.072,0.028-0.068-0.021-0.068-0.039c0-0.212,0.029-0.384,0.09-0.405C174.184,198.532,174.252,198.67,174.252,198.881z
			 M173.749,198.609c0.114,0,0.207,0.229,0.207,0.511c0,0.015-0.003,0.088-0.283,0.086c-0.114,0-0.133-0.033-0.133-0.06
			C173.54,198.865,173.633,198.609,173.749,198.609z M175.968,197.025c0-1.235-0.894-2.264-2.065-2.474h3.425
			c0.043,1.649,0.267,3.308,0.677,4.942h-4.072C175.091,199.27,175.968,198.251,175.968,197.025z M183.973,222.335
			c-1.232,0.187-2.221-0.215-2.5-0.556c0.469-0.521,0.842-1.051,1.125-1.58c0.569,0.514,0.993,0.842,1.952,1.295
			c0.101,0.037,0.19,0.068,0.274,0.09C184.563,221.837,184.279,222.087,183.973,222.335z M185.611,220.736
			c-0.592-0.141-1.664-0.545-2.639-1.369c0.064-0.18,0.123-0.357,0.172-0.537c1.232,0.146,2.682-0.075,4.019-1.051
			C186.883,218.805,186.395,219.787,185.611,220.736z M187.428,216.322c-1.107,1.061-2.729,1.669-4.123,1.644
			c0.073-0.67,0.024-1.331-0.123-1.973c1.43,0.506,3.084,0.293,4.297-0.675C187.477,215.658,187.458,215.993,187.428,216.322z
			 M195.789,189.861c-1.777,1.891-2.165,4.802-0.764,7.135c0.201,0.332,0.429,0.641,0.68,0.917l-0.068,6.294h0.004l-0.086,8.214
			c-1.263-0.313-2.496-0.754-3.675-1.317l-0.101-6.896h-0.418l0.1,6.688c-1.964-1.002-3.771-2.353-5.314-4.026l-0.271-2.661h-0.421
			l0.219,2.128c-0.568-0.664-1.098-1.374-1.58-2.128l-17.029-0.002l17.023-0.003c-0.096-0.153-0.191-0.308-0.285-0.461
			c-3.626-6.036-3.517-13.272-0.345-19.024l1.992,19.489h0.421l-2.057-20.104c1.554-2.58,3.742-4.83,6.5-6.488
			c0.218-0.131,0.436-0.256,0.654-0.375l0.389,26.969h0.418l-0.393-27.189c1.475-0.763,3.006-1.313,4.559-1.664L195.789,189.861z
			 M195.971,212.52l0.088-8.313h-0.004l0.063-5.877c1.604,1.463,3.91,1.943,5.979,1.212l-0.412,4.665h0.004l-0.771,8.757
			C199.249,213.031,197.586,212.88,195.971,212.52z M201.339,212.941l0.769-8.734h-0.002l0.426-4.838
			c0.22-0.1,0.436-0.212,0.648-0.34c2.813-1.69,3.723-5.342,2.033-8.156c-0.462-0.77-1.07-1.396-1.771-1.866l1.195-13.569
			c1.188,0.291,2.346,0.693,3.459,1.207l0.12,5.584l-1.62,0.758c-0.926,0.432-0.277,1.82,0.647,1.388l1.009-0.472l0.443,20.306
			h0.004l0.144,6.653C206.447,212.102,203.893,212.779,201.339,212.941z M214.21,206.749c-1.219,1.339-2.651,2.526-4.28,3.508
			c-0.225,0.134-0.445,0.261-0.672,0.384l-0.14-6.434h-0.005l-0.446-20.495l5.543-2.585c0.271,0.3,0.535,0.609,0.792,0.932
			l-0.716,22.149h0.005L214.21,206.749z M216.152,204.208h0.004c-0.455,0.712-0.961,1.396-1.514,2.047l0.064-2.048h-0.005
			l0.696-21.627c0.367,0.495,0.715,1.011,1.035,1.549C220.287,190.539,219.924,198.309,216.152,204.208z M226.762,174.712
			l-19.729,9.2c-0.157,0.072-0.273,0.021-0.342-0.123c-0.065-0.145-0.032-0.266,0.125-0.338l19.729-9.201
			c0.158-0.074,0.271-0.021,0.339,0.123C226.952,174.518,226.919,174.639,226.762,174.712z"/>
		<path fill="#F7931E" stroke="#828282" stroke-miterlimit="10" d="M174.32,197.752c0.361,0,0.514-0.243,0.507-0.604
			c-0.009-0.322-0.22-0.477-0.513-0.518c-0.357-0.051-0.651,0.026-0.672,0.34C173.619,197.328,173.962,197.752,174.32,197.752z"/>
		<path fill="#F7931E" stroke="#828282" stroke-miterlimit="10" d="M167.753,168.275c0,0,0.293-0.396,0.788-0.555
			c0.768-0.248,1.032-0.046,1.902,0.227c-0.141,0.001-0.295,0.012-0.465,0.035c-0.944,0.158-1.104,0.438-1.104,0.438l2.84,0.055
			c-0.044-0.047-0.131-0.184-0.328-0.305c0.998,0.068,1.379-0.709,1.379-0.709s-0.512,0.309-1.269,0.057
			c-0.995-0.33-0.565-0.205-1.669-0.584C168.596,166.508,167.753,168.275,167.753,168.275z"/>
		<path fill="#F7931E" stroke="#828282" stroke-miterlimit="10" d="M175.54,168.17c-0.197,0.121-0.287,0.258-0.329,0.305l2.84-0.055
			c0,0-0.158-0.279-1.104-0.438c-0.172-0.023-0.326-0.034-0.465-0.035c0.871-0.271,1.134-0.475,1.901-0.227
			c0.495,0.159,0.789,0.555,0.789,0.555s-0.843-1.769-2.075-1.344c-1.104,0.381-0.675,0.256-1.67,0.586
			c-0.758,0.25-1.269-0.058-1.269-0.058S174.541,168.239,175.54,168.17z"/>
	</g>
</g>
<g id="Layer_6" display="none">
	<g display="inline">
		<g>
			<defs>
				<path id="SVGID_1_" d="M229.773,215.854c0,8.886-7.203,16.088-16.09,16.088H26.314c-8.885,0-16.087-7.202-16.087-16.088V28.481
					c0-8.885,7.202-16.087,16.087-16.087h187.372c8.885,0,16.088,7.202,16.088,16.087"/>
			</defs>
			<clipPath id="SVGID_2_">
				<use xlink:href="#SVGID_1_"  overflow="visible"/>
			</clipPath>
			<g transform="matrix(1 0 0 1 -7.629395e-006 0)" opacity="0.2" clip-path="url(#SVGID_2_)">
				
					<image overflow="visible" enable-background="new    " width="1920" height="1080" xlink:href="A3DF5BBC.jpeg"  transform="matrix(0.4464 0 0 0.4464 -74.874 -113.999)">
				</image>
			</g>
		</g>
	</g>
	
		<image display="inline" overflow="visible" enable-background="new    " width="256" height="256" xlink:href="A3DF5BBD.png"  transform="matrix(0.176 0 0 0.176 23.5313 27.6191)">
	</image>
	
		<image display="inline" overflow="visible" enable-background="new    " width="345" height="350" xlink:href="A3DF5BBA.png"  transform="matrix(0.1217 0 0 0.1217 176.5645 28.8462)">
	</image>
	
		<image display="inline" overflow="visible" enable-background="new    " width="512" height="205" xlink:href="A3DF5BC5.png"  transform="matrix(0.24 0 0 0.24 58.5605 95.4004)">
	</image>
	
		<image display="inline" overflow="visible" width="200" height="200" xlink:href="A3DF5BC6.png"  transform="matrix(0.21 0 0 0.21 25.0645 184.6191)">
	</image>
	<path display="inline" fill="none" enable-background="new    " d="z"/>
	<g display="inline">
		<line fill="none" stroke="#000000" stroke-width="0.3" x1="-74.875" y1="-167.999" x2="-74.875" y2="-131.999"/>
		<line fill="none" stroke="#000000" stroke-width="0.3" x1="-128.875" y1="-113.999" x2="-92.875" y2="-113.999"/>
		<line fill="none" stroke="#000000" stroke-width="0.3" x1="-128.875" y1="368.119" x2="-92.875" y2="368.119"/>
		<line fill="none" stroke="#000000" stroke-width="0.3" x1="-74.875" y1="422.119" x2="-74.875" y2="386.119"/>
		<line fill="none" stroke="#000000" stroke-width="0.3" x1="782.224" y1="-167.999" x2="782.224" y2="-131.999"/>
		<line fill="none" stroke="#000000" stroke-width="0.3" x1="836.224" y1="-113.999" x2="800.224" y2="-113.999"/>
		<line fill="none" stroke="#000000" stroke-width="0.3" x1="836.224" y1="368.119" x2="800.224" y2="368.119"/>
		<line fill="none" stroke="#000000" stroke-width="0.3" x1="782.224" y1="422.119" x2="782.224" y2="386.119"/>
	</g>
</g>
<image overflow="visible" width="809" height="842" xlink:href="A3DF5BCA.png"  transform="matrix(0.24 0 0 0.24 27.4766 16.7202)">
</image>
</svg>
