<?xml version="1.0" encoding="utf-8"?>
<!-- Generator: Adobe Illustrator 16.0.0, SVG Export Plug-In . SVG Version: 6.00 Build 0)  -->
<!DOCTYPE svg PUBLIC "-//W3C//DTD SVG 1.1//EN" "http://www.w3.org/Graphics/SVG/1.1/DTD/svg11.dtd">
<svg version="1.1" xmlns="http://www.w3.org/2000/svg" xmlns:xlink="http://www.w3.org/1999/xlink" x="0px" y="0px" width="240px"
	 height="240px" viewBox="0 0 240 240" enable-background="new 0 0 240 240" xml:space="preserve">
<g id="Layer_1">
	<g>
		<path fill="#414042" d="M235.273,218.38c0,9.329-7.564,16.894-16.894,16.894H21.62c-9.33,0-16.893-7.564-16.893-16.894V21.62
			c0-9.33,7.563-16.893,16.893-16.893h196.76c9.329,0,16.894,7.563,16.894,16.893"/>
		<g>
			<g opacity="0.9">
				<path fill="#6B6B6B" d="M237.385,219.38c0,10.48-8.524,19.005-19.005,19.005H21.62c-10.479,0-19.004-8.524-19.004-19.005V22.62
					c0-10.479,8.525-19.004,19.004-19.004h196.76c10.48,0,19.005,8.525,19.005,19.004 M233.161,22.62
					c0-8.15-6.63-14.781-14.781-14.781H21.62c-8.15,0-14.781,6.631-14.781,14.781v196.76c0,8.151,6.631,14.781,14.781,14.781h196.76
					c8.151,0,14.781-6.63,14.781-14.781"/>
			</g>
			<g>
				<path fill="#58595B" d="M237.385,218.38c0,10.48-8.524,19.005-19.005,19.005H21.62c-10.479,0-19.004-8.524-19.004-19.005V21.62
					c0-10.479,8.525-19.004,19.004-19.004h196.76c10.48,0,19.005,8.525,19.005,19.004 M233.161,21.62
					c0-8.15-6.63-14.781-14.781-14.781H21.62c-8.15,0-14.781,6.631-14.781,14.781v196.76c0,8.151,6.631,14.781,14.781,14.781h196.76
					c8.151,0,14.781-6.63,14.781-14.781"/>
			</g>
		</g>
	</g>
</g>
<g id="Layer_4" display="none">
	<g display="inline">
		<g>
			<path fill="#2BABCE" d="M168.256,89.538v56.372c0,0-16.039-4.508-27.953-2.218c-10.675,2.054-18.528,7.842-19.853,8.865v0.172
				c0,0-0.04-0.034-0.111-0.085c-0.07,0.051-0.11,0.085-0.11,0.085v-0.172c-1.323-1.023-9.178-6.812-19.847-8.865
				c-11.918-2.29-29.525,2.218-29.525,2.218V89.371c-1.03,0.155-2.122,0.319-3.296,0.495v60.729c0,0,19.188-4.939,32.241-2.426
				c12.836,2.469,20.592,9.894,20.592,9.894s7.755-7.425,20.589-9.894c13.058-2.514,31.457,2.426,31.457,2.426V90.127
				C172.439,90.127,170.839,89.857,168.256,89.538z M99.413,137.985c10.438,2.008,18.504,8.047,18.504,8.047v-55.46
				c0,0-8.109-6.048-18.571-8.059C88.756,80.476,74.923,84.5,74.923,84.5v55.463C74.923,139.963,88.801,135.946,99.413,137.985z
				 M164.18,140.162v-55.46c0,0-12.681-4.024-23.266-1.987c-10.462,2.01-18.837,8.058-18.837,8.058v55.462
				c0,0,8.328-6.039,18.768-8.05C151.459,136.149,164.18,140.162,164.18,140.162z"/>
		</g>
	</g>
	<path display="inline" fill="#2BABCE" stroke="#FFFFFF" stroke-width="2" stroke-miterlimit="10" d="M178.837,82.623
		c-0.913-0.914-2.41-0.914-3.323,0l-29.472,29.474c-0.913,0.913-2.41,0.913-3.323,0l-7.259-7.259c-0.913-0.913-2.409-0.913-3.323,0
		l-4.451,4.455c-0.914,0.913-0.914,2.41,0,3.323l15.033,15.031c0.913,0.914,2.41,0.914,3.323,0l37.246-37.249
		c0.915-0.914,0.915-2.41,0-3.324L178.837,82.623z"/>
	<path display="inline" fill="#FFFFFF" d="M195.113,176.848c-0.323-0.322-0.852-0.322-1.175,0l-10.414,10.416
		c-0.322,0.322-0.852,0.322-1.174,0l-2.565-2.565c-0.322-0.322-0.852-0.322-1.174,0l-1.573,1.574c-0.323,0.322-0.323,0.852,0,1.174
		l5.313,5.312c0.322,0.323,0.852,0.323,1.174,0l13.162-13.162c0.323-0.323,0.323-0.852,0-1.175L195.113,176.848z"/>
	<g id="Your_Icon" display="inline">
		<path fill="#2BABCE" stroke="#FFFFFF" stroke-width="2" stroke-miterlimit="10" d="M58.394,133.249
			c0.42,0.803,1.128,1.36,1.929,1.611c0.803,0.251,1.7,0.196,2.504-0.225l18.257-9.556c1.891,2.122,4.348,3.788,7.251,4.696
			c0.153,0.048,0.306,0.069,0.459,0.093c0.141,0.068,0.28,0.139,0.433,0.187c8.563,2.679,17.711-2.11,20.39-10.674
			c0.056-0.177,0.086-0.353,0.11-0.529c0.079-0.158,0.155-0.317,0.209-0.491c2.68-8.564-2.108-17.711-10.672-20.391
			c-0.152-0.048-0.306-0.07-0.459-0.095c-0.14-0.067-0.28-0.137-0.432-0.184c-8.564-2.68-17.711,2.108-20.391,10.672
			c-0.055,0.177-0.085,0.354-0.109,0.53c-0.08,0.157-0.155,0.317-0.21,0.491c-1.062,3.394-0.934,6.875,0.119,10.012l-18,9.42
			C58.175,129.658,57.554,131.643,58.394,133.249z M90.297,123.506c-5.107-1.599-7.962-7.053-6.364-12.16
			c0.055-0.177,0.085-0.353,0.108-0.53c0.08-0.157,0.155-0.317,0.21-0.491c1.598-5.107,7.053-7.962,12.16-6.364
			c0.153,0.048,0.307,0.07,0.459,0.095c0.141,0.067,0.28,0.136,0.432,0.184c5.107,1.598,7.962,7.053,6.364,12.16
			c-0.055,0.177-0.085,0.354-0.108,0.53c-0.081,0.157-0.155,0.316-0.21,0.491c-1.598,5.106-7.053,7.962-12.159,6.364
			c-0.154-0.049-0.307-0.069-0.461-0.096C90.588,123.624,90.45,123.554,90.297,123.506z"/>
	</g>
</g>
<g id="Layer_5">
	<g>
		<path fill="#6D6E71" d="M192.095,128.146c-3.875,0-7.018,3.173-7.018,7.091v76.585c0,3.918,3.143,7.092,7.018,7.092
			c3.877,0,7.019-3.174,7.019-7.092v-76.585C199.113,131.319,195.972,128.146,192.095,128.146z"/>
		<path fill="#6D6E71" d="M208.938,128.146c-3.876,0-7.019,3.173-7.019,7.091v76.585c0,3.918,3.143,7.092,7.019,7.092
			c3.877,0,7.018-3.174,7.018-7.092v-76.585C215.956,131.319,212.815,128.146,208.938,128.146z"/>
		<path fill="#6D6E71" d="M175.246,128.146c-3.876,0-7.019,3.173-7.019,7.091v76.585c0,3.918,3.143,7.092,7.019,7.092
			c3.877,0,7.018-3.174,7.018-7.092v-76.585C182.264,131.319,179.123,128.146,175.246,128.146z"/>
		<path fill="#6D6E71" d="M141.562,128.146c-3.875,0-7.018,3.173-7.018,7.091v76.585c0,3.918,3.143,7.092,7.018,7.092
			c3.877,0,7.019-3.174,7.019-7.092v-76.585C148.58,131.319,145.438,128.146,141.562,128.146z"/>
		<path fill="#6D6E71" d="M158.405,128.146c-3.876,0-7.019,3.173-7.019,7.091v76.585c0,3.918,3.143,7.092,7.019,7.092
			c3.877,0,7.018-3.174,7.018-7.092v-76.585C165.423,131.319,162.282,128.146,158.405,128.146z"/>
	</g>
	<g>
		<path fill="#6D6E71" d="M86.166,128.146c-3.875,0-7.018,3.173-7.018,7.091v76.585c0,3.918,3.143,7.092,7.018,7.092
			c3.877,0,7.018-3.174,7.018-7.092v-76.585C93.184,131.319,90.043,128.146,86.166,128.146z"/>
		<path fill="#6D6E71" d="M103.009,128.146c-3.875,0-7.018,3.173-7.018,7.091v76.585c0,3.918,3.143,7.092,7.018,7.092
			c3.877,0,7.018-3.174,7.018-7.092v-76.585C110.027,131.319,106.886,128.146,103.009,128.146z"/>
		<path fill="#6D6E71" d="M69.317,128.146c-3.875,0-7.018,3.173-7.018,7.091v76.585c0,3.918,3.143,7.092,7.018,7.092
			c3.877,0,7.018-3.174,7.018-7.092v-76.585C76.335,131.319,73.194,128.146,69.317,128.146z"/>
		<path fill="#6D6E71" d="M35.633,128.146c-3.875,0-7.018,3.173-7.018,7.091v76.585c0,3.918,3.143,7.092,7.018,7.092
			c3.876,0,7.018-3.174,7.018-7.092v-76.585C42.651,131.319,39.509,128.146,35.633,128.146z"/>
		<path fill="#6D6E71" d="M52.476,128.146c-3.875,0-7.018,3.173-7.018,7.091v76.585c0,3.918,3.143,7.092,7.018,7.092
			c3.877,0,7.018-3.174,7.018-7.092v-76.585C59.494,131.319,56.353,128.146,52.476,128.146z"/>
	</g>
	<g>
		<path fill="#FBB040" d="M86.166,19.379c-3.875,0-7.018,3.174-7.018,7.092v76.584c0,3.919,3.143,7.091,7.018,7.091
			c3.877,0,7.018-3.172,7.018-7.091V26.471C93.184,22.553,90.043,19.379,86.166,19.379z"/>
		<path fill="#FBB040" d="M103.009,19.379c-3.875,0-7.018,3.174-7.018,7.092v76.584c0,3.919,3.143,7.091,7.018,7.091
			c3.877,0,7.018-3.172,7.018-7.091V26.471C110.027,22.553,106.886,19.379,103.009,19.379z"/>
		<path fill="#FBB040" d="M69.317,19.379c-3.875,0-7.018,3.174-7.018,7.092v76.584c0,3.919,3.143,7.091,7.018,7.091
			c3.877,0,7.018-3.172,7.018-7.091V26.471C76.335,22.553,73.194,19.379,69.317,19.379z"/>
		<path fill="#FBB040" d="M35.633,19.379c-3.875,0-7.018,3.174-7.018,7.092v76.584c0,3.919,3.143,7.091,7.018,7.091
			c3.876,0,7.018-3.172,7.018-7.091V26.471C42.651,22.553,39.509,19.379,35.633,19.379z"/>
		<path fill="#FBB040" d="M52.476,19.379c-3.875,0-7.018,3.174-7.018,7.092v76.584c0,3.919,3.143,7.091,7.018,7.091
			c3.877,0,7.018-3.172,7.018-7.091V26.471C59.494,22.553,56.353,19.379,52.476,19.379z"/>
	</g>
	<g>
		<path fill="#FBB040" d="M208.938,190.496c-3.876,0-7.019,3.173-7.019,7.091v14.235c0,3.918,3.143,7.092,7.019,7.092
			c3.877,0,7.018-3.174,7.018-7.092v-14.235C215.956,193.669,212.815,190.496,208.938,190.496z"/>
		<path fill="#FBB040" d="M175.246,190.496c-3.876,0-7.019,3.173-7.019,7.091v14.235c0,3.918,3.143,7.092,7.019,7.092
			c3.877,0,7.018-3.174,7.018-7.092v-14.235C182.264,193.669,179.123,190.496,175.246,190.496z"/>
	</g>
	<g>
		<path fill="#FFFFFF" stroke="#2BABCE" stroke-miterlimit="10" d="M208.942,79.474c-3.875,0-7.018,3.174-7.018,7.092v16.489
			c0,3.919,3.143,7.091,7.018,7.091c3.877,0,7.019-3.172,7.019-7.091V86.566C215.961,82.648,212.819,79.474,208.942,79.474z"/>
		<path fill="#FFFFFF" stroke="#2BABCE" stroke-miterlimit="10" d="M141.565,79.474c-3.875,0-7.018,3.174-7.018,7.092v16.489
			c0,3.919,3.143,7.091,7.018,7.091c3.877,0,7.019-3.172,7.019-7.091V86.566C148.584,82.648,145.442,79.474,141.565,79.474z"/>
		<path fill="#FFFFFF" stroke="#2BABCE" stroke-miterlimit="10" d="M158.409,79.474c-3.875,0-7.018,3.174-7.018,7.092v16.489
			c0,3.919,3.143,7.091,7.018,7.091c3.877,0,7.019-3.172,7.019-7.091V86.566C165.428,82.648,162.286,79.474,158.409,79.474z"/>
	</g>
	<g>
		<path fill="#6D6E71" d="M192.091,19.379c-3.876,0-7.019,3.174-7.019,7.092v76.584c0,3.918,3.143,7.091,7.019,7.091
			c3.877,0,7.018-3.173,7.018-7.091V26.471C199.108,22.553,195.968,19.379,192.091,19.379z"/>
		<path fill="#6D6E71" d="M208.935,19.379c-3.876,0-7.019,3.174-7.019,7.092v76.584c0,3.918,3.143,7.091,7.019,7.091
			s7.018-3.173,7.018-7.091V26.471C215.952,22.553,212.811,19.379,208.935,19.379z"/>
		<path fill="#6D6E71" d="M175.242,19.379c-3.876,0-7.019,3.174-7.019,7.092v76.584c0,3.918,3.143,7.091,7.019,7.091
			s7.018-3.173,7.018-7.091V26.471C182.26,22.553,179.118,19.379,175.242,19.379z"/>
		<path fill="#6D6E71" d="M141.558,19.379c-3.876,0-7.019,3.174-7.019,7.092v76.584c0,3.918,3.143,7.091,7.019,7.091
			c3.877,0,7.018-3.173,7.018-7.091V26.471C148.575,22.553,145.435,19.379,141.558,19.379z"/>
		<path fill="#6D6E71" d="M158.401,19.379c-3.876,0-7.019,3.174-7.019,7.092v76.584c0,3.918,3.143,7.091,7.019,7.091
			s7.018-3.173,7.018-7.091V26.471C165.419,22.553,162.277,19.379,158.401,19.379z"/>
	</g>
	<g>
		<path fill="#2BABCE" d="M86.166,196.318c-3.875,0-7.018,3.173-7.018,7.091v8.413c0,3.918,3.143,7.092,7.018,7.092
			c3.877,0,7.018-3.174,7.018-7.092v-8.413C93.184,199.491,90.043,196.318,86.166,196.318z"/>
		<path fill="#2BABCE" d="M103.009,196.318c-3.875,0-7.018,3.173-7.018,7.091v8.413c0,3.918,3.143,7.092,7.018,7.092
			c3.877,0,7.018-3.174,7.018-7.092v-8.413C110.027,199.491,106.886,196.318,103.009,196.318z"/>
		<path fill="#2BABCE" d="M69.317,196.318c-3.875,0-7.018,3.173-7.018,7.091v8.413c0,3.918,3.143,7.092,7.018,7.092
			c3.877,0,7.018-3.174,7.018-7.092v-8.413C76.335,199.491,73.194,196.318,69.317,196.318z"/>
		<path fill="#2BABCE" d="M35.633,196.318c-3.875,0-7.018,3.173-7.018,7.091v8.413c0,3.918,3.143,7.092,7.018,7.092
			c3.876,0,7.018-3.174,7.018-7.092v-8.413C42.651,199.491,39.509,196.318,35.633,196.318z"/>
		<path fill="#2BABCE" d="M52.476,196.318c-3.875,0-7.018,3.173-7.018,7.091v8.413c0,3.918,3.143,7.092,7.018,7.092
			c3.877,0,7.018-3.174,7.018-7.092v-8.413C59.494,199.491,56.353,196.318,52.476,196.318z"/>
	</g>
	<g>
		<path fill="#FBB040" d="M86.166,196.318c-3.875,0-7.018,3.173-7.018,7.091v8.413c0,3.918,3.143,7.092,7.018,7.092
			c3.877,0,7.018-3.174,7.018-7.092v-8.413C93.184,199.491,90.043,196.318,86.166,196.318z"/>
		<path fill="#FBB040" d="M103.009,184.522c-3.875,0-7.018,3.173-7.018,7.091v20.209c0,3.918,3.143,7.092,7.018,7.092
			c3.877,0,7.018-3.174,7.018-7.092v-20.209C110.027,187.695,106.886,184.522,103.009,184.522z"/>
		<path fill="#FBB040" d="M69.317,196.318c-3.875,0-7.018,3.173-7.018,7.091v8.413c0,3.918,3.143,7.092,7.018,7.092
			c3.877,0,7.018-3.174,7.018-7.092v-8.413C76.335,199.491,73.194,196.318,69.317,196.318z"/>
		<path fill="#FBB040" d="M35.633,133.608c-3.875,0-7.018,3.173-7.018,7.091v71.123c0,3.918,3.143,7.092,7.018,7.092
			c3.876,0,7.018-3.174,7.018-7.092v-71.123C42.651,136.781,39.509,133.608,35.633,133.608z"/>
		<path fill="#FBB040" d="M52.476,169.17c-3.875,0-7.018,3.173-7.018,7.091v35.562c0,3.918,3.143,7.092,7.018,7.092
			c3.877,0,7.018-3.174,7.018-7.092v-35.562C59.494,172.343,56.353,169.17,52.476,169.17z"/>
	</g>
	<g>
		<path fill="#FBB040" d="M192.099,47.501c-3.875,0-7.018,3.174-7.018,7.092v48.462c0,3.919,3.143,7.091,7.018,7.091
			c3.877,0,7.019-3.172,7.019-7.091V54.593C199.117,50.675,195.976,47.501,192.099,47.501z"/>
		<path fill="#FBB040" d="M208.942,79.474c-3.875,0-7.018,3.174-7.018,7.092v16.489c0,3.919,3.143,7.091,7.018,7.091
			c3.877,0,7.019-3.172,7.019-7.091V86.566C215.961,82.648,212.819,79.474,208.942,79.474z"/>
		<path fill="#FBB040" d="M175.25,62.986c-3.875,0-7.019,3.173-7.019,7.091v32.977c0,3.919,3.144,7.091,7.019,7.091
			c3.877,0,7.019-3.172,7.019-7.091V70.078C182.269,66.16,179.127,62.986,175.25,62.986z"/>
		<path fill="#FBB040" d="M141.565,79.474c-3.875,0-7.018,3.174-7.018,7.092v16.489c0,3.919,3.143,7.091,7.018,7.091
			c3.877,0,7.019-3.172,7.019-7.091V86.566C148.584,82.648,145.442,79.474,141.565,79.474z"/>
		<path fill="#FBB040" d="M158.409,79.474c-3.875,0-7.018,3.174-7.018,7.092v16.489c0,3.919,3.143,7.091,7.018,7.091
			c3.877,0,7.019-3.172,7.019-7.091V86.566C165.428,82.648,162.286,79.474,158.409,79.474z"/>
	</g>
</g>
<g id="Layer_2" display="none">
	<g display="inline">
		<path fill="#2BABCE" d="M157.093,131.522c-2.908-1.48-6.261-1.152-8.779,0.566c-0.218-0.033-0.437-0.072-0.656-0.111
			c-0.76-0.145-1.519-0.336-2.271-0.568c-0.753-0.235-1.499-0.511-2.236-0.837c-1.703-0.755-3.251-1.71-4.634-2.829
			c-0.38-2.69-2.021-5.16-4.627-6.488c-4.244-2.161-9.437-0.472-11.598,3.774c-2.159,4.246-0.471,9.437,3.774,11.597
			c2.766,1.408,5.933,1.18,8.402-0.321c1.84,0.259,3.676,0.769,5.462,1.557c1.763,0.782,3.359,1.781,4.779,2.95
			c0.48,2.531,2.085,4.823,4.559,6.082c4.246,2.162,9.438,0.473,11.598-3.773C163.027,138.877,161.338,133.685,157.093,131.522z
			 M129.001,130.863c-0.541,1.061-1.84,1.482-2.9,0.943c-1.06-0.542-1.483-1.84-0.942-2.9c0.539-1.061,1.837-1.483,2.898-0.942
			C129.118,128.503,129.541,129.801,129.001,130.863z M134.799,128.976c-0.54,1.061-1.838,1.484-2.899,0.943
			c-1.062-0.539-1.482-1.838-0.943-2.9c0.541-1.061,1.839-1.481,2.899-0.942C134.918,126.617,135.339,127.915,134.799,128.976z
			 M156.372,142.446l-2.562-1.305l-1.304,2.563l-2.563-1.304l1.305-2.563l-2.562-1.304l1.304-2.563l2.563,1.304l1.304-2.56
			l2.562,1.304l-1.304,2.56l2.562,1.305L156.372,142.446z"/>
		<path fill="#2BABCE" d="M128.881,162.16c-2.581-1.14-5.598,0.026-6.739,2.609c-1.144,2.581,0.028,5.597,2.607,6.74
			c2.58,1.145,5.601-0.025,6.74-2.608C132.629,166.319,131.465,163.303,128.881,162.16z"/>
		<path fill="#2BABCE" d="M133.094,138.755l-6.339,20.249c1.078-0.015,2.173,0.202,3.228,0.667c1.048,0.462,1.943,1.132,2.66,1.931
			l10.77-18.465c-1.368-1.099-2.901-2.04-4.583-2.782C136.955,139.524,135.026,139,133.094,138.755z"/>
	</g>
	<g display="inline">
		<path fill="#2BABCE" d="M171.831,65.332l-0.01-0.318l-1.824,4.048l-7.062,14.785c0,0-7.061,9.403-7.506,17.625
			c-0.111,2.059-3.95-0.318-6.391-1.497l-3.589,8.118L140.188,120l-1.833,4.146c1.676,1.604,3.655,2.943,5.897,3.935
			c2.053,0.911,4.171,1.455,6.289,1.663l4.308-9.744l0.981-2.22l11.177-25.282l5.128-12.071L171.831,65.332z"/>
		<path fill="#2BABCE" d="M154.691,87.188l2.914-6.594l0.442-1l1.989-4.5l0.529-0.453l8.129-6.953l3.126-2.674
			c-1.229-0.459-3.047-0.859-4.275-1.274v0c-32.631-10.495-64.955-5.396-83.268,16.299c-19.953,23.638-17.698,60.364,2.526,92.926
			c-5.79-20.061-3.088-40.324,9.32-55.025c12.147-14.39,31.112-20.492,51.366-18.546c0.354,0.041,0.905,0.272,1.548,0.583
			l0.39-0.882L154.691,87.188z"/>
		<path fill="#F1F2F2" d="M155.43,101.472c0.445-8.222,7.506-17.625,7.506-17.625l7.062-14.785l1.824-4.048l-3.126,2.674
			l-8.129,6.953l-0.529,0.453l-1.989,4.5l-0.442,1l-2.914,6.594l-5.263,11.906l-0.39,0.882
			C151.479,101.154,155.318,103.531,155.43,101.472z"/>
	</g>
</g>
<g id="Layer_3" display="none">
	<g display="inline">
		<path fill="#2BABCE" d="M81.217,124.277c-14.099-2.162-24.964-13.103-27.037-27.224c-2.587-17.615,9.639-34.051,27.254-36.639
			c1.566-0.23,3.156-0.346,4.727-0.346c15.883,0,29.601,11.867,31.91,27.604c0.678,4.618,0.353,9.245-0.968,13.751l-0.299,1.02
			l-1.062,0.056c-4.587,0.243-9.04,1.258-13.234,3.019l-5.313,2.229l3.551-4.537c1.468-1.876,2.257-3.893,2.324-5.907l-31.754,4.662
			c1.58,4.695,7.236,7.966,14.128,7.966c1.065,0,2.15-0.08,3.223-0.237c0.665-0.097,1.361-0.241,2.193-0.452l6.296-1.596
			l-4.958,4.195c-3.876,3.28-7.049,7.203-9.431,11.661l-0.501,0.937L81.217,124.277z M74.304,80.673
			c-0.171,0-0.345,0.013-0.519,0.038c-0.934,0.137-1.757,0.628-2.32,1.384c-0.563,0.757-0.798,1.688-0.661,2.621
			c0.253,1.721,1.751,3.019,3.486,3.019c0.171,0,0.345-0.013,0.52-0.038c1.926-0.284,3.262-2.081,2.979-4.005
			C77.536,81.97,76.038,80.673,74.304,80.673z M95.112,77.617c-0.171,0-0.344,0.012-0.518,0.038c-1.925,0.283-3.262,2.08-2.98,4.006
			c0.252,1.719,1.751,3.017,3.485,3.017c0.171,0,0.345-0.013,0.52-0.038c1.926-0.283,3.263-2.08,2.98-4.006
			C98.347,78.914,96.847,77.617,95.112,77.617z"/>
		<path fill="#FFFFFF" d="M86.161,61.568c15.025,0,28.179,11.011,30.426,26.322c0.666,4.537,0.287,8.98-0.923,13.111
			c-4.845,0.256-9.471,1.344-13.736,3.134c1.996-2.55,2.987-5.531,2.542-8.553l-34.989,5.137
			c0.928,6.328,7.758,10.712,15.964,10.712c1.125,0,2.276-0.083,3.441-0.253c0.806-0.118,1.581-0.288,2.344-0.481
			c-3.976,3.364-7.309,7.463-9.785,12.099c-13.013-1.996-23.769-12.254-25.78-25.959c-2.471-16.827,9.165-32.466,25.989-34.938
			C83.168,61.676,84.674,61.568,86.161,61.568 M95.1,86.177c0.243,0,0.49-0.018,0.738-0.054c2.75-0.404,4.649-2.959,4.246-5.708
			c-0.368-2.5-2.517-4.299-4.972-4.299c-0.243,0-0.489,0.018-0.736,0.054c-2.749,0.404-4.649,2.959-4.247,5.708
			C90.497,84.379,92.645,86.177,95.1,86.177 M74.291,89.235c0.243,0,0.49-0.018,0.737-0.054c2.749-0.405,4.65-2.959,4.245-5.708
			c-0.367-2.5-2.514-4.3-4.968-4.3c-0.243,0-0.49,0.018-0.737,0.054c-2.749,0.401-4.651,2.958-4.247,5.708
			C69.688,87.437,71.835,89.235,74.291,89.235 M86.161,58.568L86.161,58.568c-1.643,0-3.306,0.122-4.944,0.362
			c-18.434,2.708-31.229,19.908-28.521,38.342c2.168,14.777,13.539,26.225,28.294,28.488l2.1,0.322l1.001-1.873
			c2.292-4.29,5.346-8.065,9.077-11.223l4.504-3.811l5.417-2.274c4.035-1.693,8.319-2.67,12.733-2.904l2.123-0.112l0.598-2.04
			c1.381-4.715,1.722-9.557,1.013-14.391c-1.185-8.074-5.247-15.441-11.438-20.745C101.989,61.459,94.192,58.568,86.161,58.568
			L86.161,58.568L86.161,58.568z M95.1,83.177c-0.996,0-1.856-0.746-2.001-1.735c-0.162-1.106,0.607-2.141,1.715-2.303
			c0.099-0.015,0.2-0.022,0.299-0.022c0.997,0,1.858,0.746,2.004,1.736c0.162,1.105-0.607,2.139-1.715,2.302
			C95.301,83.17,95.199,83.177,95.1,83.177L95.1,83.177z M74.291,86.235c-0.996,0-1.857-0.747-2.002-1.736
			c-0.079-0.538,0.056-1.072,0.379-1.507s0.797-0.717,1.333-0.795c0.103-0.016,0.205-0.023,0.304-0.023c0.995,0,1.855,0.746,2,1.735
			c0.079,0.538-0.055,1.072-0.378,1.507c-0.324,0.435-0.798,0.718-1.335,0.798C74.492,86.227,74.391,86.235,74.291,86.235
			L74.291,86.235z M73.541,103.155l27.728-4.071c-0.383,1.292-1.065,2.387-1.704,3.203l-3.125,3.994l-5.948,1.508
			c-0.781,0.198-1.429,0.332-2.04,0.421c-1.004,0.148-2.015,0.222-3.008,0.222C80.092,108.431,75.581,106.332,73.541,103.155
			L73.541,103.155z"/>
	</g>
	<g display="inline">
		<path fill="#2BABCE" d="M153.206,123.829c-5.811-11.109-16.642-18.919-28.975-20.892l-0.919-0.147l-0.276-0.889
			c-1.304-4.199-1.731-8.545-1.272-12.916c1.737-16.485,15.525-28.916,32.074-28.916c1.133,0,2.281,0.061,3.414,0.18
			c8.578,0.902,16.291,5.09,21.719,11.794c5.428,6.704,7.92,15.12,7.017,23.697c-1.693,16.144-15.202,28.565-31.422,28.895
			l-0.929,0.019L153.206,123.829z M137.146,97.994c0.421,5.804,6.727,10.931,14.898,11.791c0.777,0.082,1.563,0.123,2.334,0.123
			c7.237,0,13.229-3.587,14.685-8.557L137.146,97.994z M165.351,80.195c-1.806,0-3.311,1.359-3.5,3.162
			c-0.1,0.937,0.172,1.856,0.766,2.589c0.594,0.733,1.438,1.191,2.375,1.289c0.129,0.013,0.255,0.02,0.38,0.02
			c1.805,0,3.311-1.359,3.502-3.161c0.201-1.934-1.209-3.675-3.145-3.878C165.602,80.202,165.476,80.195,165.351,80.195z
			 M144.432,77.995c-1.805,0-3.311,1.36-3.503,3.163c-0.199,1.933,1.21,3.673,3.143,3.875c0.13,0.014,0.256,0.021,0.382,0.021
			c1.805,0,3.31-1.359,3.498-3.161c0.1-0.938-0.173-1.858-0.766-2.591c-0.593-0.732-1.437-1.189-2.374-1.288
			C144.683,78.001,144.557,77.995,144.432,77.995z"/>
		<path fill="#FFFFFF" d="M153.838,61.569c1.075,0,2.164,0.057,3.257,0.171c16.912,1.778,29.182,16.931,27.4,33.842
			c-1.637,15.606-14.671,27.242-29.96,27.552c-5.925-11.328-16.951-19.58-30.066-21.678c-1.2-3.866-1.663-8.033-1.213-12.314
			C124.922,73.325,138.278,61.569,153.838,61.569 M144.453,86.554c2.54,0,4.719-1.921,4.99-4.504
			c0.291-2.764-1.712-5.238-4.476-5.527c-0.18-0.019-0.359-0.028-0.536-0.028c-2.54,0-4.72,1.92-4.994,4.504
			c-0.285,2.762,1.713,5.236,4.478,5.526C144.096,86.544,144.275,86.554,144.453,86.554 M165.371,88.754
			c2.541,0,4.719-1.92,4.993-4.503c0.288-2.764-1.714-5.238-4.479-5.528c-0.18-0.019-0.358-0.028-0.535-0.028
			c-2.541,0-4.72,1.919-4.992,4.504c-0.293,2.761,1.713,5.239,4.478,5.527C165.016,88.745,165.194,88.754,165.371,88.754
			 M154.378,111.408c8.63,0,15.774-4.774,16.469-11.377l-35.169-3.699c-0.759,7.233,6.496,13.923,16.209,14.945
			C152.729,111.365,153.56,111.408,154.378,111.408 M153.838,58.569c-17.318,0-31.748,13.008-33.565,30.258
			c-0.481,4.576-0.033,9.124,1.331,13.519l0.553,1.778l1.839,0.294c11.867,1.898,22.29,9.415,27.882,20.106l0.861,1.646l1.857-0.038
			c16.975-0.344,31.111-13.343,32.883-30.238c0.945-8.975-1.662-17.781-7.342-24.796s-13.752-11.398-22.729-12.342
			C156.224,58.632,155.022,58.569,153.838,58.569L153.838,58.569z M144.453,83.554c-0.073,0-0.146-0.004-0.221-0.012
			c-1.116-0.117-1.926-1.119-1.811-2.234c0.109-1.029,0.974-1.813,2.01-1.813c0.072,0,0.146,0.004,0.22,0.012
			c0.543,0.057,1.027,0.319,1.368,0.74c0.341,0.421,0.497,0.95,0.44,1.49C146.351,82.772,145.488,83.554,144.453,83.554
			L144.453,83.554z M165.371,85.754c-0.073,0-0.146-0.004-0.22-0.012c-0.544-0.057-1.028-0.32-1.37-0.741
			c-0.341-0.421-0.497-0.948-0.439-1.486c0.109-1.039,0.973-1.821,2.009-1.821c0.073,0,0.146,0.004,0.22,0.012
			c1.115,0.117,1.927,1.119,1.811,2.234C167.271,84.972,166.407,85.754,165.371,85.754L165.371,85.754z M154.378,108.408
			c-0.72,0-1.452-0.039-2.178-0.115c-6.422-0.676-11.715-4.316-13.176-8.593l27.862,2.931
			C164.869,106.065,160.053,108.408,154.378,108.408L154.378,108.408z"/>
	</g>
	<g display="inline">
		<path fill="#94B43D" d="M117.222,179.429c-20.499-0.267-36.96-17.159-36.695-37.655c0.262-20.233,16.933-36.695,37.162-36.695
			l0.494,0.003c20.496,0.267,36.956,17.16,36.691,37.656c-0.26,20.233-16.935,36.694-37.168,36.694
			C117.704,179.432,117.222,179.429,117.222,179.429z M97.872,149.873c0.277,3.438,2.208,6.677,5.517,9.208
			c3.717,2.843,8.702,4.445,14.037,4.514l0.358,0.002c10.248,0,18.742-5.84,19.54-13.212L97.872,149.873z M130.205,126.002
			c-2.668,0-4.871,2.176-4.911,4.85c-0.034,2.704,2.142,4.936,4.849,4.971c0.001,0,0.001,0,0.001,0c2.738,0,4.94-2.174,4.974-4.847
			c0.031-2.708-2.144-4.939-4.847-4.973l-0.065-1.001V126.002z M105.494,125.68c-2.672,0-4.874,2.176-4.908,4.849
			c-0.035,2.707,2.139,4.938,4.846,4.973c0,0,0.001,0,0.001,0c2.736,0,4.936-2.173,4.971-4.843c0.017-1.314-0.479-2.556-1.394-3.495
			c-0.915-0.94-2.14-1.467-3.451-1.482l-0.065-1.001V125.68z"/>
		<path fill="#FFFFFF" d="M117.689,106.079c0.16,0,0.321,0.001,0.481,0.003c19.978,0.26,35.962,16.667,35.704,36.643
			c-0.255,19.818-16.407,35.707-36.17,35.707c-0.156,0-0.313-0.001-0.469-0.003c-19.978-0.26-35.966-16.664-35.708-36.643
			C81.784,121.969,97.928,106.079,117.689,106.079 M105.499,136.502c3.227,0,5.862-2.595,5.905-5.831
			c0.041-3.269-2.568-5.95-5.832-5.99c-0.026,0-0.052-0.001-0.078-0.001c-3.228,0.001-5.867,2.598-5.908,5.836
			c-0.042,3.264,2.566,5.943,5.833,5.985C105.446,136.501,105.472,136.502,105.499,136.502 M130.207,136.823
			c3.229,0,5.869-2.598,5.91-5.835c0.037-3.264-2.57-5.945-5.834-5.985c-0.026,0-0.052-0.001-0.078-0.001
			c-3.228,0.001-5.862,2.595-5.911,5.835c-0.041,3.264,2.572,5.942,5.836,5.985C130.156,136.822,130.182,136.823,130.207,136.823
			 M117.784,164.597c11.301,0,20.491-6.75,20.6-15.198l-41.545-0.539c-0.111,8.541,9.1,15.589,20.575,15.735
			C117.537,164.597,117.66,164.597,117.784,164.597 M117.689,104.079c-10.092,0-19.609,3.906-26.799,10.998
			c-7.196,7.099-11.231,16.575-11.363,26.683c-0.272,21.049,16.632,38.396,37.682,38.669c0.165,0.002,0.331,0.003,0.495,0.003
			c10.094,0,19.614-3.905,26.805-10.997c7.199-7.1,11.235-16.576,11.365-26.685c0.271-21.048-16.631-38.394-37.678-38.668
			C118.028,104.08,117.857,104.079,117.689,104.079L117.689,104.079z M105.499,134.502l-0.053-0.001
			c-2.156-0.027-3.887-1.804-3.86-3.96c0.027-2.129,1.78-3.86,3.908-3.861l0.051,0.001c1.045,0.013,2.021,0.432,2.749,1.18
			c0.729,0.749,1.123,1.738,1.11,2.785C109.375,132.771,107.624,134.502,105.499,134.502L105.499,134.502z M130.207,134.823
			l-0.052-0.001c-2.156-0.028-3.889-1.805-3.861-3.96c0.031-2.126,1.786-3.859,3.912-3.86l0.052,0.001
			c2.153,0.026,3.884,1.804,3.859,3.963C134.091,133.092,132.337,134.823,130.207,134.823L130.207,134.823z M117.784,162.597
			l-0.345-0.002c-5.122-0.065-9.896-1.596-13.443-4.309c-2.719-2.079-4.436-4.653-4.976-7.398l37.128,0.481
			C134.721,157.718,127,162.597,117.784,162.597L117.784,162.597z"/>
	</g>
	
		<text transform="matrix(1 0 0 1 176.6914 203.3848)" display="inline" fill="#FFFFFF" font-family="'BebasNeue'" font-size="47.4504">+</text>
</g>
</svg>
